<svg xmlns="http://www.w3.org/2000/svg" xmlns:xlink="http://www.w3.org/1999/xlink" width="3231" zoomAndPan="magnify" viewBox="0 0 2423.25 1594.499952" height="2126" preserveAspectRatio="xMidYMid meet" version="1.0"><defs><g/><clipPath id="72b6f923ee"><path d="M 0.00390625 0 L 2422.496094 0 L 2422.496094 1594 L 0.00390625 1594 Z M 0.00390625 0 " clip-rule="nonzero"/></clipPath><clipPath id="3d61c467ea"><path d="M 25 31 L 492 31 L 492 1594 L 25 1594 Z M 25 31 " clip-rule="nonzero"/></clipPath><clipPath id="9ab3b358a5"><path d="M 1934 31 L 2402 31 L 2402 1594 L 1934 1594 Z M 1934 31 " clip-rule="nonzero"/></clipPath><clipPath id="c0e1682d86"><rect x="0" width="2423" y="0" height="1594"/></clipPath></defs><g clip-path="url(#72b6f923ee)"><g transform="matrix(1, 0, 0, 1, 0, 0)"><g clip-path="url(#c0e1682d86)"><g clip-path="url(#3d61c467ea)"><g fill="#ffffff" fill-opacity="1"><g transform="translate(-285.212361, 1411.400849)"><g><path d="M 310.921875 182.90625 L 310.921875 -1380.0625 L 776.484375 -1380.0625 L 776.484375 -1188.84375 L 518.765625 -1188.84375 L 518.765625 -8.3125 L 776.484375 -8.3125 L 776.484375 182.90625 Z M 310.921875 182.90625 "/></g></g></g></g><g fill="#ffffff" fill-opacity="1"><g transform="translate(712.421176, 1411.400849)"><g><path d="M 276.015625 -590.265625 C 276.015625 -622.410156 281.554688 -651.785156 292.640625 -678.390625 C 303.722656 -704.992188 319.238281 -727.992188 339.1875 -747.390625 C 359.144531 -766.785156 382.703125 -782.023438 409.859375 -793.109375 C 437.015625 -804.203125 466.664062 -809.75 498.8125 -809.75 C 530.957031 -809.75 560.609375 -804.203125 587.765625 -793.109375 C 614.921875 -782.023438 638.472656 -766.785156 658.421875 -747.390625 C 678.378906 -727.992188 693.898438 -704.992188 704.984375 -678.390625 C 716.078125 -651.785156 721.625 -622.410156 721.625 -590.265625 C 721.625 -559.222656 716.078125 -530.398438 704.984375 -503.796875 C 693.898438 -477.203125 678.378906 -454.203125 658.421875 -434.796875 C 638.472656 -415.398438 614.921875 -400.4375 587.765625 -389.90625 C 560.609375 -379.375 530.957031 -374.109375 498.8125 -374.109375 C 466.664062 -374.109375 437.015625 -379.375 409.859375 -389.90625 C 382.703125 -400.4375 359.144531 -415.398438 339.1875 -434.796875 C 319.238281 -454.203125 303.722656 -477.203125 292.640625 -503.796875 C 281.554688 -530.398438 276.015625 -559.222656 276.015625 -590.265625 Z M 276.015625 -590.265625 "/></g></g></g><g clip-path="url(#9ab3b358a5)"><g fill="#ffffff" fill-opacity="1"><g transform="translate(1710.054712, 1411.400849)"><g><path d="M 224.46875 182.90625 L 224.46875 -8.3125 L 482.1875 -8.3125 L 482.1875 -1188.84375 L 224.46875 -1188.84375 L 224.46875 -1380.0625 L 691.6875 -1380.0625 L 691.6875 182.90625 Z M 224.46875 182.90625 "/></g></g></g></g></g></g></g></svg>