<svg xmlns="http://www.w3.org/2000/svg" xmlns:xlink="http://www.w3.org/1999/xlink" width="748" zoomAndPan="magnify" viewBox="0 0 561 316.499991" height="422" preserveAspectRatio="xMidYMid meet" version="1.0"><defs><filter x="0%" y="0%" width="100%" height="100%" id="2211031c0e"><feColorMatrix values="0 0 0 0 1 0 0 0 0 1 0 0 0 0 1 0 0 0 1 0" color-interpolation-filters="sRGB"/></filter><g/><clipPath id="d462888af9"><path d="M 0.441406 0 L 560.554688 0 L 560.554688 316 L 0.441406 316 Z M 0.441406 0 " clip-rule="nonzero"/></clipPath><clipPath id="b6d3c4d683"><path d="M 24.40625 0 L 539.21875 0 C 552.453125 0 563.179688 10.726562 563.179688 23.960938 L 563.179688 292.039062 C 563.179688 305.273438 552.453125 316 539.21875 316 L 24.40625 316 C 11.171875 316 0.441406 305.273438 0.441406 292.039062 L 0.441406 23.960938 C 0.441406 10.726562 11.171875 0 24.40625 0 Z M 24.40625 0 " clip-rule="nonzero"/></clipPath><clipPath id="b3b537737d"><path d="M 0.441406 0 L 560.554688 0 L 560.554688 316 L 0.441406 316 Z M 0.441406 0 " clip-rule="nonzero"/></clipPath><clipPath id="08aeb73b03"><path d="M 24.40625 0 L 539.21875 0 C 552.453125 0 563.179688 10.726562 563.179688 23.960938 L 563.179688 292.039062 C 563.179688 305.273438 552.453125 316 539.21875 316 L 24.40625 316 C 11.171875 316 0.441406 305.273438 0.441406 292.039062 L 0.441406 23.960938 C 0.441406 10.726562 11.171875 0 24.40625 0 Z M 24.40625 0 " clip-rule="nonzero"/></clipPath><linearGradient x1="49.975249" gradientTransform="matrix(1.234378, 0, 0, 1.234378, 0.434414, 0.000000000000021283)" y1="-49.968751" x2="404.856772" gradientUnits="userSpaceOnUse" y2="304.912762" id="4b353763e1"><stop stop-opacity="1" stop-color="rgb(13.328552%, 13.328552%, 13.328552%)" offset="0"/><stop stop-opacity="1" stop-color="rgb(13.188171%, 13.188171%, 13.188171%)" offset="0.03125"/><stop stop-opacity="1" stop-color="rgb(12.90741%, 12.90741%, 12.90741%)" offset="0.0625"/><stop stop-opacity="1" stop-color="rgb(12.626648%, 12.626648%, 12.626648%)" offset="0.09375"/><stop stop-opacity="1" stop-color="rgb(12.345886%, 12.345886%, 12.345886%)" offset="0.125"/><stop stop-opacity="1" stop-color="rgb(12.065125%, 12.065125%, 12.065125%)" offset="0.15625"/><stop stop-opacity="1" stop-color="rgb(11.782837%, 11.782837%, 11.782837%)" offset="0.1875"/><stop stop-opacity="1" stop-color="rgb(11.502075%, 11.502075%, 11.502075%)" offset="0.21875"/><stop stop-opacity="1" stop-color="rgb(11.221313%, 11.221313%, 11.221313%)" offset="0.25"/><stop stop-opacity="1" stop-color="rgb(10.940552%, 10.940552%, 10.940552%)" offset="0.28125"/><stop stop-opacity="1" stop-color="rgb(10.65979%, 10.65979%, 10.65979%)" offset="0.3125"/><stop stop-opacity="1" stop-color="rgb(10.377502%, 10.377502%, 10.377502%)" offset="0.34375"/><stop stop-opacity="1" stop-color="rgb(10.096741%, 10.096741%, 10.096741%)" offset="0.360684"/><stop stop-opacity="1" stop-color="rgb(9.95636%, 9.95636%, 9.95636%)" offset="0.375"/><stop stop-opacity="1" stop-color="rgb(9.815979%, 9.815979%, 9.815979%)" offset="0.40625"/><stop stop-opacity="1" stop-color="rgb(9.535217%, 9.535217%, 9.535217%)" offset="0.4375"/><stop stop-opacity="1" stop-color="rgb(9.254456%, 9.254456%, 9.254456%)" offset="0.46875"/><stop stop-opacity="1" stop-color="rgb(8.973694%, 8.973694%, 8.973694%)" offset="0.5"/><stop stop-opacity="1" stop-color="rgb(8.691406%, 8.691406%, 8.691406%)" offset="0.53125"/><stop stop-opacity="1" stop-color="rgb(8.410645%, 8.410645%, 8.410645%)" offset="0.5625"/><stop stop-opacity="1" stop-color="rgb(8.129883%, 8.129883%, 8.129883%)" offset="0.59375"/><stop stop-opacity="1" stop-color="rgb(7.849121%, 7.849121%, 7.849121%)" offset="0.625"/><stop stop-opacity="1" stop-color="rgb(7.568359%, 7.568359%, 7.568359%)" offset="0.639316"/><stop stop-opacity="1" stop-color="rgb(7.427979%, 7.427979%, 7.427979%)" offset="0.65625"/><stop stop-opacity="1" stop-color="rgb(7.286072%, 7.286072%, 7.286072%)" offset="0.6875"/><stop stop-opacity="1" stop-color="rgb(7.00531%, 7.00531%, 7.00531%)" offset="0.71875"/><stop stop-opacity="1" stop-color="rgb(6.724548%, 6.724548%, 6.724548%)" offset="0.75"/><stop stop-opacity="1" stop-color="rgb(6.443787%, 6.443787%, 6.443787%)" offset="0.78125"/><stop stop-opacity="1" stop-color="rgb(6.163025%, 6.163025%, 6.163025%)" offset="0.8125"/><stop stop-opacity="1" stop-color="rgb(5.882263%, 5.882263%, 5.882263%)" offset="0.84375"/><stop stop-opacity="1" stop-color="rgb(5.599976%, 5.599976%, 5.599976%)" offset="0.875"/><stop stop-opacity="1" stop-color="rgb(5.319214%, 5.319214%, 5.319214%)" offset="0.90625"/><stop stop-opacity="1" stop-color="rgb(5.038452%, 5.038452%, 5.038452%)" offset="0.9375"/><stop stop-opacity="1" stop-color="rgb(4.75769%, 4.75769%, 4.75769%)" offset="0.96875"/><stop stop-opacity="1" stop-color="rgb(4.476929%, 4.476929%, 4.476929%)" offset="1"/></linearGradient><clipPath id="af18b0f187"><rect x="0" width="561" y="0" height="316"/></clipPath><clipPath id="6de34340ec"><path d="M 2.984375 0 L 399.761719 0 L 399.761719 259.296875 L 2.984375 259.296875 Z M 2.984375 0 " clip-rule="nonzero"/></clipPath><clipPath id="dcf3535297"><path d="M 0.984375 0 L 397.761719 0 L 397.761719 259.296875 L 0.984375 259.296875 Z M 0.984375 0 " clip-rule="nonzero"/></clipPath><clipPath id="21ecbd2036"><path d="M 41.75 0 L 354.28125 0 L 354.28125 253.859375 L 41.75 253.859375 Z M 41.75 0 " clip-rule="nonzero"/></clipPath><linearGradient x1="-38.726503" gradientTransform="matrix(2.715299, 0, 0, 2.715893, 136.052456, 28.325099)" y1="79.046501" x2="65.55969" gradientUnits="userSpaceOnUse" y2="-25.239688" id="7ddd37467b"><stop stop-opacity="1" stop-color="rgb(3.138733%, 12.939453%, 13.328552%)" offset="0"/><stop stop-opacity="1" stop-color="rgb(3.138733%, 12.939453%, 13.328552%)" offset="0.448153"/><stop stop-opacity="1" stop-color="rgb(3.138733%, 12.939453%, 13.328552%)" offset="0.5"/><stop stop-opacity="1" stop-color="rgb(3.138733%, 12.939453%, 13.328552%)" offset="0.507812"/><stop stop-opacity="1" stop-color="rgb(3.451538%, 13.490295%, 13.793945%)" offset="0.511719"/><stop stop-opacity="1" stop-color="rgb(3.765869%, 14.042664%, 14.260864%)" offset="0.515625"/><stop stop-opacity="1" stop-color="rgb(4.682922%, 15.653992%, 15.621948%)" offset="0.519531"/><stop stop-opacity="1" stop-color="rgb(5.599976%, 17.26532%, 16.983032%)" offset="0.523438"/><stop stop-opacity="1" stop-color="rgb(6.515503%, 18.875122%, 18.344116%)" offset="0.527344"/><stop stop-opacity="1" stop-color="rgb(7.432556%, 20.48645%, 19.7052%)" offset="0.53125"/><stop stop-opacity="1" stop-color="rgb(8.348083%, 22.097778%, 21.066284%)" offset="0.535156"/><stop stop-opacity="1" stop-color="rgb(9.265137%, 23.709106%, 22.428894%)" offset="0.539062"/><stop stop-opacity="1" stop-color="rgb(10.180664%, 25.320435%, 23.789978%)" offset="0.542969"/><stop stop-opacity="1" stop-color="rgb(11.097717%, 26.931763%, 25.151062%)" offset="0.546875"/><stop stop-opacity="1" stop-color="rgb(12.013245%, 28.543091%, 26.512146%)" offset="0.550781"/><stop stop-opacity="1" stop-color="rgb(12.930298%, 30.154419%, 27.87323%)" offset="0.554688"/><stop stop-opacity="1" stop-color="rgb(13.847351%, 31.765747%, 29.234314%)" offset="0.558594"/><stop stop-opacity="1" stop-color="rgb(14.764404%, 33.377075%, 30.595398%)" offset="0.5625"/><stop stop-opacity="1" stop-color="rgb(15.264893%, 35.395813%, 31.660461%)" offset="0.566406"/><stop stop-opacity="1" stop-color="rgb(15.765381%, 37.414551%, 32.725525%)" offset="0.570312"/><stop stop-opacity="1" stop-color="rgb(15.208435%, 40.46936%, 33.03833%)" offset="0.574219"/><stop stop-opacity="1" stop-color="rgb(14.653015%, 43.52417%, 33.351135%)" offset="0.578125"/><stop stop-opacity="1" stop-color="rgb(14.097595%, 46.578979%, 33.662415%)" offset="0.582031"/><stop stop-opacity="1" stop-color="rgb(13.542175%, 49.635315%, 33.97522%)" offset="0.585938"/><stop stop-opacity="1" stop-color="rgb(12.985229%, 52.690125%, 34.288025%)" offset="0.589844"/><stop stop-opacity="1" stop-color="rgb(12.42981%, 55.744934%, 34.60083%)" offset="0.59375"/><stop stop-opacity="1" stop-color="rgb(11.872864%, 58.799744%, 34.913635%)" offset="0.597656"/><stop stop-opacity="1" stop-color="rgb(11.317444%, 61.854553%, 35.22644%)" offset="0.601562"/><stop stop-opacity="1" stop-color="rgb(10.760498%, 64.909363%, 35.53772%)" offset="0.605469"/><stop stop-opacity="1" stop-color="rgb(10.205078%, 67.965698%, 35.850525%)" offset="0.609375"/><stop stop-opacity="1" stop-color="rgb(14.001465%, 70.420837%, 37.055969%)" offset="0.613281"/><stop stop-opacity="1" stop-color="rgb(17.797852%, 72.877502%, 38.262939%)" offset="0.617188"/><stop stop-opacity="1" stop-color="rgb(24.102783%, 74.987793%, 39.984131%)" offset="0.621094"/><stop stop-opacity="1" stop-color="rgb(30.407715%, 77.098083%, 41.706848%)" offset="0.625"/><stop stop-opacity="1" stop-color="rgb(36.711121%, 79.208374%, 43.42804%)" offset="0.628906"/><stop stop-opacity="1" stop-color="rgb(43.016052%, 81.318665%, 45.150757%)" offset="0.632813"/><stop stop-opacity="1" stop-color="rgb(49.320984%, 83.428955%, 46.871948%)" offset="0.636719"/><stop stop-opacity="1" stop-color="rgb(55.625916%, 85.539246%, 48.59314%)" offset="0.640625"/><stop stop-opacity="1" stop-color="rgb(61.929321%, 87.649536%, 50.314331%)" offset="0.644531"/><stop stop-opacity="1" stop-color="rgb(68.234253%, 89.761353%, 52.037048%)" offset="0.648438"/><stop stop-opacity="1" stop-color="rgb(74.539185%, 91.871643%, 53.75824%)" offset="0.652344"/><stop stop-opacity="1" stop-color="rgb(80.844116%, 93.981934%, 55.480957%)" offset="0.65625"/><stop stop-opacity="1" stop-color="rgb(87.147522%, 96.092224%, 57.202148%)" offset="0.660156"/><stop stop-opacity="1" stop-color="rgb(93.452454%, 98.202515%, 58.92334%)" offset="0.664062"/><stop stop-opacity="1" stop-color="rgb(96.134949%, 99.101257%, 59.655762%)" offset="0.667969"/><stop stop-opacity="1" stop-color="rgb(98.81897%, 100%, 60.389709%)" offset="0.671875"/><stop stop-opacity="1" stop-color="rgb(98.81897%, 100%, 60.389709%)" offset="0.6875"/><stop stop-opacity="1" stop-color="rgb(98.81897%, 100%, 60.389709%)" offset="0.75"/><stop stop-opacity="1" stop-color="rgb(98.81897%, 100%, 60.389709%)" offset="1"/></linearGradient><clipPath id="338c52beee"><rect x="0" width="398" y="0" height="260"/></clipPath><clipPath id="b0ec110e7e"><path d="M 0.984375 0 L 397.761719 0 L 397.761719 259.296875 L 0.984375 259.296875 Z M 0.984375 0 " clip-rule="nonzero"/></clipPath><clipPath id="90bdbcd669"><rect x="0" width="398" y="0" height="260"/></clipPath><clipPath id="56e1ab4301"><rect x="0" width="398" y="0" height="260"/></clipPath><mask id="65f4b5be1a"><g filter="url(#2211031c0e)"><g><g clip-path="url(#56e1ab4301)"><g clip-path="url(#b0ec110e7e)"><g><g clip-path="url(#90bdbcd669)"><g fill="#000000" fill-opacity="1"><g transform="translate(178.482403, 98.954715)"><g><path d="M 11.90625 -24.140625 C 11.90625 -25.316406 12.117188 -26.425781 12.546875 -27.46875 C 12.972656 -28.507812 13.570312 -29.414062 14.34375 -30.1875 C 15.113281 -30.957031 16.019531 -31.554688 17.0625 -31.984375 C 18.101562 -32.421875 19.21875 -32.640625 20.40625 -32.640625 C 21.582031 -32.640625 22.691406 -32.421875 23.734375 -31.984375 C 24.773438 -31.554688 25.679688 -30.957031 26.453125 -30.1875 C 27.222656 -29.414062 27.820312 -28.507812 28.25 -27.46875 C 28.6875 -26.425781 28.90625 -25.316406 28.90625 -24.140625 C 28.90625 -22.960938 28.6875 -21.851562 28.25 -20.8125 C 27.820312 -19.769531 27.222656 -18.863281 26.453125 -18.09375 C 25.679688 -17.320312 24.773438 -16.71875 23.734375 -16.28125 C 22.691406 -15.851562 21.582031 -15.640625 20.40625 -15.640625 C 19.21875 -15.640625 18.101562 -15.851562 17.0625 -16.28125 C 16.019531 -16.71875 15.113281 -17.320312 14.34375 -18.09375 C 13.570312 -18.863281 12.972656 -19.769531 12.546875 -20.8125 C 12.117188 -21.851562 11.90625 -22.960938 11.90625 -24.140625 Z M 11.90625 -24.140625 "/></g></g></g></g></g></g></g></g></g></mask><clipPath id="6d81405a2c"><path d="M 41.75 0 L 354.28125 0 L 354.28125 253.859375 L 41.75 253.859375 Z M 41.75 0 " clip-rule="nonzero"/></clipPath><clipPath id="28de9d64fa"><rect x="0" width="398" y="0" height="260"/></clipPath><clipPath id="c4794a2a71"><rect x="0" width="398" y="0" height="260"/></clipPath><clipPath id="f68bc1a448"><rect x="0" width="400" y="0" height="263"/></clipPath><clipPath id="02d9582b71"><rect x="0" width="30" y="0" height="15"/></clipPath><clipPath id="824f4556c0"><path d="M 212 0 L 560.554688 0 L 560.554688 263 L 212 263 Z M 212 0 " clip-rule="nonzero"/></clipPath><clipPath id="5edc3383cd"><path d="M 3.832031 0 L 348.554688 0 L 348.554688 259.296875 L 3.832031 259.296875 Z M 3.832031 0 " clip-rule="nonzero"/></clipPath><clipPath id="9e5d6e8fb6"><path d="M 0.832031 0 L 345.554688 0 L 345.554688 259.296875 L 0.832031 259.296875 Z M 0.832031 0 " clip-rule="nonzero"/></clipPath><clipPath id="8a81a97724"><path d="M 41.59375 0 L 345.554688 0 L 345.554688 253.859375 L 41.59375 253.859375 Z M 41.59375 0 " clip-rule="nonzero"/></clipPath><linearGradient x1="-38.726497" gradientTransform="matrix(2.715299, 0, 0, 2.715893, 135.897325, 28.325099)" y1="79.046496" x2="63.981895" gradientUnits="userSpaceOnUse" y2="-23.661894" id="609a6c68eb"><stop stop-opacity="1" stop-color="rgb(3.138733%, 12.939453%, 13.328552%)" offset="0"/><stop stop-opacity="1" stop-color="rgb(3.138733%, 12.939453%, 13.328552%)" offset="0.455038"/><stop stop-opacity="1" stop-color="rgb(3.138733%, 12.939453%, 13.328552%)" offset="0.5"/><stop stop-opacity="1" stop-color="rgb(3.138733%, 12.939453%, 13.328552%)" offset="0.515625"/><stop stop-opacity="1" stop-color="rgb(3.439331%, 13.468933%, 13.775635%)" offset="0.519531"/><stop stop-opacity="1" stop-color="rgb(3.741455%, 13.998413%, 14.224243%)" offset="0.523438"/><stop stop-opacity="1" stop-color="rgb(4.64325%, 15.585327%, 15.563965%)" offset="0.527344"/><stop stop-opacity="1" stop-color="rgb(5.54657%, 17.172241%, 16.905212%)" offset="0.53125"/><stop stop-opacity="1" stop-color="rgb(6.448364%, 18.759155%, 18.244934%)" offset="0.535156"/><stop stop-opacity="1" stop-color="rgb(7.351685%, 20.346069%, 19.586182%)" offset="0.539062"/><stop stop-opacity="1" stop-color="rgb(8.253479%, 21.931458%, 20.925903%)" offset="0.542969"/><stop stop-opacity="1" stop-color="rgb(9.156799%, 23.518372%, 22.267151%)" offset="0.546875"/><stop stop-opacity="1" stop-color="rgb(10.058594%, 25.105286%, 23.606873%)" offset="0.550781"/><stop stop-opacity="1" stop-color="rgb(10.961914%, 26.6922%, 24.94812%)" offset="0.554688"/><stop stop-opacity="1" stop-color="rgb(11.863708%, 28.279114%, 26.289368%)" offset="0.558594"/><stop stop-opacity="1" stop-color="rgb(12.767029%, 29.866028%, 27.630615%)" offset="0.5625"/><stop stop-opacity="1" stop-color="rgb(13.668823%, 31.452942%, 28.970337%)" offset="0.566406"/><stop stop-opacity="1" stop-color="rgb(14.572144%, 33.039856%, 30.311584%)" offset="0.570312"/><stop stop-opacity="1" stop-color="rgb(15.234375%, 34.861755%, 31.480408%)" offset="0.574219"/><stop stop-opacity="1" stop-color="rgb(15.898132%, 36.683655%, 32.650757%)" offset="0.578125"/><stop stop-opacity="1" stop-color="rgb(15.350342%, 39.692688%, 32.958984%)" offset="0.582031"/><stop stop-opacity="1" stop-color="rgb(14.802551%, 42.701721%, 33.267212%)" offset="0.585938"/><stop stop-opacity="1" stop-color="rgb(14.254761%, 45.710754%, 33.573914%)" offset="0.589844"/><stop stop-opacity="1" stop-color="rgb(13.708496%, 48.719788%, 33.882141%)" offset="0.59375"/><stop stop-opacity="1" stop-color="rgb(13.160706%, 51.727295%, 34.188843%)" offset="0.597656"/><stop stop-opacity="1" stop-color="rgb(12.612915%, 54.736328%, 34.49707%)" offset="0.601562"/><stop stop-opacity="1" stop-color="rgb(12.065125%, 57.745361%, 34.805298%)" offset="0.605469"/><stop stop-opacity="1" stop-color="rgb(11.517334%, 60.754395%, 35.113525%)" offset="0.609375"/><stop stop-opacity="1" stop-color="rgb(10.969543%, 63.763428%, 35.420227%)" offset="0.613281"/><stop stop-opacity="1" stop-color="rgb(10.423279%, 66.772461%, 35.728455%)" offset="0.617188"/><stop stop-opacity="1" stop-color="rgb(12.783813%, 69.380188%, 36.633301%)" offset="0.621094"/><stop stop-opacity="1" stop-color="rgb(15.145874%, 71.989441%, 37.539673%)" offset="0.625"/><stop stop-opacity="1" stop-color="rgb(21.354675%, 74.067688%, 39.234924%)" offset="0.628906"/><stop stop-opacity="1" stop-color="rgb(27.563477%, 76.145935%, 40.930176%)" offset="0.632812"/><stop stop-opacity="1" stop-color="rgb(33.772278%, 78.224182%, 42.625427%)" offset="0.636719"/><stop stop-opacity="1" stop-color="rgb(39.982605%, 80.302429%, 44.322205%)" offset="0.640625"/><stop stop-opacity="1" stop-color="rgb(46.191406%, 82.380676%, 46.017456%)" offset="0.644531"/><stop stop-opacity="1" stop-color="rgb(52.400208%, 84.460449%, 47.712708%)" offset="0.648438"/><stop stop-opacity="1" stop-color="rgb(58.609009%, 86.538696%, 49.407959%)" offset="0.652344"/><stop stop-opacity="1" stop-color="rgb(64.819336%, 88.616943%, 51.104736%)" offset="0.65625"/><stop stop-opacity="1" stop-color="rgb(71.028137%, 90.69519%, 52.799988%)" offset="0.660156"/><stop stop-opacity="1" stop-color="rgb(77.236938%, 92.774963%, 54.495239%)" offset="0.664062"/><stop stop-opacity="1" stop-color="rgb(83.44574%, 94.85321%, 56.190491%)" offset="0.667969"/><stop stop-opacity="1" stop-color="rgb(89.656067%, 96.931458%, 57.887268%)" offset="0.671875"/><stop stop-opacity="1" stop-color="rgb(94.236755%, 98.464966%, 59.138489%)" offset="0.675781"/><stop stop-opacity="1" stop-color="rgb(98.81897%, 100%, 60.389709%)" offset="0.679688"/><stop stop-opacity="1" stop-color="rgb(98.81897%, 100%, 60.389709%)" offset="0.6875"/><stop stop-opacity="1" stop-color="rgb(98.81897%, 100%, 60.389709%)" offset="0.75"/><stop stop-opacity="1" stop-color="rgb(98.81897%, 100%, 60.389709%)" offset="1"/></linearGradient><clipPath id="23fe1ffc9d"><rect x="0" width="346" y="0" height="260"/></clipPath><clipPath id="cbc913e45c"><path d="M 0.832031 0 L 345.554688 0 L 345.554688 259.296875 L 0.832031 259.296875 Z M 0.832031 0 " clip-rule="nonzero"/></clipPath><clipPath id="fbfdd33df3"><rect x="0" width="346" y="0" height="260"/></clipPath><clipPath id="3e4896c6d9"><rect x="0" width="346" y="0" height="260"/></clipPath><mask id="e97231aad9"><g filter="url(#2211031c0e)"><g transform="matrix(1, 0, 0, 1, -0.000000000000028422, 0)"><g clip-path="url(#3e4896c6d9)"><g clip-path="url(#cbc913e45c)"><g transform="matrix(1, 0, 0, 1, -0.000000000000028422, 0)"><g clip-path="url(#fbfdd33df3)"><g fill="#000000" fill-opacity="1"><g transform="translate(178.327302, 98.954715)"><g><path d="M 11.90625 -24.140625 C 11.90625 -25.316406 12.117188 -26.425781 12.546875 -27.46875 C 12.972656 -28.507812 13.570312 -29.414062 14.34375 -30.1875 C 15.113281 -30.957031 16.019531 -31.554688 17.0625 -31.984375 C 18.101562 -32.421875 19.21875 -32.640625 20.40625 -32.640625 C 21.582031 -32.640625 22.691406 -32.421875 23.734375 -31.984375 C 24.773438 -31.554688 25.679688 -30.957031 26.453125 -30.1875 C 27.222656 -29.414062 27.820312 -28.507812 28.25 -27.46875 C 28.6875 -26.425781 28.90625 -25.316406 28.90625 -24.140625 C 28.90625 -22.960938 28.6875 -21.851562 28.25 -20.8125 C 27.820312 -19.769531 27.222656 -18.863281 26.453125 -18.09375 C 25.679688 -17.320312 24.773438 -16.71875 23.734375 -16.28125 C 22.691406 -15.851562 21.582031 -15.640625 20.40625 -15.640625 C 19.21875 -15.640625 18.101562 -15.851562 17.0625 -16.28125 C 16.019531 -16.71875 15.113281 -17.320312 14.34375 -18.09375 C 13.570312 -18.863281 12.972656 -19.769531 12.546875 -20.8125 C 12.117188 -21.851562 11.90625 -22.960938 11.90625 -24.140625 Z M 11.90625 -24.140625 "/></g></g></g></g></g></g></g></g></g></mask><clipPath id="bdf2dfc909"><path d="M 41.59375 0 L 345.554688 0 L 345.554688 253.859375 L 41.59375 253.859375 Z M 41.59375 0 " clip-rule="nonzero"/></clipPath><clipPath id="b9aff0bf85"><rect x="0" width="346" y="0" height="260"/></clipPath><clipPath id="71d2b007f2"><rect x="0" width="346" y="0" height="260"/></clipPath><clipPath id="351e7837bf"><rect x="0" width="349" y="0" height="263"/></clipPath><clipPath id="d4391c35b9"><rect x="0" width="31" y="0" height="15"/></clipPath><clipPath id="548528530a"><rect x="0" width="36" y="0" height="37"/></clipPath><clipPath id="8dd098887a"><path d="M 0.667969 0 L 397.304688 0 L 397.304688 316 L 0.667969 316 Z M 0.667969 0 " clip-rule="nonzero"/></clipPath><clipPath id="e561b0525e"><path d="M 0.667969 0 L 397.304688 0 L 397.304688 316 L 0.667969 316 Z M 0.667969 0 " clip-rule="nonzero"/></clipPath><clipPath id="9fc5f4385c"><path d="M 42.078125 0 L 354.972656 0 L 354.972656 316 L 42.078125 316 Z M 42.078125 0 " clip-rule="nonzero"/></clipPath><linearGradient x1="-102.801878" gradientTransform="matrix(0.920579, 0, 0, 0.921322, 136.466793, 111.939174)" y1="221.215882" x2="238.635196" gradientUnits="userSpaceOnUse" y2="-120.221197" id="f3a9f7014b"><stop stop-opacity="1" stop-color="rgb(0%, 4.309082%, 12.939453%)" offset="0"/><stop stop-opacity="1" stop-color="rgb(0%, 4.309082%, 12.939453%)" offset="0.25"/><stop stop-opacity="1" stop-color="rgb(0%, 4.309082%, 12.939453%)" offset="0.375"/><stop stop-opacity="1" stop-color="rgb(0%, 4.309082%, 12.939453%)" offset="0.40625"/><stop stop-opacity="1" stop-color="rgb(0%, 4.309082%, 12.939453%)" offset="0.421875"/><stop stop-opacity="1" stop-color="rgb(0%, 4.310608%, 12.942505%)" offset="0.429688"/><stop stop-opacity="1" stop-color="rgb(0%, 5.932617%, 15.966797%)" offset="0.433594"/><stop stop-opacity="1" stop-color="rgb(0%, 7.553101%, 18.988037%)" offset="0.4375"/><stop stop-opacity="1" stop-color="rgb(0%, 9.173584%, 22.009277%)" offset="0.441406"/><stop stop-opacity="1" stop-color="rgb(0%, 10.794067%, 25.032043%)" offset="0.445312"/><stop stop-opacity="1" stop-color="rgb(0%, 12.414551%, 28.053284%)" offset="0.449219"/><stop stop-opacity="1" stop-color="rgb(0%, 14.035034%, 31.074524%)" offset="0.453125"/><stop stop-opacity="1" stop-color="rgb(0%, 15.655518%, 34.095764%)" offset="0.457031"/><stop stop-opacity="1" stop-color="rgb(0%, 17.276001%, 37.11853%)" offset="0.460937"/><stop stop-opacity="1" stop-color="rgb(0%, 18.896484%, 40.139771%)" offset="0.464844"/><stop stop-opacity="1" stop-color="rgb(0%, 20.516968%, 43.161011%)" offset="0.46875"/><stop stop-opacity="1" stop-color="rgb(0%, 22.137451%, 46.182251%)" offset="0.472656"/><stop stop-opacity="1" stop-color="rgb(0%, 23.757935%, 49.205017%)" offset="0.476562"/><stop stop-opacity="1" stop-color="rgb(2.088928%, 26.956177%, 51.493835%)" offset="0.480469"/><stop stop-opacity="1" stop-color="rgb(4.179382%, 30.154419%, 53.78418%)" offset="0.484375"/><stop stop-opacity="1" stop-color="rgb(7.138062%, 34.008789%, 55.769348%)" offset="0.488281"/><stop stop-opacity="1" stop-color="rgb(10.096741%, 37.863159%, 57.756042%)" offset="0.492187"/><stop stop-opacity="1" stop-color="rgb(13.05542%, 41.717529%, 59.741211%)" offset="0.496094"/><stop stop-opacity="1" stop-color="rgb(16.014099%, 45.571899%, 61.727905%)" offset="0.5"/><stop stop-opacity="1" stop-color="rgb(18.972778%, 49.42627%, 63.713074%)" offset="0.503906"/><stop stop-opacity="1" stop-color="rgb(21.931458%, 53.28064%, 65.699768%)" offset="0.507812"/><stop stop-opacity="1" stop-color="rgb(24.890137%, 57.13501%, 67.684937%)" offset="0.511719"/><stop stop-opacity="1" stop-color="rgb(27.850342%, 60.98938%, 69.670105%)" offset="0.515625"/><stop stop-opacity="1" stop-color="rgb(32.563782%, 63.261414%, 69.195557%)" offset="0.519531"/><stop stop-opacity="1" stop-color="rgb(37.277222%, 65.533447%, 68.722534%)" offset="0.523437"/><stop stop-opacity="1" stop-color="rgb(42.852783%, 67.028809%, 67.03949%)" offset="0.527344"/><stop stop-opacity="1" stop-color="rgb(48.429871%, 68.52417%, 65.357971%)" offset="0.53125"/><stop stop-opacity="1" stop-color="rgb(54.005432%, 70.018005%, 63.674927%)" offset="0.535156"/><stop stop-opacity="1" stop-color="rgb(59.58252%, 71.513367%, 61.993408%)" offset="0.539062"/><stop stop-opacity="1" stop-color="rgb(65.158081%, 73.008728%, 60.310364%)" offset="0.542969"/><stop stop-opacity="1" stop-color="rgb(70.733643%, 74.504089%, 58.628845%)" offset="0.546875"/><stop stop-opacity="1" stop-color="rgb(76.309204%, 75.997925%, 56.945801%)" offset="0.550781"/><stop stop-opacity="1" stop-color="rgb(81.886292%, 77.493286%, 55.264282%)" offset="0.554688"/><stop stop-opacity="1" stop-color="rgb(87.461853%, 78.987122%, 53.581238%)" offset="0.558594"/><stop stop-opacity="1" stop-color="rgb(93.03894%, 80.482483%, 51.899719%)" offset="0.5625"/><stop stop-opacity="1" stop-color="rgb(96.51947%, 81.414795%, 50.848389%)" offset="0.566406"/><stop stop-opacity="1" stop-color="rgb(100%, 82.348633%, 49.798584%)" offset="0.570312"/><stop stop-opacity="1" stop-color="rgb(100%, 82.348633%, 49.798584%)" offset="0.578125"/><stop stop-opacity="1" stop-color="rgb(100%, 82.348633%, 49.798584%)" offset="0.59375"/><stop stop-opacity="1" stop-color="rgb(100%, 82.348633%, 49.798584%)" offset="0.625"/><stop stop-opacity="1" stop-color="rgb(100%, 82.348633%, 49.798584%)" offset="0.75"/><stop stop-opacity="1" stop-color="rgb(100%, 82.348633%, 49.798584%)" offset="1"/></linearGradient><clipPath id="7f58b6ec7e"><rect x="0" width="398" y="0" height="316"/></clipPath><clipPath id="5afca585c0"><path d="M 0.667969 0 L 397.304688 0 L 397.304688 316 L 0.667969 316 Z M 0.667969 0 " clip-rule="nonzero"/></clipPath><clipPath id="8a02115f09"><rect x="0" width="398" y="0" height="316"/></clipPath><clipPath id="0351752eec"><rect x="0" width="398" y="0" height="316"/></clipPath><mask id="853935b6e0"><g filter="url(#2211031c0e)"><g><g clip-path="url(#0351752eec)"><g clip-path="url(#5afca585c0)"><g><g clip-path="url(#8a02115f09)"><g fill="#000000" fill-opacity="1"><g transform="translate(178.510708, 183.774053)"><g><path d="M 11.890625 -24.140625 C 11.890625 -25.316406 12.101562 -26.425781 12.53125 -27.46875 C 12.96875 -28.507812 13.570312 -29.414062 14.34375 -30.1875 C 15.113281 -30.957031 16.019531 -31.554688 17.0625 -31.984375 C 18.101562 -32.410156 19.210938 -32.625 20.390625 -32.625 C 21.566406 -32.625 22.675781 -32.410156 23.71875 -31.984375 C 24.769531 -31.554688 25.679688 -30.957031 26.453125 -30.1875 C 27.222656 -29.414062 27.820312 -28.507812 28.25 -27.46875 C 28.675781 -26.425781 28.890625 -25.316406 28.890625 -24.140625 C 28.890625 -22.953125 28.675781 -21.835938 28.25 -20.796875 C 27.820312 -19.753906 27.222656 -18.847656 26.453125 -18.078125 C 25.679688 -17.304688 24.769531 -16.707031 23.71875 -16.28125 C 22.675781 -15.851562 21.566406 -15.640625 20.390625 -15.640625 C 19.210938 -15.640625 18.101562 -15.851562 17.0625 -16.28125 C 16.019531 -16.707031 15.113281 -17.304688 14.34375 -18.078125 C 13.570312 -18.847656 12.96875 -19.753906 12.53125 -20.796875 C 12.101562 -21.835938 11.890625 -22.953125 11.890625 -24.140625 Z M 11.890625 -24.140625 "/></g></g></g></g></g></g></g></g></g></mask><clipPath id="792ed06bb2"><path d="M 42.078125 0 L 354.972656 0 L 354.972656 316 L 42.078125 316 Z M 42.078125 0 " clip-rule="nonzero"/></clipPath><clipPath id="91548cee48"><rect x="0" width="398" y="0" height="316"/></clipPath><clipPath id="34cc50fe05"><rect x="0" width="398" y="0" height="316"/></clipPath><clipPath id="caa458cd73"><rect x="0" width="398" y="0" height="316"/></clipPath><clipPath id="5d47df65d3"><rect x="0" width="30" y="0" height="15"/></clipPath><clipPath id="514c405934"><path d="M 212 0 L 560.554688 0 L 560.554688 316 L 212 316 Z M 212 0 " clip-rule="nonzero"/></clipPath><clipPath id="6458decf26"><path d="M 3.832031 0 L 348.554688 0 L 348.554688 316 L 3.832031 316 Z M 3.832031 0 " clip-rule="nonzero"/></clipPath><clipPath id="dec57f8fc4"><path d="M 0.832031 0 L 345.554688 0 L 345.554688 316 L 0.832031 316 Z M 0.832031 0 " clip-rule="nonzero"/></clipPath><clipPath id="afc31096fa"><path d="M 41.59375 0 L 345.554688 0 L 345.554688 316 L 41.59375 316 Z M 41.59375 0 " clip-rule="nonzero"/></clipPath><linearGradient x1="-35.075884" gradientTransform="matrix(2.715299, 0, 0, 2.715893, 135.897325, 110.294176)" y1="75.395883" x2="79.072525" gradientUnits="userSpaceOnUse" y2="-38.752522" id="dbd43c6085"><stop stop-opacity="1" stop-color="rgb(3.138733%, 12.939453%, 13.328552%)" offset="0"/><stop stop-opacity="1" stop-color="rgb(3.138733%, 12.939453%, 13.328552%)" offset="0.25"/><stop stop-opacity="1" stop-color="rgb(3.138733%, 12.939453%, 13.328552%)" offset="0.375"/><stop stop-opacity="1" stop-color="rgb(3.24707%, 13.130188%, 13.490295%)" offset="0.4375"/><stop stop-opacity="1" stop-color="rgb(4.359436%, 15.084839%, 15.142822%)" offset="0.441406"/><stop stop-opacity="1" stop-color="rgb(5.363464%, 16.848755%, 16.63208%)" offset="0.445313"/><stop stop-opacity="1" stop-color="rgb(6.365967%, 18.612671%, 18.121338%)" offset="0.449219"/><stop stop-opacity="1" stop-color="rgb(7.369995%, 20.376587%, 19.612122%)" offset="0.453125"/><stop stop-opacity="1" stop-color="rgb(8.372498%, 22.140503%, 21.101379%)" offset="0.457031"/><stop stop-opacity="1" stop-color="rgb(9.375%, 23.904419%, 22.592163%)" offset="0.460938"/><stop stop-opacity="1" stop-color="rgb(10.377502%, 25.666809%, 24.081421%)" offset="0.464844"/><stop stop-opacity="1" stop-color="rgb(11.381531%, 27.430725%, 25.572205%)" offset="0.46875"/><stop stop-opacity="1" stop-color="rgb(12.384033%, 29.194641%, 27.061462%)" offset="0.472656"/><stop stop-opacity="1" stop-color="rgb(13.388062%, 30.958557%, 28.552246%)" offset="0.476562"/><stop stop-opacity="1" stop-color="rgb(14.390564%, 32.720947%, 30.041504%)" offset="0.480469"/><stop stop-opacity="1" stop-color="rgb(15.394592%, 34.484863%, 31.532288%)" offset="0.484375"/><stop stop-opacity="1" stop-color="rgb(15.335083%, 37.289429%, 32.266235%)" offset="0.488281"/><stop stop-opacity="1" stop-color="rgb(15.2771%, 40.093994%, 33.000183%)" offset="0.492188"/><stop stop-opacity="1" stop-color="rgb(14.668274%, 43.437195%, 33.34198%)" offset="0.496094"/><stop stop-opacity="1" stop-color="rgb(14.060974%, 46.781921%, 33.683777%)" offset="0.5"/><stop stop-opacity="1" stop-color="rgb(13.452148%, 50.125122%, 34.025574%)" offset="0.503906"/><stop stop-opacity="1" stop-color="rgb(12.843323%, 53.469849%, 34.367371%)" offset="0.507812"/><stop stop-opacity="1" stop-color="rgb(12.234497%, 56.813049%, 34.709167%)" offset="0.511719"/><stop stop-opacity="1" stop-color="rgb(11.627197%, 60.157776%, 35.05249%)" offset="0.515625"/><stop stop-opacity="1" stop-color="rgb(11.018372%, 63.500977%, 35.394287%)" offset="0.519531"/><stop stop-opacity="1" stop-color="rgb(10.409546%, 66.845703%, 35.736084%)" offset="0.523438"/><stop stop-opacity="1" stop-color="rgb(13.545227%, 69.674683%, 36.846924%)" offset="0.527344"/><stop stop-opacity="1" stop-color="rgb(16.680908%, 72.503662%, 37.957764%)" offset="0.53125"/><stop stop-opacity="1" stop-color="rgb(23.580933%, 74.812317%, 39.842224%)" offset="0.535156"/><stop stop-opacity="1" stop-color="rgb(30.482483%, 77.122498%, 41.72821%)" offset="0.539063"/><stop stop-opacity="1" stop-color="rgb(37.382507%, 79.432678%, 43.612671%)" offset="0.542969"/><stop stop-opacity="1" stop-color="rgb(44.284058%, 81.742859%, 45.497131%)" offset="0.546875"/><stop stop-opacity="1" stop-color="rgb(51.184082%, 84.05304%, 47.381592%)" offset="0.550781"/><stop stop-opacity="1" stop-color="rgb(58.085632%, 86.36322%, 49.266052%)" offset="0.554688"/><stop stop-opacity="1" stop-color="rgb(64.985657%, 88.673401%, 51.150513%)" offset="0.558594"/><stop stop-opacity="1" stop-color="rgb(71.887207%, 90.983582%, 53.034973%)" offset="0.5625"/><stop stop-opacity="1" stop-color="rgb(78.787231%, 93.293762%, 54.919434%)" offset="0.566406"/><stop stop-opacity="1" stop-color="rgb(85.688782%, 95.603943%, 56.803894%)" offset="0.570312"/><stop stop-opacity="1" stop-color="rgb(92.253113%, 97.801208%, 58.596802%)" offset="0.574219"/><stop stop-opacity="1" stop-color="rgb(98.81897%, 100%, 60.389709%)" offset="0.578125"/><stop stop-opacity="1" stop-color="rgb(98.81897%, 100%, 60.389709%)" offset="0.59375"/><stop stop-opacity="1" stop-color="rgb(98.81897%, 100%, 60.389709%)" offset="0.625"/><stop stop-opacity="1" stop-color="rgb(98.81897%, 100%, 60.389709%)" offset="0.75"/><stop stop-opacity="1" stop-color="rgb(98.81897%, 100%, 60.389709%)" offset="1"/></linearGradient><clipPath id="32ee57beda"><rect x="0" width="346" y="0" height="316"/></clipPath><clipPath id="c1c63e68ca"><path d="M 0.832031 0 L 345.554688 0 L 345.554688 316 L 0.832031 316 Z M 0.832031 0 " clip-rule="nonzero"/></clipPath><clipPath id="72e2a99662"><rect x="0" width="346" y="0" height="316"/></clipPath><clipPath id="36bc8d9bfc"><rect x="0" width="346" y="0" height="316"/></clipPath><mask id="ab7c486319"><g filter="url(#2211031c0e)"><g transform="matrix(1, 0, 0, 1, -0.000000000000028422, 0)"><g clip-path="url(#36bc8d9bfc)"><g clip-path="url(#c1c63e68ca)"><g transform="matrix(1, 0, 0, 1, -0.000000000000028422, 0)"><g clip-path="url(#72e2a99662)"><g fill="#000000" fill-opacity="1"><g transform="translate(178.327302, 180.923786)"><g><path d="M 11.90625 -24.140625 C 11.90625 -25.316406 12.117188 -26.425781 12.546875 -27.46875 C 12.972656 -28.507812 13.570312 -29.414062 14.34375 -30.1875 C 15.113281 -30.957031 16.019531 -31.554688 17.0625 -31.984375 C 18.101562 -32.421875 19.21875 -32.640625 20.40625 -32.640625 C 21.582031 -32.640625 22.691406 -32.421875 23.734375 -31.984375 C 24.773438 -31.554688 25.679688 -30.957031 26.453125 -30.1875 C 27.222656 -29.414062 27.820312 -28.507812 28.25 -27.46875 C 28.6875 -26.425781 28.90625 -25.316406 28.90625 -24.140625 C 28.90625 -22.960938 28.6875 -21.851562 28.25 -20.8125 C 27.820312 -19.769531 27.222656 -18.863281 26.453125 -18.09375 C 25.679688 -17.320312 24.773438 -16.71875 23.734375 -16.28125 C 22.691406 -15.851562 21.582031 -15.640625 20.40625 -15.640625 C 19.21875 -15.640625 18.101562 -15.851562 17.0625 -16.28125 C 16.019531 -16.71875 15.113281 -17.320312 14.34375 -18.09375 C 13.570312 -18.863281 12.972656 -19.769531 12.546875 -20.8125 C 12.117188 -21.851562 11.90625 -22.960938 11.90625 -24.140625 Z M 11.90625 -24.140625 "/></g></g></g></g></g></g></g></g></g></mask><clipPath id="74959948e4"><path d="M 41.59375 0 L 345.554688 0 L 345.554688 316 L 41.59375 316 Z M 41.59375 0 " clip-rule="nonzero"/></clipPath><clipPath id="550e3e8627"><rect x="0" width="346" y="0" height="316"/></clipPath><clipPath id="736466df4e"><rect x="0" width="346" y="0" height="316"/></clipPath><clipPath id="e5315eb17c"><rect x="0" width="349" y="0" height="316"/></clipPath><clipPath id="5c9612fdf7"><rect x="0" width="31" y="0" height="15"/></clipPath><clipPath id="9fb1738e42"><rect x="0" width="36" y="0" height="36"/></clipPath><clipPath id="45d8b53c0b"><path d="M 1.097656 0.730469 L 397.738281 0.730469 L 397.738281 259 L 1.097656 259 Z M 1.097656 0.730469 " clip-rule="nonzero"/></clipPath><clipPath id="ea383a0b9d"><path d="M 0.0976562 0.730469 L 396.738281 0.730469 L 396.738281 259 L 0.0976562 259 Z M 0.0976562 0.730469 " clip-rule="nonzero"/></clipPath><clipPath id="a74d81175d"><path d="M 41.511719 6.25 L 354.402344 6.25 L 354.402344 259 L 41.511719 259 Z M 41.511719 6.25 " clip-rule="nonzero"/></clipPath><linearGradient x1="-58.334591" gradientTransform="matrix(0.920579, 0, 0, 0.921322, 135.896861, 136.876571)" y1="176.748595" x2="248.775994" gradientUnits="userSpaceOnUse" y2="-130.361996" id="2e7995dfe5"><stop stop-opacity="1" stop-color="rgb(0%, 4.309082%, 12.939453%)" offset="0"/><stop stop-opacity="1" stop-color="rgb(0%, 4.309082%, 12.939453%)" offset="0.25"/><stop stop-opacity="1" stop-color="rgb(0%, 4.309082%, 12.939453%)" offset="0.3125"/><stop stop-opacity="1" stop-color="rgb(0%, 4.309082%, 12.939453%)" offset="0.328125"/><stop stop-opacity="1" stop-color="rgb(0%, 4.873657%, 13.990784%)" offset="0.332031"/><stop stop-opacity="1" stop-color="rgb(0%, 5.438232%, 15.04364%)" offset="0.335938"/><stop stop-opacity="1" stop-color="rgb(0%, 6.895447%, 17.76123%)" offset="0.339844"/><stop stop-opacity="1" stop-color="rgb(0%, 8.352661%, 20.478821%)" offset="0.34375"/><stop stop-opacity="1" stop-color="rgb(0%, 9.809875%, 23.196411%)" offset="0.347656"/><stop stop-opacity="1" stop-color="rgb(0%, 11.26709%, 25.914001%)" offset="0.351563"/><stop stop-opacity="1" stop-color="rgb(0%, 12.724304%, 28.631592%)" offset="0.355469"/><stop stop-opacity="1" stop-color="rgb(0%, 14.183044%, 31.350708%)" offset="0.359375"/><stop stop-opacity="1" stop-color="rgb(0%, 15.640259%, 34.068298%)" offset="0.363281"/><stop stop-opacity="1" stop-color="rgb(0%, 17.097473%, 36.785889%)" offset="0.367188"/><stop stop-opacity="1" stop-color="rgb(0%, 18.554688%, 39.503479%)" offset="0.371094"/><stop stop-opacity="1" stop-color="rgb(0%, 20.011902%, 42.221069%)" offset="0.375"/><stop stop-opacity="1" stop-color="rgb(0%, 21.469116%, 44.93866%)" offset="0.378906"/><stop stop-opacity="1" stop-color="rgb(0%, 22.927856%, 47.657776%)" offset="0.382813"/><stop stop-opacity="1" stop-color="rgb(1.034546%, 25.166321%, 50.012207%)" offset="0.386719"/><stop stop-opacity="1" stop-color="rgb(2.069092%, 27.404785%, 52.368164%)" offset="0.390625"/><stop stop-opacity="1" stop-color="rgb(4.730225%, 30.871582%, 54.153442%)" offset="0.394531"/><stop stop-opacity="1" stop-color="rgb(7.391357%, 34.338379%, 55.940247%)" offset="0.398438"/><stop stop-opacity="1" stop-color="rgb(10.05249%, 37.805176%, 57.725525%)" offset="0.402344"/><stop stop-opacity="1" stop-color="rgb(12.713623%, 41.273499%, 59.512329%)" offset="0.40625"/><stop stop-opacity="1" stop-color="rgb(15.374756%, 44.740295%, 61.297607%)" offset="0.410156"/><stop stop-opacity="1" stop-color="rgb(18.037415%, 48.207092%, 63.084412%)" offset="0.414063"/><stop stop-opacity="1" stop-color="rgb(20.698547%, 51.673889%, 64.871216%)" offset="0.417969"/><stop stop-opacity="1" stop-color="rgb(23.35968%, 55.140686%, 66.65802%)" offset="0.421875"/><stop stop-opacity="1" stop-color="rgb(26.020813%, 58.607483%, 68.443298%)" offset="0.425781"/><stop stop-opacity="1" stop-color="rgb(28.681946%, 62.07428%, 70.230103%)" offset="0.429688"/><stop stop-opacity="1" stop-color="rgb(33.203125%, 63.864136%, 69.40918%)" offset="0.433594"/><stop stop-opacity="1" stop-color="rgb(37.72583%, 65.653992%, 68.588257%)" offset="0.4375"/><stop stop-opacity="1" stop-color="rgb(42.741394%, 66.998291%, 67.074585%)" offset="0.441406"/><stop stop-opacity="1" stop-color="rgb(47.756958%, 68.344116%, 65.560913%)" offset="0.445313"/><stop stop-opacity="1" stop-color="rgb(52.772522%, 69.688416%, 64.047241%)" offset="0.449219"/><stop stop-opacity="1" stop-color="rgb(57.788086%, 71.032715%, 62.535095%)" offset="0.453125"/><stop stop-opacity="1" stop-color="rgb(62.80365%, 72.377014%, 61.021423%)" offset="0.457031"/><stop stop-opacity="1" stop-color="rgb(67.819214%, 73.721313%, 59.507751%)" offset="0.460938"/><stop stop-opacity="1" stop-color="rgb(72.834778%, 75.065613%, 57.99408%)" offset="0.464844"/><stop stop-opacity="1" stop-color="rgb(77.850342%, 76.411438%, 56.481934%)" offset="0.46875"/><stop stop-opacity="1" stop-color="rgb(82.865906%, 77.755737%, 54.968262%)" offset="0.472656"/><stop stop-opacity="1" stop-color="rgb(87.88147%, 79.100037%, 53.456116%)" offset="0.476563"/><stop stop-opacity="1" stop-color="rgb(92.895508%, 80.444336%, 51.942444%)" offset="0.480469"/><stop stop-opacity="1" stop-color="rgb(97.911072%, 81.790161%, 50.428772%)" offset="0.484375"/><stop stop-opacity="1" stop-color="rgb(98.954773%, 82.069397%, 50.112915%)" offset="0.488281"/><stop stop-opacity="1" stop-color="rgb(100%, 82.348633%, 49.798584%)" offset="0.492188"/><stop stop-opacity="1" stop-color="rgb(100%, 82.348633%, 49.798584%)" offset="0.5"/><stop stop-opacity="1" stop-color="rgb(100%, 82.348633%, 49.798584%)" offset="0.553364"/><stop stop-opacity="1" stop-color="rgb(100%, 82.348633%, 49.798584%)" offset="1"/></linearGradient><clipPath id="7bc9714e00"><rect x="0" width="397" y="0" height="259"/></clipPath><clipPath id="8c1c522cee"><path d="M 0.0976562 0.730469 L 396.738281 0.730469 L 396.738281 259 L 0.0976562 259 Z M 0.0976562 0.730469 " clip-rule="nonzero"/></clipPath><clipPath id="285518fffe"><rect x="0" width="397" y="0" height="259"/></clipPath><clipPath id="2130f149ee"><rect x="0" width="397" y="0" height="259"/></clipPath><mask id="9801ddf04d"><g filter="url(#2211031c0e)"><g><g clip-path="url(#2130f149ee)"><g clip-path="url(#8c1c522cee)"><g><g clip-path="url(#285518fffe)"><g fill="#000000" fill-opacity="1"><g transform="translate(177.940777, 208.711449)"><g><path d="M 11.890625 -24.140625 C 11.890625 -25.316406 12.101562 -26.425781 12.53125 -27.46875 C 12.96875 -28.507812 13.570312 -29.414062 14.34375 -30.1875 C 15.113281 -30.957031 16.019531 -31.554688 17.0625 -31.984375 C 18.101562 -32.410156 19.210938 -32.625 20.390625 -32.625 C 21.566406 -32.625 22.675781 -32.410156 23.71875 -31.984375 C 24.769531 -31.554688 25.679688 -30.957031 26.453125 -30.1875 C 27.222656 -29.414062 27.820312 -28.507812 28.25 -27.46875 C 28.675781 -26.425781 28.890625 -25.316406 28.890625 -24.140625 C 28.890625 -22.953125 28.675781 -21.835938 28.25 -20.796875 C 27.820312 -19.753906 27.222656 -18.847656 26.453125 -18.078125 C 25.679688 -17.304688 24.769531 -16.707031 23.71875 -16.28125 C 22.675781 -15.851562 21.566406 -15.640625 20.390625 -15.640625 C 19.210938 -15.640625 18.101562 -15.851562 17.0625 -16.28125 C 16.019531 -16.707031 15.113281 -17.304688 14.34375 -18.078125 C 13.570312 -18.847656 12.96875 -19.753906 12.53125 -20.796875 C 12.101562 -21.835938 11.890625 -22.953125 11.890625 -24.140625 Z M 11.890625 -24.140625 "/></g></g></g></g></g></g></g></g></g></mask><clipPath id="a9d03c01d7"><path d="M 41.511719 6.25 L 354.402344 6.25 L 354.402344 259 L 41.511719 259 Z M 41.511719 6.25 " clip-rule="nonzero"/></clipPath><clipPath id="9e1b6b8aa4"><rect x="0" width="397" y="0" height="259"/></clipPath><clipPath id="e87f006bff"><rect x="0" width="397" y="0" height="259"/></clipPath><clipPath id="42af3c0d7b"><rect x="0" width="398" y="0" height="259"/></clipPath><clipPath id="4b3efc2c71"><rect x="0" width="30" y="0" height="15"/></clipPath><mask id="00889c5f3e"><g filter="url(#2211031c0e)"><rect x="-56.1" width="673.2" fill="#000000" y="-31.649999" height="379.799989" fill-opacity="0.6"/></g></mask><clipPath id="4644f3107c"><path d="M 0.0976562 0.507812 L 22.625 0.507812 L 22.625 13.207031 L 0.0976562 13.207031 Z M 0.0976562 0.507812 " clip-rule="nonzero"/></clipPath><clipPath id="56c0a31e51"><rect x="0" width="23" y="0" height="14"/></clipPath><clipPath id="def21e9df1"><rect x="0" width="23" y="0" height="14"/></clipPath><mask id="a59c4ecb04"><g filter="url(#2211031c0e)"><rect x="-56.1" width="673.2" fill="#000000" y="-31.649999" height="379.799989" fill-opacity="0.6"/></g></mask><clipPath id="053d0f90b6"><path d="M 0.0976562 0.09375 L 22.625 0.09375 L 22.625 12.792969 L 0.0976562 12.792969 Z M 0.0976562 0.09375 " clip-rule="nonzero"/></clipPath><clipPath id="339e71ae17"><rect x="0" width="23" y="0" height="13"/></clipPath><clipPath id="4b7d04880f"><rect x="0" width="23" y="0" height="13"/></clipPath></defs><g clip-path="url(#d462888af9)"><g clip-path="url(#b6d3c4d683)"><g transform="matrix(1, 0, 0, 1, 0.000000000000000056, 0)"><g clip-path="url(#af18b0f187)"><g clip-path="url(#b3b537737d)"><g clip-path="url(#08aeb73b03)"><path fill="url(#4b353763e1)" d="M 0.441406 0 L 0.441406 316 L 560.558594 316 L 560.558594 0 Z M 0.441406 0 " fill-rule="nonzero"/></g></g></g></g></g></g><g fill="#ffffff" fill-opacity="1"><g transform="translate(58.443251, 87.729332)"><g><path d="M 1.4375 -15.859375 L 4.1875 -15.859375 L 8.046875 -4.640625 C 8.203125 -4.203125 8.316406 -3.8125 8.390625 -3.46875 C 8.472656 -3.132812 8.53125 -2.851562 8.5625 -2.625 C 8.601562 -2.332031 8.625 -2.082031 8.625 -1.875 L 8.890625 -1.875 C 8.867188 -2.082031 8.875 -2.332031 8.90625 -2.625 C 8.945312 -2.851562 8.992188 -3.132812 9.046875 -3.46875 C 9.109375 -3.8125 9.21875 -4.203125 9.375 -4.640625 L 13.03125 -15.859375 L 15.859375 -15.859375 L 10.1875 0 L 7.234375 0 Z M 1.4375 -15.859375 "/></g></g></g><g fill="#ffffff" fill-opacity="1"><g transform="translate(75.74792, 87.729332)"><g><path d="M 7.203125 -11.6875 C 7.203125 -12.164062 7.332031 -12.546875 7.59375 -12.828125 C 7.851562 -13.117188 8.207031 -13.265625 8.65625 -13.265625 C 9.09375 -13.265625 9.441406 -13.117188 9.703125 -12.828125 C 9.960938 -12.546875 10.09375 -12.164062 10.09375 -11.6875 L 10.09375 -8.796875 C 10.09375 -8.316406 9.960938 -7.929688 9.703125 -7.640625 C 9.441406 -7.347656 9.09375 -7.203125 8.65625 -7.203125 C 8.207031 -7.203125 7.851562 -7.347656 7.59375 -7.640625 C 7.332031 -7.929688 7.203125 -8.316406 7.203125 -8.796875 Z M 4.90625 -5.90625 C 4.90625 -4.71875 5.238281 -3.769531 5.90625 -3.0625 C 6.582031 -2.363281 7.5 -2.015625 8.65625 -2.015625 C 9.8125 -2.015625 10.722656 -2.363281 11.390625 -3.0625 C 12.066406 -3.769531 12.40625 -4.71875 12.40625 -5.90625 L 12.40625 -14.859375 C 12.40625 -16.046875 12.066406 -16.988281 11.390625 -17.6875 C 10.722656 -18.394531 9.8125 -18.75 8.65625 -18.75 C 7.5 -18.75 6.582031 -18.394531 5.90625 -17.6875 C 5.238281 -16.988281 4.90625 -16.046875 4.90625 -14.859375 Z M 2.3125 -5.90625 L 2.3125 -14.859375 C 2.3125 -15.796875 2.457031 -16.648438 2.75 -17.421875 C 3.050781 -18.191406 3.472656 -18.84375 4.015625 -19.375 C 4.566406 -19.914062 5.234375 -20.332031 6.015625 -20.625 C 6.796875 -20.914062 7.675781 -21.0625 8.65625 -21.0625 C 9.632812 -21.0625 10.507812 -20.914062 11.28125 -20.625 C 12.0625 -20.332031 12.726562 -19.914062 13.28125 -19.375 C 13.832031 -18.84375 14.253906 -18.191406 14.546875 -17.421875 C 14.847656 -16.648438 15 -15.796875 15 -14.859375 L 15 -5.90625 C 15 -4.96875 14.847656 -4.117188 14.546875 -3.359375 C 14.253906 -2.597656 13.832031 -1.945312 13.28125 -1.40625 C 12.726562 -0.875 12.054688 -0.457031 11.265625 -0.15625 C 10.484375 0.132812 9.613281 0.28125 8.65625 0.28125 C 7.675781 0.28125 6.796875 0.140625 6.015625 -0.140625 C 5.234375 -0.429688 4.566406 -0.84375 4.015625 -1.375 C 3.472656 -1.914062 3.050781 -2.570312 2.75 -3.34375 C 2.457031 -4.113281 2.3125 -4.96875 2.3125 -5.90625 Z M 2.3125 -5.90625 "/></g></g></g><g fill="#ffffff" fill-opacity="1"><g transform="translate(152.044149, 94.3869)"><g><path d="M 9.671875 5.0625 L 9.671875 -38.21875 L 20.953125 -38.21875 L 20.953125 -34.53125 L 13.8125 -34.53125 L 13.8125 1.375 L 20.953125 1.375 L 20.953125 5.0625 Z M 9.671875 5.0625 "/></g></g></g><g fill="#ffffff" fill-opacity="1"><g transform="translate(179.668475, 94.3869)"><g/></g></g><g fill="#ffffff" fill-opacity="1"><g transform="translate(207.292791, 94.3869)"><g/></g></g><g fill="#ffffff" fill-opacity="1"><g transform="translate(234.917106, 94.3869)"><g/></g></g><g fill="#ffffff" fill-opacity="1"><g transform="translate(262.541421, 94.3869)"><g/></g></g><g fill="#ffffff" fill-opacity="1"><g transform="translate(290.165736, 94.3869)"><g/></g></g><g fill="#ffffff" fill-opacity="1"><g transform="translate(317.790051, 94.3869)"><g/></g></g><g fill="#ffffff" fill-opacity="1"><g transform="translate(345.414367, 94.3869)"><g/></g></g><g fill="#ffffff" fill-opacity="1"><g transform="translate(373.03867, 94.3869)"><g/></g></g><g fill="#ffffff" fill-opacity="1"><g transform="translate(400.662996, 94.3869)"><g/></g></g><g fill="#ffffff" fill-opacity="1"><g transform="translate(428.287323, 94.3869)"><g/></g></g><g fill="#ffffff" fill-opacity="1"><g transform="translate(455.911626, 94.3869)"><g/></g></g><g fill="#ffffff" fill-opacity="1"><g transform="translate(483.53607, 94.3869)"><g><path d="M 6.90625 5.0625 L 6.90625 1.375 L 14.046875 1.375 L 14.046875 -34.53125 L 6.90625 -34.53125 L 6.90625 -38.21875 L 18.1875 -38.21875 L 18.1875 5.0625 Z M 6.90625 5.0625 "/></g></g></g><g transform="matrix(1, 0, 0, 1, 72, 0)"><g clip-path="url(#f68bc1a448)"><g clip-path="url(#6de34340ec)"><g transform="matrix(1, 0, 0, 1, 2, 0)"><g clip-path="url(#c4794a2a71)"><g clip-path="url(#dcf3535297)"><g mask="url(#65f4b5be1a)"><g><g clip-path="url(#28de9d64fa)"><g clip-path="url(#6d81405a2c)"><path fill="url(#7ddd37467b)" d="M 41.75 0 L 41.75 253.859375 L 354.28125 253.859375 L 354.28125 0 Z M 41.75 0 " fill-rule="nonzero"/></g></g></g></g></g></g></g></g></g></g><g transform="matrix(1, 0, 0, 1, 258, 90)"><g clip-path="url(#02d9582b71)"><g fill="#ffffff" fill-opacity="1"><g transform="translate(0.55174, 11.942608)"><g><path d="M 0.734375 -6.578125 L 1.59375 -6.578125 L 1.59375 -5.609375 L 1.671875 -5.609375 C 1.703125 -5.960938 1.8125 -6.234375 2 -6.421875 C 2.195312 -6.609375 2.457031 -6.703125 2.78125 -6.703125 C 3.09375 -6.703125 3.351562 -6.609375 3.5625 -6.421875 C 3.769531 -6.234375 3.914062 -5.960938 4 -5.609375 L 4.0625 -5.609375 C 4.09375 -5.960938 4.203125 -6.234375 4.390625 -6.421875 C 4.585938 -6.609375 4.84375 -6.703125 5.15625 -6.703125 C 5.5625 -6.703125 5.875 -6.550781 6.09375 -6.25 C 6.320312 -5.957031 6.4375 -5.546875 6.4375 -5.015625 L 6.4375 0 L 5.5 0 L 5.5 -5.015625 C 5.5 -5.296875 5.4375 -5.507812 5.3125 -5.65625 C 5.195312 -5.800781 5.019531 -5.875 4.78125 -5.875 C 4.300781 -5.875 4.0625 -5.566406 4.0625 -4.953125 L 4.0625 0 L 3.125 0 L 3.125 -5.015625 C 3.125 -5.242188 3.066406 -5.441406 2.953125 -5.609375 C 2.847656 -5.785156 2.664062 -5.875 2.40625 -5.875 C 2.164062 -5.875 1.976562 -5.785156 1.84375 -5.609375 C 1.726562 -5.453125 1.671875 -5.234375 1.671875 -4.953125 L 1.671875 0 L 0.734375 0 Z M 0.734375 -6.578125 "/></g></g></g><g fill="#ffffff" fill-opacity="1"><g transform="translate(7.729899, 11.942608)"><g><path d="M 3.40625 0.125 C 2.71875 0.125 2.144531 -0.03125 1.6875 -0.34375 C 1.238281 -0.664062 0.984375 -1.085938 0.921875 -1.609375 L 2.0625 -1.609375 C 2.101562 -1.378906 2.25 -1.191406 2.5 -1.046875 C 2.75 -0.910156 3.050781 -0.84375 3.40625 -0.84375 L 3.75 -0.84375 C 4.175781 -0.84375 4.507812 -0.929688 4.75 -1.109375 C 4.988281 -1.285156 5.109375 -1.523438 5.109375 -1.828125 C 5.109375 -2.347656 4.742188 -2.664062 4.015625 -2.78125 L 3.015625 -2.921875 C 2.367188 -3.015625 1.882812 -3.21875 1.5625 -3.53125 C 1.25 -3.84375 1.09375 -4.273438 1.09375 -4.828125 C 1.09375 -5.421875 1.300781 -5.878906 1.71875 -6.203125 C 2.132812 -6.535156 2.71875 -6.703125 3.46875 -6.703125 L 3.8125 -6.703125 C 4.125 -6.703125 4.414062 -6.660156 4.6875 -6.578125 C 4.957031 -6.503906 5.195312 -6.390625 5.40625 -6.234375 C 5.613281 -6.085938 5.78125 -5.910156 5.90625 -5.703125 C 6.039062 -5.503906 6.128906 -5.28125 6.171875 -5.03125 L 5.03125 -5.03125 C 4.988281 -5.238281 4.851562 -5.410156 4.625 -5.546875 C 4.40625 -5.679688 4.132812 -5.75 3.8125 -5.75 L 3.46875 -5.75 C 3.0625 -5.75 2.742188 -5.664062 2.515625 -5.5 C 2.285156 -5.34375 2.171875 -5.101562 2.171875 -4.78125 C 2.171875 -4.53125 2.25 -4.335938 2.40625 -4.203125 C 2.5625 -4.078125 2.816406 -3.988281 3.171875 -3.9375 L 4.171875 -3.796875 C 4.878906 -3.691406 5.394531 -3.484375 5.71875 -3.171875 C 6.039062 -2.859375 6.203125 -2.414062 6.203125 -1.84375 C 6.203125 -1.226562 5.988281 -0.742188 5.5625 -0.390625 C 5.132812 -0.046875 4.53125 0.125 3.75 0.125 Z M 3.40625 0.125 "/></g></g></g><g fill="#ffffff" fill-opacity="1"><g transform="translate(14.908058, 11.942608)"><g><path d="M 0.875 -4.1875 C 0.875 -4.570312 0.925781 -4.921875 1.03125 -5.234375 C 1.132812 -5.546875 1.28125 -5.804688 1.46875 -6.015625 C 1.664062 -6.234375 1.90625 -6.398438 2.1875 -6.515625 C 2.46875 -6.640625 2.78125 -6.703125 3.125 -6.703125 C 3.601562 -6.703125 4.007812 -6.585938 4.34375 -6.359375 C 4.675781 -6.128906 4.90625 -5.804688 5.03125 -5.390625 L 5.109375 -5.390625 L 5.109375 -6.578125 L 6.125 -6.578125 L 6.125 -0.484375 C 6.125 0.296875 5.894531 0.898438 5.4375 1.328125 C 4.988281 1.753906 4.351562 1.96875 3.53125 1.96875 L 1.921875 1.96875 L 1.921875 1 L 3.53125 1 C 4.007812 1 4.378906 0.867188 4.640625 0.609375 C 4.910156 0.359375 5.046875 -0.00390625 5.046875 -0.484375 L 5.046875 -0.71875 L 5.09375 -1.921875 L 5.03125 -1.921875 C 4.90625 -1.492188 4.675781 -1.164062 4.34375 -0.9375 C 4.007812 -0.707031 3.601562 -0.59375 3.125 -0.59375 C 2.78125 -0.59375 2.46875 -0.648438 2.1875 -0.765625 C 1.914062 -0.890625 1.679688 -1.0625 1.484375 -1.28125 C 1.296875 -1.5 1.144531 -1.757812 1.03125 -2.0625 C 0.925781 -2.375 0.875 -2.722656 0.875 -3.109375 Z M 1.96875 -3.109375 C 1.96875 -2.617188 2.101562 -2.234375 2.375 -1.953125 C 2.65625 -1.671875 3.035156 -1.53125 3.515625 -1.53125 C 3.992188 -1.53125 4.367188 -1.671875 4.640625 -1.953125 C 4.910156 -2.234375 5.046875 -2.617188 5.046875 -3.109375 L 5.046875 -4.1875 C 5.046875 -4.6875 4.910156 -5.070312 4.640625 -5.34375 C 4.367188 -5.625 3.992188 -5.765625 3.515625 -5.765625 C 3.035156 -5.765625 2.65625 -5.625 2.375 -5.34375 C 2.101562 -5.070312 1.96875 -4.6875 1.96875 -4.1875 Z M 1.96875 -3.109375 "/></g></g></g><g fill="#ffffff" fill-opacity="1"><g transform="translate(22.086217, 11.942608)"><g><path d="M 1.078125 -0.953125 L 3.390625 -0.953125 L 3.390625 -7 C 3.390625 -7.0625 3.390625 -7.132812 3.390625 -7.21875 C 3.398438 -7.300781 3.40625 -7.378906 3.40625 -7.453125 C 3.40625 -7.523438 3.40625 -7.585938 3.40625 -7.640625 C 3.40625 -7.691406 3.40625 -7.71875 3.40625 -7.71875 L 3.390625 -7.71875 C 3.328125 -7.664062 3.269531 -7.625 3.21875 -7.59375 C 3.164062 -7.550781 3.113281 -7.507812 3.0625 -7.46875 C 3.019531 -7.425781 2.972656 -7.390625 2.921875 -7.359375 L 1.234375 -6.21875 L 1.234375 -7.296875 L 3.09375 -8.625 L 4.46875 -8.625 L 4.46875 -0.953125 L 6.40625 -0.953125 L 6.40625 0 L 1.078125 0 Z M 1.078125 -0.953125 "/></g></g></g></g></g><g clip-path="url(#824f4556c0)"><g transform="matrix(1, 0, 0, 1, 212, 0)"><g clip-path="url(#351e7837bf)"><g clip-path="url(#5edc3383cd)"><g transform="matrix(1, 0, 0, 1, 3, 0)"><g clip-path="url(#71d2b007f2)"><g clip-path="url(#9e5d6e8fb6)"><g mask="url(#e97231aad9)"><g transform="matrix(1, 0, 0, 1, -0.000000000000028422, 0)"><g clip-path="url(#b9aff0bf85)"><g clip-path="url(#bdf2dfc909)"><path fill="url(#609a6c68eb)" d="M 41.59375 0 L 41.59375 253.859375 L 345.558594 253.859375 L 345.558594 0 Z M 41.59375 0 " fill-rule="nonzero"/></g></g></g></g></g></g></g></g></g></g></g><g transform="matrix(1, 0, 0, 1, 398, 90)"><g clip-path="url(#d4391c35b9)"><g fill="#ffffff" fill-opacity="1"><g transform="translate(1.396595, 11.942608)"><g><path d="M 0.734375 -6.578125 L 1.59375 -6.578125 L 1.59375 -5.609375 L 1.671875 -5.609375 C 1.703125 -5.960938 1.8125 -6.234375 2 -6.421875 C 2.195312 -6.609375 2.457031 -6.703125 2.78125 -6.703125 C 3.09375 -6.703125 3.351562 -6.609375 3.5625 -6.421875 C 3.769531 -6.234375 3.914062 -5.960938 4 -5.609375 L 4.0625 -5.609375 C 4.09375 -5.960938 4.203125 -6.234375 4.390625 -6.421875 C 4.585938 -6.609375 4.84375 -6.703125 5.15625 -6.703125 C 5.5625 -6.703125 5.875 -6.550781 6.09375 -6.25 C 6.320312 -5.957031 6.4375 -5.546875 6.4375 -5.015625 L 6.4375 0 L 5.5 0 L 5.5 -5.015625 C 5.5 -5.296875 5.4375 -5.507812 5.3125 -5.65625 C 5.195312 -5.800781 5.019531 -5.875 4.78125 -5.875 C 4.300781 -5.875 4.0625 -5.566406 4.0625 -4.953125 L 4.0625 0 L 3.125 0 L 3.125 -5.015625 C 3.125 -5.242188 3.066406 -5.441406 2.953125 -5.609375 C 2.847656 -5.785156 2.664062 -5.875 2.40625 -5.875 C 2.164062 -5.875 1.976562 -5.785156 1.84375 -5.609375 C 1.726562 -5.453125 1.671875 -5.234375 1.671875 -4.953125 L 1.671875 0 L 0.734375 0 Z M 0.734375 -6.578125 "/></g></g></g><g fill="#ffffff" fill-opacity="1"><g transform="translate(8.574754, 11.942608)"><g><path d="M 3.40625 0.125 C 2.71875 0.125 2.144531 -0.03125 1.6875 -0.34375 C 1.238281 -0.664062 0.984375 -1.085938 0.921875 -1.609375 L 2.0625 -1.609375 C 2.101562 -1.378906 2.25 -1.191406 2.5 -1.046875 C 2.75 -0.910156 3.050781 -0.84375 3.40625 -0.84375 L 3.75 -0.84375 C 4.175781 -0.84375 4.507812 -0.929688 4.75 -1.109375 C 4.988281 -1.285156 5.109375 -1.523438 5.109375 -1.828125 C 5.109375 -2.347656 4.742188 -2.664062 4.015625 -2.78125 L 3.015625 -2.921875 C 2.367188 -3.015625 1.882812 -3.21875 1.5625 -3.53125 C 1.25 -3.84375 1.09375 -4.273438 1.09375 -4.828125 C 1.09375 -5.421875 1.300781 -5.878906 1.71875 -6.203125 C 2.132812 -6.535156 2.71875 -6.703125 3.46875 -6.703125 L 3.8125 -6.703125 C 4.125 -6.703125 4.414062 -6.660156 4.6875 -6.578125 C 4.957031 -6.503906 5.195312 -6.390625 5.40625 -6.234375 C 5.613281 -6.085938 5.78125 -5.910156 5.90625 -5.703125 C 6.039062 -5.503906 6.128906 -5.28125 6.171875 -5.03125 L 5.03125 -5.03125 C 4.988281 -5.238281 4.851562 -5.410156 4.625 -5.546875 C 4.40625 -5.679688 4.132812 -5.75 3.8125 -5.75 L 3.46875 -5.75 C 3.0625 -5.75 2.742188 -5.664062 2.515625 -5.5 C 2.285156 -5.34375 2.171875 -5.101562 2.171875 -4.78125 C 2.171875 -4.53125 2.25 -4.335938 2.40625 -4.203125 C 2.5625 -4.078125 2.816406 -3.988281 3.171875 -3.9375 L 4.171875 -3.796875 C 4.878906 -3.691406 5.394531 -3.484375 5.71875 -3.171875 C 6.039062 -2.859375 6.203125 -2.414062 6.203125 -1.84375 C 6.203125 -1.226562 5.988281 -0.742188 5.5625 -0.390625 C 5.132812 -0.046875 4.53125 0.125 3.75 0.125 Z M 3.40625 0.125 "/></g></g></g><g fill="#ffffff" fill-opacity="1"><g transform="translate(15.752913, 11.942608)"><g><path d="M 0.875 -4.1875 C 0.875 -4.570312 0.925781 -4.921875 1.03125 -5.234375 C 1.132812 -5.546875 1.28125 -5.804688 1.46875 -6.015625 C 1.664062 -6.234375 1.90625 -6.398438 2.1875 -6.515625 C 2.46875 -6.640625 2.78125 -6.703125 3.125 -6.703125 C 3.601562 -6.703125 4.007812 -6.585938 4.34375 -6.359375 C 4.675781 -6.128906 4.90625 -5.804688 5.03125 -5.390625 L 5.109375 -5.390625 L 5.109375 -6.578125 L 6.125 -6.578125 L 6.125 -0.484375 C 6.125 0.296875 5.894531 0.898438 5.4375 1.328125 C 4.988281 1.753906 4.351562 1.96875 3.53125 1.96875 L 1.921875 1.96875 L 1.921875 1 L 3.53125 1 C 4.007812 1 4.378906 0.867188 4.640625 0.609375 C 4.910156 0.359375 5.046875 -0.00390625 5.046875 -0.484375 L 5.046875 -0.71875 L 5.09375 -1.921875 L 5.03125 -1.921875 C 4.90625 -1.492188 4.675781 -1.164062 4.34375 -0.9375 C 4.007812 -0.707031 3.601562 -0.59375 3.125 -0.59375 C 2.78125 -0.59375 2.46875 -0.648438 2.1875 -0.765625 C 1.914062 -0.890625 1.679688 -1.0625 1.484375 -1.28125 C 1.296875 -1.5 1.144531 -1.757812 1.03125 -2.0625 C 0.925781 -2.375 0.875 -2.722656 0.875 -3.109375 Z M 1.96875 -3.109375 C 1.96875 -2.617188 2.101562 -2.234375 2.375 -1.953125 C 2.65625 -1.671875 3.035156 -1.53125 3.515625 -1.53125 C 3.992188 -1.53125 4.367188 -1.671875 4.640625 -1.953125 C 4.910156 -2.234375 5.046875 -2.617188 5.046875 -3.109375 L 5.046875 -4.1875 C 5.046875 -4.6875 4.910156 -5.070312 4.640625 -5.34375 C 4.367188 -5.625 3.992188 -5.765625 3.515625 -5.765625 C 3.035156 -5.765625 2.65625 -5.625 2.375 -5.34375 C 2.101562 -5.070312 1.96875 -4.6875 1.96875 -4.1875 Z M 1.96875 -3.109375 "/></g></g></g><g fill="#ffffff" fill-opacity="1"><g transform="translate(22.931072, 11.942608)"><g><path d="M 6.140625 -6.34375 C 6.140625 -5.695312 5.960938 -5.070312 5.609375 -4.46875 C 5.253906 -3.863281 4.6875 -3.226562 3.90625 -2.5625 L 2.46875 -1.296875 C 2.425781 -1.265625 2.378906 -1.234375 2.328125 -1.203125 C 2.285156 -1.171875 2.238281 -1.140625 2.1875 -1.109375 C 2.125 -1.066406 2.066406 -1.03125 2.015625 -1 L 2.015625 -0.953125 C 2.140625 -0.960938 2.257812 -0.96875 2.375 -0.96875 C 2.488281 -0.976562 2.601562 -0.984375 2.71875 -0.984375 C 2.832031 -0.984375 2.941406 -0.984375 3.046875 -0.984375 L 6.21875 -0.984375 L 6.21875 0 L 0.84375 0 L 0.84375 -1.203125 L 3.109375 -3.140625 C 3.453125 -3.441406 3.742188 -3.722656 3.984375 -3.984375 C 4.234375 -4.242188 4.429688 -4.5 4.578125 -4.75 C 4.734375 -5.007812 4.847656 -5.265625 4.921875 -5.515625 C 4.992188 -5.773438 5.03125 -6.046875 5.03125 -6.328125 C 5.03125 -6.773438 4.894531 -7.128906 4.625 -7.390625 C 4.351562 -7.648438 3.992188 -7.78125 3.546875 -7.78125 C 3.035156 -7.78125 2.628906 -7.644531 2.328125 -7.375 C 2.035156 -7.113281 1.890625 -6.769531 1.890625 -6.34375 L 0.78125 -6.34375 C 0.789062 -6.695312 0.863281 -7.019531 1 -7.3125 C 1.132812 -7.613281 1.320312 -7.867188 1.5625 -8.078125 C 1.8125 -8.285156 2.101562 -8.445312 2.4375 -8.5625 C 2.769531 -8.675781 3.140625 -8.734375 3.546875 -8.734375 C 3.941406 -8.734375 4.296875 -8.675781 4.609375 -8.5625 C 4.929688 -8.457031 5.203125 -8.300781 5.421875 -8.09375 C 5.648438 -7.882812 5.828125 -7.628906 5.953125 -7.328125 C 6.078125 -7.035156 6.140625 -6.707031 6.140625 -6.34375 Z M 6.140625 -6.34375 "/></g></g></g></g></g><g transform="matrix(1, 0, 0, 1, 58, 141)"><g clip-path="url(#548528530a)"><g fill="#ffffff" fill-opacity="1"><g transform="translate(0.443252, 28.904517)"><g><path d="M 1.4375 -15.859375 L 4.1875 -15.859375 L 8.046875 -4.640625 C 8.203125 -4.203125 8.316406 -3.8125 8.390625 -3.46875 C 8.472656 -3.132812 8.53125 -2.851562 8.5625 -2.625 C 8.601562 -2.332031 8.625 -2.082031 8.625 -1.875 L 8.890625 -1.875 C 8.867188 -2.082031 8.875 -2.332031 8.90625 -2.625 C 8.945312 -2.851562 8.992188 -3.132812 9.046875 -3.46875 C 9.109375 -3.8125 9.21875 -4.203125 9.375 -4.640625 L 13.03125 -15.859375 L 15.859375 -15.859375 L 10.1875 0 L 7.234375 0 Z M 1.4375 -15.859375 "/></g></g></g><g fill="#ffffff" fill-opacity="1"><g transform="translate(17.74685, 28.904517)"><g><path d="M 2.59375 -2.3125 L 8.15625 -2.3125 L 8.15625 -16.875 C 8.15625 -17.03125 8.160156 -17.207031 8.171875 -17.40625 C 8.179688 -17.601562 8.1875 -17.789062 8.1875 -17.96875 C 8.1875 -18.144531 8.191406 -18.296875 8.203125 -18.421875 C 8.210938 -18.546875 8.21875 -18.609375 8.21875 -18.609375 L 8.15625 -18.609375 C 8.019531 -18.492188 7.890625 -18.382812 7.765625 -18.28125 C 7.640625 -18.1875 7.515625 -18.09375 7.390625 -18 C 7.265625 -17.90625 7.144531 -17.816406 7.03125 -17.734375 L 2.96875 -14.96875 L 2.96875 -17.59375 L 7.4375 -20.765625 L 10.765625 -20.765625 L 10.765625 -2.3125 L 15.4375 -2.3125 L 15.4375 0 L 2.59375 0 Z M 2.59375 -2.3125 "/></g></g></g></g></g><g fill="#ffffff" fill-opacity="1"><g transform="translate(152.044149, 176.355979)"><g><path d="M 9.671875 5.0625 L 9.671875 -38.21875 L 20.953125 -38.21875 L 20.953125 -34.53125 L 13.8125 -34.53125 L 13.8125 1.375 L 20.953125 1.375 L 20.953125 5.0625 Z M 9.671875 5.0625 "/></g></g></g><g fill="#ffffff" fill-opacity="1"><g transform="translate(179.668475, 176.355979)"><g/></g></g><g fill="#ffffff" fill-opacity="1"><g transform="translate(207.292791, 176.355979)"><g/></g></g><g fill="#ffffff" fill-opacity="1"><g transform="translate(234.917106, 176.355979)"><g/></g></g><g fill="#ffffff" fill-opacity="1"><g transform="translate(262.541421, 176.355979)"><g/></g></g><g fill="#ffffff" fill-opacity="1"><g transform="translate(290.165736, 176.355979)"><g/></g></g><g fill="#ffffff" fill-opacity="1"><g transform="translate(317.790051, 176.355979)"><g/></g></g><g fill="#ffffff" fill-opacity="1"><g transform="translate(345.414367, 176.355979)"><g/></g></g><g fill="#ffffff" fill-opacity="1"><g transform="translate(373.03867, 176.355979)"><g/></g></g><g fill="#ffffff" fill-opacity="1"><g transform="translate(400.662996, 176.355979)"><g/></g></g><g fill="#ffffff" fill-opacity="1"><g transform="translate(428.287323, 176.355979)"><g/></g></g><g fill="#ffffff" fill-opacity="1"><g transform="translate(455.911626, 176.355979)"><g/></g></g><g fill="#ffffff" fill-opacity="1"><g transform="translate(483.53607, 176.355979)"><g><path d="M 6.90625 5.0625 L 6.90625 1.375 L 14.046875 1.375 L 14.046875 -34.53125 L 6.90625 -34.53125 L 6.90625 -38.21875 L 18.1875 -38.21875 L 18.1875 5.0625 Z M 6.90625 5.0625 "/></g></g></g><g transform="matrix(1, 0, 0, 1, 74, 0)"><g clip-path="url(#caa458cd73)"><g clip-path="url(#8dd098887a)"><g><g clip-path="url(#34cc50fe05)"><g clip-path="url(#e561b0525e)"><g mask="url(#853935b6e0)"><g><g clip-path="url(#91548cee48)"><g clip-path="url(#792ed06bb2)"><path fill="url(#f3a9f7014b)" d="M 42.078125 0 L 42.078125 316 L 354.972656 316 L 354.972656 0 Z M 42.078125 0 " fill-rule="nonzero"/></g></g></g></g></g></g></g></g></g></g><g transform="matrix(1, 0, 0, 1, 258, 172)"><g clip-path="url(#5d47df65d3)"><g fill="#ffffff" fill-opacity="1"><g transform="translate(0.55174, 11.911668)"><g><path d="M 0.734375 -6.578125 L 1.59375 -6.578125 L 1.59375 -5.609375 L 1.671875 -5.609375 C 1.703125 -5.960938 1.8125 -6.234375 2 -6.421875 C 2.195312 -6.609375 2.457031 -6.703125 2.78125 -6.703125 C 3.09375 -6.703125 3.351562 -6.609375 3.5625 -6.421875 C 3.769531 -6.234375 3.914062 -5.960938 4 -5.609375 L 4.0625 -5.609375 C 4.09375 -5.960938 4.203125 -6.234375 4.390625 -6.421875 C 4.585938 -6.609375 4.84375 -6.703125 5.15625 -6.703125 C 5.5625 -6.703125 5.875 -6.550781 6.09375 -6.25 C 6.320312 -5.957031 6.4375 -5.546875 6.4375 -5.015625 L 6.4375 0 L 5.5 0 L 5.5 -5.015625 C 5.5 -5.296875 5.4375 -5.507812 5.3125 -5.65625 C 5.195312 -5.800781 5.019531 -5.875 4.78125 -5.875 C 4.300781 -5.875 4.0625 -5.566406 4.0625 -4.953125 L 4.0625 0 L 3.125 0 L 3.125 -5.015625 C 3.125 -5.242188 3.066406 -5.441406 2.953125 -5.609375 C 2.847656 -5.785156 2.664062 -5.875 2.40625 -5.875 C 2.164062 -5.875 1.976562 -5.785156 1.84375 -5.609375 C 1.726562 -5.453125 1.671875 -5.234375 1.671875 -4.953125 L 1.671875 0 L 0.734375 0 Z M 0.734375 -6.578125 "/></g></g></g><g fill="#ffffff" fill-opacity="1"><g transform="translate(7.729899, 11.911668)"><g><path d="M 3.40625 0.125 C 2.71875 0.125 2.144531 -0.03125 1.6875 -0.34375 C 1.238281 -0.664062 0.984375 -1.085938 0.921875 -1.609375 L 2.0625 -1.609375 C 2.101562 -1.378906 2.25 -1.191406 2.5 -1.046875 C 2.75 -0.910156 3.050781 -0.84375 3.40625 -0.84375 L 3.75 -0.84375 C 4.175781 -0.84375 4.507812 -0.929688 4.75 -1.109375 C 4.988281 -1.285156 5.109375 -1.523438 5.109375 -1.828125 C 5.109375 -2.347656 4.742188 -2.664062 4.015625 -2.78125 L 3.015625 -2.921875 C 2.367188 -3.015625 1.882812 -3.21875 1.5625 -3.53125 C 1.25 -3.84375 1.09375 -4.273438 1.09375 -4.828125 C 1.09375 -5.421875 1.300781 -5.878906 1.71875 -6.203125 C 2.132812 -6.535156 2.71875 -6.703125 3.46875 -6.703125 L 3.8125 -6.703125 C 4.125 -6.703125 4.414062 -6.660156 4.6875 -6.578125 C 4.957031 -6.503906 5.195312 -6.390625 5.40625 -6.234375 C 5.613281 -6.085938 5.78125 -5.910156 5.90625 -5.703125 C 6.039062 -5.503906 6.128906 -5.28125 6.171875 -5.03125 L 5.03125 -5.03125 C 4.988281 -5.238281 4.851562 -5.410156 4.625 -5.546875 C 4.40625 -5.679688 4.132812 -5.75 3.8125 -5.75 L 3.46875 -5.75 C 3.0625 -5.75 2.742188 -5.664062 2.515625 -5.5 C 2.285156 -5.34375 2.171875 -5.101562 2.171875 -4.78125 C 2.171875 -4.53125 2.25 -4.335938 2.40625 -4.203125 C 2.5625 -4.078125 2.816406 -3.988281 3.171875 -3.9375 L 4.171875 -3.796875 C 4.878906 -3.691406 5.394531 -3.484375 5.71875 -3.171875 C 6.039062 -2.859375 6.203125 -2.414062 6.203125 -1.84375 C 6.203125 -1.226562 5.988281 -0.742188 5.5625 -0.390625 C 5.132812 -0.046875 4.53125 0.125 3.75 0.125 Z M 3.40625 0.125 "/></g></g></g><g fill="#ffffff" fill-opacity="1"><g transform="translate(14.908058, 11.911668)"><g><path d="M 0.875 -4.1875 C 0.875 -4.570312 0.925781 -4.921875 1.03125 -5.234375 C 1.132812 -5.546875 1.28125 -5.804688 1.46875 -6.015625 C 1.664062 -6.234375 1.90625 -6.398438 2.1875 -6.515625 C 2.46875 -6.640625 2.78125 -6.703125 3.125 -6.703125 C 3.601562 -6.703125 4.007812 -6.585938 4.34375 -6.359375 C 4.675781 -6.128906 4.90625 -5.804688 5.03125 -5.390625 L 5.109375 -5.390625 L 5.109375 -6.578125 L 6.125 -6.578125 L 6.125 -0.484375 C 6.125 0.296875 5.894531 0.898438 5.4375 1.328125 C 4.988281 1.753906 4.351562 1.96875 3.53125 1.96875 L 1.921875 1.96875 L 1.921875 1 L 3.53125 1 C 4.007812 1 4.378906 0.867188 4.640625 0.609375 C 4.910156 0.359375 5.046875 -0.00390625 5.046875 -0.484375 L 5.046875 -0.71875 L 5.09375 -1.921875 L 5.03125 -1.921875 C 4.90625 -1.492188 4.675781 -1.164062 4.34375 -0.9375 C 4.007812 -0.707031 3.601562 -0.59375 3.125 -0.59375 C 2.78125 -0.59375 2.46875 -0.648438 2.1875 -0.765625 C 1.914062 -0.890625 1.679688 -1.0625 1.484375 -1.28125 C 1.296875 -1.5 1.144531 -1.757812 1.03125 -2.0625 C 0.925781 -2.375 0.875 -2.722656 0.875 -3.109375 Z M 1.96875 -3.109375 C 1.96875 -2.617188 2.101562 -2.234375 2.375 -1.953125 C 2.65625 -1.671875 3.035156 -1.53125 3.515625 -1.53125 C 3.992188 -1.53125 4.367188 -1.671875 4.640625 -1.953125 C 4.910156 -2.234375 5.046875 -2.617188 5.046875 -3.109375 L 5.046875 -4.1875 C 5.046875 -4.6875 4.910156 -5.070312 4.640625 -5.34375 C 4.367188 -5.625 3.992188 -5.765625 3.515625 -5.765625 C 3.035156 -5.765625 2.65625 -5.625 2.375 -5.34375 C 2.101562 -5.070312 1.96875 -4.6875 1.96875 -4.1875 Z M 1.96875 -3.109375 "/></g></g></g><g fill="#ffffff" fill-opacity="1"><g transform="translate(22.086217, 11.911668)"><g><path d="M 1.078125 -0.953125 L 3.390625 -0.953125 L 3.390625 -7 C 3.390625 -7.0625 3.390625 -7.132812 3.390625 -7.21875 C 3.398438 -7.300781 3.40625 -7.378906 3.40625 -7.453125 C 3.40625 -7.523438 3.40625 -7.585938 3.40625 -7.640625 C 3.40625 -7.691406 3.40625 -7.71875 3.40625 -7.71875 L 3.390625 -7.71875 C 3.328125 -7.664062 3.269531 -7.625 3.21875 -7.59375 C 3.164062 -7.550781 3.113281 -7.507812 3.0625 -7.46875 C 3.019531 -7.425781 2.972656 -7.390625 2.921875 -7.359375 L 1.234375 -6.21875 L 1.234375 -7.296875 L 3.09375 -8.625 L 4.46875 -8.625 L 4.46875 -0.953125 L 6.40625 -0.953125 L 6.40625 0 L 1.078125 0 Z M 1.078125 -0.953125 "/></g></g></g></g></g><g clip-path="url(#514c405934)"><g transform="matrix(1, 0, 0, 1, 212, 0)"><g clip-path="url(#e5315eb17c)"><g clip-path="url(#6458decf26)"><g transform="matrix(1, 0, 0, 1, 3, 0)"><g clip-path="url(#736466df4e)"><g clip-path="url(#dec57f8fc4)"><g mask="url(#ab7c486319)"><g transform="matrix(1, 0, 0, 1, -0.000000000000028422, 0)"><g clip-path="url(#550e3e8627)"><g clip-path="url(#74959948e4)"><path fill="url(#dbd43c6085)" d="M 41.59375 0 L 41.59375 316 L 345.558594 316 L 345.558594 0 Z M 41.59375 0 " fill-rule="nonzero"/></g></g></g></g></g></g></g></g></g></g></g><g transform="matrix(1, 0, 0, 1, 398, 172)"><g clip-path="url(#5c9612fdf7)"><g fill="#ffffff" fill-opacity="1"><g transform="translate(1.396595, 11.911668)"><g><path d="M 0.734375 -6.578125 L 1.59375 -6.578125 L 1.59375 -5.609375 L 1.671875 -5.609375 C 1.703125 -5.960938 1.8125 -6.234375 2 -6.421875 C 2.195312 -6.609375 2.457031 -6.703125 2.78125 -6.703125 C 3.09375 -6.703125 3.351562 -6.609375 3.5625 -6.421875 C 3.769531 -6.234375 3.914062 -5.960938 4 -5.609375 L 4.0625 -5.609375 C 4.09375 -5.960938 4.203125 -6.234375 4.390625 -6.421875 C 4.585938 -6.609375 4.84375 -6.703125 5.15625 -6.703125 C 5.5625 -6.703125 5.875 -6.550781 6.09375 -6.25 C 6.320312 -5.957031 6.4375 -5.546875 6.4375 -5.015625 L 6.4375 0 L 5.5 0 L 5.5 -5.015625 C 5.5 -5.296875 5.4375 -5.507812 5.3125 -5.65625 C 5.195312 -5.800781 5.019531 -5.875 4.78125 -5.875 C 4.300781 -5.875 4.0625 -5.566406 4.0625 -4.953125 L 4.0625 0 L 3.125 0 L 3.125 -5.015625 C 3.125 -5.242188 3.066406 -5.441406 2.953125 -5.609375 C 2.847656 -5.785156 2.664062 -5.875 2.40625 -5.875 C 2.164062 -5.875 1.976562 -5.785156 1.84375 -5.609375 C 1.726562 -5.453125 1.671875 -5.234375 1.671875 -4.953125 L 1.671875 0 L 0.734375 0 Z M 0.734375 -6.578125 "/></g></g></g><g fill="#ffffff" fill-opacity="1"><g transform="translate(8.574754, 11.911668)"><g><path d="M 3.40625 0.125 C 2.71875 0.125 2.144531 -0.03125 1.6875 -0.34375 C 1.238281 -0.664062 0.984375 -1.085938 0.921875 -1.609375 L 2.0625 -1.609375 C 2.101562 -1.378906 2.25 -1.191406 2.5 -1.046875 C 2.75 -0.910156 3.050781 -0.84375 3.40625 -0.84375 L 3.75 -0.84375 C 4.175781 -0.84375 4.507812 -0.929688 4.75 -1.109375 C 4.988281 -1.285156 5.109375 -1.523438 5.109375 -1.828125 C 5.109375 -2.347656 4.742188 -2.664062 4.015625 -2.78125 L 3.015625 -2.921875 C 2.367188 -3.015625 1.882812 -3.21875 1.5625 -3.53125 C 1.25 -3.84375 1.09375 -4.273438 1.09375 -4.828125 C 1.09375 -5.421875 1.300781 -5.878906 1.71875 -6.203125 C 2.132812 -6.535156 2.71875 -6.703125 3.46875 -6.703125 L 3.8125 -6.703125 C 4.125 -6.703125 4.414062 -6.660156 4.6875 -6.578125 C 4.957031 -6.503906 5.195312 -6.390625 5.40625 -6.234375 C 5.613281 -6.085938 5.78125 -5.910156 5.90625 -5.703125 C 6.039062 -5.503906 6.128906 -5.28125 6.171875 -5.03125 L 5.03125 -5.03125 C 4.988281 -5.238281 4.851562 -5.410156 4.625 -5.546875 C 4.40625 -5.679688 4.132812 -5.75 3.8125 -5.75 L 3.46875 -5.75 C 3.0625 -5.75 2.742188 -5.664062 2.515625 -5.5 C 2.285156 -5.34375 2.171875 -5.101562 2.171875 -4.78125 C 2.171875 -4.53125 2.25 -4.335938 2.40625 -4.203125 C 2.5625 -4.078125 2.816406 -3.988281 3.171875 -3.9375 L 4.171875 -3.796875 C 4.878906 -3.691406 5.394531 -3.484375 5.71875 -3.171875 C 6.039062 -2.859375 6.203125 -2.414062 6.203125 -1.84375 C 6.203125 -1.226562 5.988281 -0.742188 5.5625 -0.390625 C 5.132812 -0.046875 4.53125 0.125 3.75 0.125 Z M 3.40625 0.125 "/></g></g></g><g fill="#ffffff" fill-opacity="1"><g transform="translate(15.752913, 11.911668)"><g><path d="M 0.875 -4.1875 C 0.875 -4.570312 0.925781 -4.921875 1.03125 -5.234375 C 1.132812 -5.546875 1.28125 -5.804688 1.46875 -6.015625 C 1.664062 -6.234375 1.90625 -6.398438 2.1875 -6.515625 C 2.46875 -6.640625 2.78125 -6.703125 3.125 -6.703125 C 3.601562 -6.703125 4.007812 -6.585938 4.34375 -6.359375 C 4.675781 -6.128906 4.90625 -5.804688 5.03125 -5.390625 L 5.109375 -5.390625 L 5.109375 -6.578125 L 6.125 -6.578125 L 6.125 -0.484375 C 6.125 0.296875 5.894531 0.898438 5.4375 1.328125 C 4.988281 1.753906 4.351562 1.96875 3.53125 1.96875 L 1.921875 1.96875 L 1.921875 1 L 3.53125 1 C 4.007812 1 4.378906 0.867188 4.640625 0.609375 C 4.910156 0.359375 5.046875 -0.00390625 5.046875 -0.484375 L 5.046875 -0.71875 L 5.09375 -1.921875 L 5.03125 -1.921875 C 4.90625 -1.492188 4.675781 -1.164062 4.34375 -0.9375 C 4.007812 -0.707031 3.601562 -0.59375 3.125 -0.59375 C 2.78125 -0.59375 2.46875 -0.648438 2.1875 -0.765625 C 1.914062 -0.890625 1.679688 -1.0625 1.484375 -1.28125 C 1.296875 -1.5 1.144531 -1.757812 1.03125 -2.0625 C 0.925781 -2.375 0.875 -2.722656 0.875 -3.109375 Z M 1.96875 -3.109375 C 1.96875 -2.617188 2.101562 -2.234375 2.375 -1.953125 C 2.65625 -1.671875 3.035156 -1.53125 3.515625 -1.53125 C 3.992188 -1.53125 4.367188 -1.671875 4.640625 -1.953125 C 4.910156 -2.234375 5.046875 -2.617188 5.046875 -3.109375 L 5.046875 -4.1875 C 5.046875 -4.6875 4.910156 -5.070312 4.640625 -5.34375 C 4.367188 -5.625 3.992188 -5.765625 3.515625 -5.765625 C 3.035156 -5.765625 2.65625 -5.625 2.375 -5.34375 C 2.101562 -5.070312 1.96875 -4.6875 1.96875 -4.1875 Z M 1.96875 -3.109375 "/></g></g></g><g fill="#ffffff" fill-opacity="1"><g transform="translate(22.931072, 11.911668)"><g><path d="M 6.140625 -6.34375 C 6.140625 -5.695312 5.960938 -5.070312 5.609375 -4.46875 C 5.253906 -3.863281 4.6875 -3.226562 3.90625 -2.5625 L 2.46875 -1.296875 C 2.425781 -1.265625 2.378906 -1.234375 2.328125 -1.203125 C 2.285156 -1.171875 2.238281 -1.140625 2.1875 -1.109375 C 2.125 -1.066406 2.066406 -1.03125 2.015625 -1 L 2.015625 -0.953125 C 2.140625 -0.960938 2.257812 -0.96875 2.375 -0.96875 C 2.488281 -0.976562 2.601562 -0.984375 2.71875 -0.984375 C 2.832031 -0.984375 2.941406 -0.984375 3.046875 -0.984375 L 6.21875 -0.984375 L 6.21875 0 L 0.84375 0 L 0.84375 -1.203125 L 3.109375 -3.140625 C 3.453125 -3.441406 3.742188 -3.722656 3.984375 -3.984375 C 4.234375 -4.242188 4.429688 -4.5 4.578125 -4.75 C 4.734375 -5.007812 4.847656 -5.265625 4.921875 -5.515625 C 4.992188 -5.773438 5.03125 -6.046875 5.03125 -6.328125 C 5.03125 -6.773438 4.894531 -7.128906 4.625 -7.390625 C 4.351562 -7.648438 3.992188 -7.78125 3.546875 -7.78125 C 3.035156 -7.78125 2.628906 -7.644531 2.328125 -7.375 C 2.035156 -7.113281 1.890625 -6.769531 1.890625 -6.34375 L 0.78125 -6.34375 C 0.789062 -6.695312 0.863281 -7.019531 1 -7.3125 C 1.132812 -7.613281 1.320312 -7.867188 1.5625 -8.078125 C 1.8125 -8.285156 2.101562 -8.445312 2.4375 -8.5625 C 2.769531 -8.675781 3.140625 -8.734375 3.546875 -8.734375 C 3.941406 -8.734375 4.296875 -8.675781 4.609375 -8.5625 C 4.929688 -8.457031 5.203125 -8.300781 5.421875 -8.09375 C 5.648438 -7.882812 5.828125 -7.628906 5.953125 -7.328125 C 6.078125 -7.035156 6.140625 -6.707031 6.140625 -6.34375 Z M 6.140625 -6.34375 "/></g></g></g></g></g><g fill="#ffffff" fill-opacity="1"><g transform="translate(242.821813, 198.100031)"><g><path d="M 2.0625 -5.0625 C 2.0625 -5.601562 2.140625 -6.109375 2.296875 -6.578125 C 2.453125 -7.054688 2.671875 -7.484375 2.953125 -7.859375 C 3.242188 -8.234375 3.597656 -8.550781 4.015625 -8.8125 C 4.429688 -9.082031 4.894531 -9.28125 5.40625 -9.40625 L 5.40625 -8.46875 C 5.050781 -8.382812 4.726562 -8.242188 4.4375 -8.046875 C 4.144531 -7.847656 3.894531 -7.597656 3.6875 -7.296875 C 3.488281 -6.992188 3.332031 -6.65625 3.21875 -6.28125 C 3.113281 -5.90625 3.0625 -5.5 3.0625 -5.0625 L 3.0625 -2.953125 C 3.0625 -2.523438 3.113281 -2.125 3.21875 -1.75 C 3.332031 -1.375 3.488281 -1.039062 3.6875 -0.75 C 3.894531 -0.46875 4.144531 -0.222656 4.4375 -0.015625 C 4.726562 0.179688 5.050781 0.320312 5.40625 0.40625 L 5.40625 1.390625 C 4.875 1.253906 4.398438 1.054688 3.984375 0.796875 C 3.578125 0.535156 3.226562 0.222656 2.9375 -0.140625 C 2.65625 -0.515625 2.4375 -0.9375 2.28125 -1.40625 C 2.132812 -1.875 2.0625 -2.390625 2.0625 -2.953125 Z M 2.0625 -5.0625 "/></g></g></g><g fill="#ffffff" fill-opacity="1"><g transform="translate(249.514365, 198.100031)"><g><path d="M 0.828125 -6.125 L 2.234375 -6.125 L 2.234375 -2.296875 C 2.234375 -1.503906 2.601562 -1.109375 3.34375 -1.109375 C 4.082031 -1.109375 4.453125 -1.503906 4.453125 -2.296875 L 4.453125 -6.125 L 5.84375 -6.125 L 5.84375 -2.296875 C 5.84375 -1.523438 5.617188 -0.929688 5.171875 -0.515625 C 4.734375 -0.0976562 4.125 0.109375 3.34375 0.109375 C 2.550781 0.109375 1.929688 -0.0976562 1.484375 -0.515625 C 1.046875 -0.941406 0.828125 -1.535156 0.828125 -2.296875 Z M 0.828125 -6.125 "/></g></g></g><g fill="#ffffff" fill-opacity="1"><g transform="translate(256.197524, 198.100031)"><g><path d="M 2.15625 -6.125 L 2.15625 -5.0625 L 2.265625 -5.0625 C 2.335938 -5.425781 2.515625 -5.710938 2.796875 -5.921875 C 3.085938 -6.128906 3.457031 -6.234375 3.90625 -6.234375 C 4.21875 -6.234375 4.503906 -6.175781 4.765625 -6.0625 C 5.023438 -5.957031 5.242188 -5.800781 5.421875 -5.59375 C 5.609375 -5.382812 5.75 -5.132812 5.84375 -4.84375 C 5.945312 -4.550781 6 -4.21875 6 -3.84375 L 6 -2.3125 C 6 -1.945312 5.945312 -1.613281 5.84375 -1.3125 C 5.75 -1.007812 5.609375 -0.75 5.421875 -0.53125 C 5.242188 -0.320312 5.023438 -0.160156 4.765625 -0.046875 C 4.503906 0.0546875 4.21875 0.109375 3.90625 0.109375 C 3.457031 0.109375 3.085938 0.00390625 2.796875 -0.203125 C 2.515625 -0.410156 2.335938 -0.695312 2.265625 -1.0625 L 2.15625 -1.0625 C 2.15625 -1.039062 2.160156 -0.992188 2.171875 -0.921875 C 2.179688 -0.859375 2.1875 -0.773438 2.1875 -0.671875 C 2.195312 -0.578125 2.203125 -0.46875 2.203125 -0.34375 C 2.210938 -0.226562 2.21875 -0.113281 2.21875 0 L 2.21875 1.84375 L 0.8125 1.84375 L 0.8125 -6.125 Z M 2.21875 -2.3125 C 2.21875 -1.945312 2.320312 -1.65625 2.53125 -1.4375 C 2.75 -1.21875 3.035156 -1.109375 3.390625 -1.109375 C 3.773438 -1.109375 4.070312 -1.21875 4.28125 -1.4375 C 4.5 -1.664062 4.609375 -1.96875 4.609375 -2.34375 L 4.609375 -3.8125 C 4.609375 -4.1875 4.5 -4.484375 4.28125 -4.703125 C 4.070312 -4.921875 3.773438 -5.03125 3.390625 -5.03125 C 3.035156 -5.03125 2.75 -4.914062 2.53125 -4.6875 C 2.320312 -4.46875 2.21875 -4.175781 2.21875 -3.8125 Z M 2.21875 -2.3125 "/></g></g></g><g fill="#ffffff" fill-opacity="1"><g transform="translate(262.880684, 198.100031)"><g><path d="M 0.671875 -3.84375 C 0.671875 -4.21875 0.722656 -4.550781 0.828125 -4.84375 C 0.929688 -5.132812 1.070312 -5.382812 1.25 -5.59375 C 1.4375 -5.800781 1.660156 -5.957031 1.921875 -6.0625 C 2.179688 -6.175781 2.46875 -6.234375 2.78125 -6.234375 C 3.226562 -6.234375 3.597656 -6.128906 3.890625 -5.921875 C 4.179688 -5.710938 4.359375 -5.425781 4.421875 -5.0625 L 4.53125 -5.0625 C 4.519531 -5.195312 4.515625 -5.328125 4.515625 -5.453125 C 4.492188 -5.554688 4.484375 -5.671875 4.484375 -5.796875 C 4.484375 -5.921875 4.484375 -6.03125 4.484375 -6.125 L 4.484375 -8.125 L 5.875 -8.125 L 5.875 0 L 4.53125 0 L 4.53125 -1.0625 L 4.421875 -1.0625 C 4.359375 -0.695312 4.179688 -0.410156 3.890625 -0.203125 C 3.597656 0.00390625 3.226562 0.109375 2.78125 0.109375 C 2.46875 0.109375 2.179688 0.0546875 1.921875 -0.046875 C 1.660156 -0.160156 1.4375 -0.320312 1.25 -0.53125 C 1.070312 -0.75 0.929688 -1.007812 0.828125 -1.3125 C 0.722656 -1.613281 0.671875 -1.945312 0.671875 -2.3125 Z M 3.28125 -1.109375 C 3.644531 -1.109375 3.9375 -1.21875 4.15625 -1.4375 C 4.375 -1.65625 4.484375 -1.945312 4.484375 -2.3125 L 4.484375 -3.8125 C 4.484375 -4.175781 4.375 -4.46875 4.15625 -4.6875 C 3.9375 -4.914062 3.644531 -5.03125 3.28125 -5.03125 C 2.90625 -5.03125 2.609375 -4.921875 2.390625 -4.703125 C 2.179688 -4.484375 2.078125 -4.1875 2.078125 -3.8125 L 2.078125 -2.34375 C 2.078125 -1.96875 2.179688 -1.664062 2.390625 -1.4375 C 2.609375 -1.21875 2.90625 -1.109375 3.28125 -1.109375 Z M 3.28125 -1.109375 "/></g></g></g><g fill="#ffffff" fill-opacity="1"><g transform="translate(269.563844, 198.100031)"><g><path d="M 0.5625 -1.71875 C 0.5625 -2.019531 0.617188 -2.289062 0.734375 -2.53125 C 0.847656 -2.769531 1.007812 -2.972656 1.21875 -3.140625 C 1.425781 -3.316406 1.675781 -3.453125 1.96875 -3.546875 C 2.257812 -3.640625 2.585938 -3.6875 2.953125 -3.6875 L 4.484375 -3.6875 L 4.484375 -4.21875 C 4.484375 -4.5 4.378906 -4.722656 4.171875 -4.890625 C 3.960938 -5.054688 3.671875 -5.140625 3.296875 -5.140625 C 2.992188 -5.140625 2.738281 -5.082031 2.53125 -4.96875 C 2.320312 -4.851562 2.1875 -4.703125 2.125 -4.515625 L 0.75 -4.515625 C 0.851562 -5.046875 1.128906 -5.460938 1.578125 -5.765625 C 2.035156 -6.078125 2.609375 -6.234375 3.296875 -6.234375 C 3.691406 -6.234375 4.046875 -6.1875 4.359375 -6.09375 C 4.679688 -6 4.953125 -5.863281 5.171875 -5.6875 C 5.398438 -5.519531 5.570312 -5.3125 5.6875 -5.0625 C 5.8125 -4.8125 5.875 -4.535156 5.875 -4.234375 L 5.875 0 L 4.5625 0 L 4.5625 -1.203125 L 4.484375 -1.203125 C 4.398438 -0.804688 4.1875 -0.488281 3.84375 -0.25 C 3.5 -0.0078125 3.070312 0.109375 2.5625 0.109375 C 1.957031 0.109375 1.472656 -0.0507812 1.109375 -0.375 C 0.742188 -0.707031 0.5625 -1.15625 0.5625 -1.71875 Z M 3.046875 -0.984375 C 3.460938 -0.984375 3.804688 -1.082031 4.078125 -1.28125 C 4.347656 -1.488281 4.484375 -1.75 4.484375 -2.0625 L 4.484375 -2.78125 L 2.96875 -2.78125 C 2.65625 -2.78125 2.40625 -2.703125 2.21875 -2.546875 C 2.039062 -2.390625 1.953125 -2.164062 1.953125 -1.875 C 1.953125 -1.59375 2.046875 -1.375 2.234375 -1.21875 C 2.429688 -1.0625 2.703125 -0.984375 3.046875 -0.984375 Z M 3.046875 -0.984375 "/></g></g></g><g fill="#ffffff" fill-opacity="1"><g transform="translate(276.247003, 198.100031)"><g><path d="M 0.5 -6.125 L 2.1875 -6.125 L 2.1875 -8.015625 L 3.59375 -8.015625 L 3.59375 -6.125 L 5.921875 -6.125 L 5.921875 -4.875 L 3.59375 -4.875 L 3.59375 -1.890625 C 3.59375 -1.703125 3.648438 -1.550781 3.765625 -1.4375 C 3.878906 -1.320312 4.039062 -1.265625 4.25 -1.265625 L 5.796875 -1.265625 L 5.796875 0 L 4.140625 0 C 3.535156 0 3.054688 -0.171875 2.703125 -0.515625 C 2.359375 -0.859375 2.1875 -1.316406 2.1875 -1.890625 L 2.1875 -4.875 L 0.5 -4.875 Z M 0.5 -6.125 "/></g></g></g><g fill="#ffffff" fill-opacity="1"><g transform="translate(282.930163, 198.100031)"><g><path d="M 3.34375 0.109375 C 2.9375 0.109375 2.566406 0.0507812 2.234375 -0.0625 C 1.910156 -0.175781 1.632812 -0.335938 1.40625 -0.546875 C 1.175781 -0.753906 0.992188 -1.003906 0.859375 -1.296875 C 0.734375 -1.597656 0.671875 -1.929688 0.671875 -2.296875 L 0.671875 -3.84375 C 0.671875 -4.207031 0.734375 -4.535156 0.859375 -4.828125 C 0.992188 -5.128906 1.175781 -5.382812 1.40625 -5.59375 C 1.632812 -5.800781 1.910156 -5.957031 2.234375 -6.0625 C 2.566406 -6.175781 2.9375 -6.234375 3.34375 -6.234375 C 3.738281 -6.234375 4.097656 -6.175781 4.421875 -6.0625 C 4.753906 -5.945312 5.035156 -5.785156 5.265625 -5.578125 C 5.492188 -5.367188 5.671875 -5.113281 5.796875 -4.8125 C 5.929688 -4.519531 6 -4.191406 6 -3.828125 L 6 -2.71875 L 2.0625 -2.71875 L 2.0625 -2.3125 C 2.0625 -1.90625 2.171875 -1.585938 2.390625 -1.359375 C 2.617188 -1.128906 2.9375 -1.015625 3.34375 -1.015625 C 3.644531 -1.015625 3.898438 -1.0625 4.109375 -1.15625 C 4.328125 -1.25 4.476562 -1.382812 4.5625 -1.5625 L 5.9375 -1.5625 C 5.875 -1.3125 5.765625 -1.082031 5.609375 -0.875 C 5.453125 -0.664062 5.257812 -0.488281 5.03125 -0.34375 C 4.800781 -0.195312 4.539062 -0.0820312 4.25 0 C 3.96875 0.0703125 3.664062 0.109375 3.34375 0.109375 Z M 4.625 -3.65625 L 4.625 -3.828125 C 4.625 -4.234375 4.507812 -4.550781 4.28125 -4.78125 C 4.0625 -5.007812 3.75 -5.125 3.34375 -5.125 C 2.9375 -5.125 2.617188 -5.007812 2.390625 -4.78125 C 2.171875 -4.550781 2.0625 -4.238281 2.0625 -3.84375 L 2.0625 -3.65625 Z M 4.625 -3.65625 "/></g></g></g><g fill="#ffffff" fill-opacity="1"><g transform="translate(289.613322, 198.100031)"><g><path d="M 0.671875 -3.84375 C 0.671875 -4.21875 0.722656 -4.550781 0.828125 -4.84375 C 0.929688 -5.132812 1.070312 -5.382812 1.25 -5.59375 C 1.4375 -5.800781 1.660156 -5.957031 1.921875 -6.0625 C 2.179688 -6.175781 2.46875 -6.234375 2.78125 -6.234375 C 3.226562 -6.234375 3.597656 -6.128906 3.890625 -5.921875 C 4.179688 -5.710938 4.359375 -5.425781 4.421875 -5.0625 L 4.53125 -5.0625 C 4.519531 -5.195312 4.515625 -5.328125 4.515625 -5.453125 C 4.492188 -5.554688 4.484375 -5.671875 4.484375 -5.796875 C 4.484375 -5.921875 4.484375 -6.03125 4.484375 -6.125 L 4.484375 -8.125 L 5.875 -8.125 L 5.875 0 L 4.53125 0 L 4.53125 -1.0625 L 4.421875 -1.0625 C 4.359375 -0.695312 4.179688 -0.410156 3.890625 -0.203125 C 3.597656 0.00390625 3.226562 0.109375 2.78125 0.109375 C 2.46875 0.109375 2.179688 0.0546875 1.921875 -0.046875 C 1.660156 -0.160156 1.4375 -0.320312 1.25 -0.53125 C 1.070312 -0.75 0.929688 -1.007812 0.828125 -1.3125 C 0.722656 -1.613281 0.671875 -1.945312 0.671875 -2.3125 Z M 3.28125 -1.109375 C 3.644531 -1.109375 3.9375 -1.21875 4.15625 -1.4375 C 4.375 -1.65625 4.484375 -1.945312 4.484375 -2.3125 L 4.484375 -3.8125 C 4.484375 -4.175781 4.375 -4.46875 4.15625 -4.6875 C 3.9375 -4.914062 3.644531 -5.03125 3.28125 -5.03125 C 2.90625 -5.03125 2.609375 -4.921875 2.390625 -4.703125 C 2.179688 -4.484375 2.078125 -4.1875 2.078125 -3.8125 L 2.078125 -2.34375 C 2.078125 -1.96875 2.179688 -1.664062 2.390625 -1.4375 C 2.609375 -1.21875 2.90625 -1.109375 3.28125 -1.109375 Z M 3.28125 -1.109375 "/></g></g></g><g fill="#ffffff" fill-opacity="1"><g transform="translate(296.303726, 198.100031)"><g><path d="M 1.28125 0.40625 C 1.632812 0.320312 1.957031 0.179688 2.25 -0.015625 C 2.539062 -0.222656 2.785156 -0.46875 2.984375 -0.75 C 3.191406 -1.039062 3.347656 -1.375 3.453125 -1.75 C 3.566406 -2.125 3.625 -2.523438 3.625 -2.953125 L 3.625 -5.0625 C 3.625 -5.5 3.566406 -5.90625 3.453125 -6.28125 C 3.335938 -6.65625 3.179688 -6.992188 2.984375 -7.296875 C 2.785156 -7.597656 2.539062 -7.847656 2.25 -8.046875 C 1.957031 -8.242188 1.632812 -8.382812 1.28125 -8.46875 L 1.28125 -9.40625 C 1.789062 -9.28125 2.25 -9.082031 2.65625 -8.8125 C 3.070312 -8.550781 3.425781 -8.234375 3.71875 -7.859375 C 4.007812 -7.484375 4.234375 -7.054688 4.390625 -6.578125 C 4.546875 -6.109375 4.625 -5.601562 4.625 -5.0625 L 4.625 -2.953125 C 4.625 -2.390625 4.546875 -1.875 4.390625 -1.40625 C 4.242188 -0.9375 4.023438 -0.515625 3.734375 -0.140625 C 3.453125 0.222656 3.101562 0.535156 2.6875 0.796875 C 2.28125 1.054688 1.8125 1.253906 1.28125 1.390625 Z M 1.28125 0.40625 "/></g></g></g><g transform="matrix(1, 0, 0, 1, 58, 224)"><g clip-path="url(#9fb1738e42)"><g fill="#ffffff" fill-opacity="1"><g transform="translate(0.443252, 28.226999)"><g><path d="M 1.4375 -15.859375 L 4.1875 -15.859375 L 8.046875 -4.640625 C 8.203125 -4.203125 8.316406 -3.8125 8.390625 -3.46875 C 8.472656 -3.132812 8.53125 -2.851562 8.5625 -2.625 C 8.601562 -2.332031 8.625 -2.082031 8.625 -1.875 L 8.890625 -1.875 C 8.867188 -2.082031 8.875 -2.332031 8.90625 -2.625 C 8.945312 -2.851562 8.992188 -3.132812 9.046875 -3.46875 C 9.109375 -3.8125 9.21875 -4.203125 9.375 -4.640625 L 13.03125 -15.859375 L 15.859375 -15.859375 L 10.1875 0 L 7.234375 0 Z M 1.4375 -15.859375 "/></g></g></g><g fill="#ffffff" fill-opacity="1"><g transform="translate(17.74685, 28.226999)"><g><path d="M 14.796875 -15.28125 C 14.796875 -13.726562 14.367188 -12.222656 13.515625 -10.765625 C 12.660156 -9.316406 11.300781 -7.785156 9.4375 -6.171875 L 5.9375 -3.140625 C 5.84375 -3.066406 5.738281 -2.988281 5.625 -2.90625 C 5.507812 -2.832031 5.394531 -2.757812 5.28125 -2.6875 C 5.125 -2.582031 4.976562 -2.492188 4.84375 -2.421875 L 4.84375 -2.3125 C 5.15625 -2.332031 5.453125 -2.34375 5.734375 -2.34375 C 6.003906 -2.351562 6.28125 -2.359375 6.5625 -2.359375 C 6.84375 -2.359375 7.097656 -2.359375 7.328125 -2.359375 L 15 -2.359375 L 15 0 L 2.015625 0 L 2.015625 -2.890625 L 7.5 -7.578125 C 8.320312 -8.296875 9.023438 -8.972656 9.609375 -9.609375 C 10.203125 -10.242188 10.679688 -10.867188 11.046875 -11.484375 C 11.410156 -12.097656 11.675781 -12.710938 11.84375 -13.328125 C 12.019531 -13.941406 12.109375 -14.585938 12.109375 -15.265625 C 12.109375 -16.335938 11.785156 -17.1875 11.140625 -17.8125 C 10.503906 -18.4375 9.632812 -18.75 8.53125 -18.75 C 7.320312 -18.75 6.359375 -18.429688 5.640625 -17.796875 C 4.921875 -17.160156 4.5625 -16.320312 4.5625 -15.28125 L 1.875 -15.28125 C 1.914062 -16.144531 2.097656 -16.929688 2.421875 -17.640625 C 2.742188 -18.359375 3.195312 -18.96875 3.78125 -19.46875 C 4.375 -19.96875 5.066406 -20.359375 5.859375 -20.640625 C 6.660156 -20.921875 7.550781 -21.0625 8.53125 -21.0625 C 9.5 -21.0625 10.363281 -20.925781 11.125 -20.65625 C 11.894531 -20.382812 12.550781 -20 13.09375 -19.5 C 13.632812 -19 14.050781 -18.390625 14.34375 -17.671875 C 14.644531 -16.960938 14.796875 -16.164062 14.796875 -15.28125 Z M 14.796875 -15.28125 "/></g></g></g></g></g><g fill="#ffffff" fill-opacity="1"><g transform="translate(152.044149, 258.678476)"><g><path d="M 9.671875 5.0625 L 9.671875 -38.21875 L 20.953125 -38.21875 L 20.953125 -34.53125 L 13.8125 -34.53125 L 13.8125 1.375 L 20.953125 1.375 L 20.953125 5.0625 Z M 9.671875 5.0625 "/></g></g></g><g fill="#ffffff" fill-opacity="1"><g transform="translate(179.668475, 258.678476)"><g/></g></g><g fill="#ffffff" fill-opacity="1"><g transform="translate(207.292791, 258.678476)"><g/></g></g><g fill="#ffffff" fill-opacity="1"><g transform="translate(234.917106, 258.678476)"><g/></g></g><g fill="#ffffff" fill-opacity="1"><g transform="translate(262.541421, 258.678476)"><g/></g></g><g fill="#ffffff" fill-opacity="1"><g transform="translate(290.165736, 258.678476)"><g/></g></g><g fill="#ffffff" fill-opacity="1"><g transform="translate(317.790051, 258.678476)"><g/></g></g><g fill="#ffffff" fill-opacity="1"><g transform="translate(345.414367, 258.678476)"><g/></g></g><g fill="#ffffff" fill-opacity="1"><g transform="translate(373.03867, 258.678476)"><g/></g></g><g fill="#ffffff" fill-opacity="1"><g transform="translate(400.662996, 258.678476)"><g/></g></g><g fill="#ffffff" fill-opacity="1"><g transform="translate(428.287323, 258.678476)"><g/></g></g><g fill="#ffffff" fill-opacity="1"><g transform="translate(455.911626, 258.678476)"><g/></g></g><g fill="#ffffff" fill-opacity="1"><g transform="translate(483.53607, 258.678476)"><g><path d="M 6.90625 5.0625 L 6.90625 1.375 L 14.046875 1.375 L 14.046875 -34.53125 L 6.90625 -34.53125 L 6.90625 -38.21875 L 18.1875 -38.21875 L 18.1875 5.0625 Z M 6.90625 5.0625 "/></g></g></g><g transform="matrix(1, 0, 0, 1, 144, 57)"><g clip-path="url(#42af3c0d7b)"><g clip-path="url(#45d8b53c0b)"><g transform="matrix(1, 0, 0, 1, 1, 0)"><g clip-path="url(#e87f006bff)"><g clip-path="url(#ea383a0b9d)"><g mask="url(#9801ddf04d)"><g><g clip-path="url(#9e1b6b8aa4)"><g clip-path="url(#a9d03c01d7)"><path fill="url(#2e7995dfe5)" d="M 41.511719 6.25 L 41.511719 259 L 354.402344 259 L 354.402344 6.25 Z M 41.511719 6.25 " fill-rule="nonzero"/></g></g></g></g></g></g></g></g></g></g><g transform="matrix(1, 0, 0, 1, 328, 254)"><g clip-path="url(#4b3efc2c71)"><g fill="#ffffff" fill-opacity="1"><g transform="translate(0.981795, 11.849109)"><g><path d="M 0.734375 -6.578125 L 1.59375 -6.578125 L 1.59375 -5.609375 L 1.671875 -5.609375 C 1.703125 -5.960938 1.8125 -6.234375 2 -6.421875 C 2.195312 -6.609375 2.457031 -6.703125 2.78125 -6.703125 C 3.09375 -6.703125 3.351562 -6.609375 3.5625 -6.421875 C 3.769531 -6.234375 3.914062 -5.960938 4 -5.609375 L 4.0625 -5.609375 C 4.09375 -5.960938 4.203125 -6.234375 4.390625 -6.421875 C 4.585938 -6.609375 4.84375 -6.703125 5.15625 -6.703125 C 5.5625 -6.703125 5.875 -6.550781 6.09375 -6.25 C 6.320312 -5.957031 6.4375 -5.546875 6.4375 -5.015625 L 6.4375 0 L 5.5 0 L 5.5 -5.015625 C 5.5 -5.296875 5.4375 -5.507812 5.3125 -5.65625 C 5.195312 -5.800781 5.019531 -5.875 4.78125 -5.875 C 4.300781 -5.875 4.0625 -5.566406 4.0625 -4.953125 L 4.0625 0 L 3.125 0 L 3.125 -5.015625 C 3.125 -5.242188 3.066406 -5.441406 2.953125 -5.609375 C 2.847656 -5.785156 2.664062 -5.875 2.40625 -5.875 C 2.164062 -5.875 1.976562 -5.785156 1.84375 -5.609375 C 1.726562 -5.453125 1.671875 -5.234375 1.671875 -4.953125 L 1.671875 0 L 0.734375 0 Z M 0.734375 -6.578125 "/></g></g></g><g fill="#ffffff" fill-opacity="1"><g transform="translate(8.159954, 11.849109)"><g><path d="M 3.40625 0.125 C 2.71875 0.125 2.144531 -0.03125 1.6875 -0.34375 C 1.238281 -0.664062 0.984375 -1.085938 0.921875 -1.609375 L 2.0625 -1.609375 C 2.101562 -1.378906 2.25 -1.191406 2.5 -1.046875 C 2.75 -0.910156 3.050781 -0.84375 3.40625 -0.84375 L 3.75 -0.84375 C 4.175781 -0.84375 4.507812 -0.929688 4.75 -1.109375 C 4.988281 -1.285156 5.109375 -1.523438 5.109375 -1.828125 C 5.109375 -2.347656 4.742188 -2.664062 4.015625 -2.78125 L 3.015625 -2.921875 C 2.367188 -3.015625 1.882812 -3.21875 1.5625 -3.53125 C 1.25 -3.84375 1.09375 -4.273438 1.09375 -4.828125 C 1.09375 -5.421875 1.300781 -5.878906 1.71875 -6.203125 C 2.132812 -6.535156 2.71875 -6.703125 3.46875 -6.703125 L 3.8125 -6.703125 C 4.125 -6.703125 4.414062 -6.660156 4.6875 -6.578125 C 4.957031 -6.503906 5.195312 -6.390625 5.40625 -6.234375 C 5.613281 -6.085938 5.78125 -5.910156 5.90625 -5.703125 C 6.039062 -5.503906 6.128906 -5.28125 6.171875 -5.03125 L 5.03125 -5.03125 C 4.988281 -5.238281 4.851562 -5.410156 4.625 -5.546875 C 4.40625 -5.679688 4.132812 -5.75 3.8125 -5.75 L 3.46875 -5.75 C 3.0625 -5.75 2.742188 -5.664062 2.515625 -5.5 C 2.285156 -5.34375 2.171875 -5.101562 2.171875 -4.78125 C 2.171875 -4.53125 2.25 -4.335938 2.40625 -4.203125 C 2.5625 -4.078125 2.816406 -3.988281 3.171875 -3.9375 L 4.171875 -3.796875 C 4.878906 -3.691406 5.394531 -3.484375 5.71875 -3.171875 C 6.039062 -2.859375 6.203125 -2.414062 6.203125 -1.84375 C 6.203125 -1.226562 5.988281 -0.742188 5.5625 -0.390625 C 5.132812 -0.046875 4.53125 0.125 3.75 0.125 Z M 3.40625 0.125 "/></g></g></g><g fill="#ffffff" fill-opacity="1"><g transform="translate(15.338113, 11.849109)"><g><path d="M 0.875 -4.1875 C 0.875 -4.570312 0.925781 -4.921875 1.03125 -5.234375 C 1.132812 -5.546875 1.28125 -5.804688 1.46875 -6.015625 C 1.664062 -6.234375 1.90625 -6.398438 2.1875 -6.515625 C 2.46875 -6.640625 2.78125 -6.703125 3.125 -6.703125 C 3.601562 -6.703125 4.007812 -6.585938 4.34375 -6.359375 C 4.675781 -6.128906 4.90625 -5.804688 5.03125 -5.390625 L 5.109375 -5.390625 L 5.109375 -6.578125 L 6.125 -6.578125 L 6.125 -0.484375 C 6.125 0.296875 5.894531 0.898438 5.4375 1.328125 C 4.988281 1.753906 4.351562 1.96875 3.53125 1.96875 L 1.921875 1.96875 L 1.921875 1 L 3.53125 1 C 4.007812 1 4.378906 0.867188 4.640625 0.609375 C 4.910156 0.359375 5.046875 -0.00390625 5.046875 -0.484375 L 5.046875 -0.71875 L 5.09375 -1.921875 L 5.03125 -1.921875 C 4.90625 -1.492188 4.675781 -1.164062 4.34375 -0.9375 C 4.007812 -0.707031 3.601562 -0.59375 3.125 -0.59375 C 2.78125 -0.59375 2.46875 -0.648438 2.1875 -0.765625 C 1.914062 -0.890625 1.679688 -1.0625 1.484375 -1.28125 C 1.296875 -1.5 1.144531 -1.757812 1.03125 -2.0625 C 0.925781 -2.375 0.875 -2.722656 0.875 -3.109375 Z M 1.96875 -3.109375 C 1.96875 -2.617188 2.101562 -2.234375 2.375 -1.953125 C 2.65625 -1.671875 3.035156 -1.53125 3.515625 -1.53125 C 3.992188 -1.53125 4.367188 -1.671875 4.640625 -1.953125 C 4.910156 -2.234375 5.046875 -2.617188 5.046875 -3.109375 L 5.046875 -4.1875 C 5.046875 -4.6875 4.910156 -5.070312 4.640625 -5.34375 C 4.367188 -5.625 3.992188 -5.765625 3.515625 -5.765625 C 3.035156 -5.765625 2.65625 -5.625 2.375 -5.34375 C 2.101562 -5.070312 1.96875 -4.6875 1.96875 -4.1875 Z M 1.96875 -3.109375 "/></g></g></g><g fill="#ffffff" fill-opacity="1"><g transform="translate(22.516272, 11.849109)"><g><path d="M 1.078125 -0.953125 L 3.390625 -0.953125 L 3.390625 -7 C 3.390625 -7.0625 3.390625 -7.132812 3.390625 -7.21875 C 3.398438 -7.300781 3.40625 -7.378906 3.40625 -7.453125 C 3.40625 -7.523438 3.40625 -7.585938 3.40625 -7.640625 C 3.40625 -7.691406 3.40625 -7.71875 3.40625 -7.71875 L 3.390625 -7.71875 C 3.328125 -7.664062 3.269531 -7.625 3.21875 -7.59375 C 3.164062 -7.550781 3.113281 -7.507812 3.0625 -7.46875 C 3.019531 -7.425781 2.972656 -7.390625 2.921875 -7.359375 L 1.234375 -6.21875 L 1.234375 -7.296875 L 3.09375 -8.625 L 4.46875 -8.625 L 4.46875 -0.953125 L 6.40625 -0.953125 L 6.40625 0 L 1.078125 0 Z M 1.078125 -0.953125 "/></g></g></g></g></g><g mask="url(#00889c5f3e)"><g transform="matrix(1, 0, 0, 1, 66, 109)"><g clip-path="url(#def21e9df1)"><g clip-path="url(#4644f3107c)"><g><g clip-path="url(#56c0a31e51)"><g fill="#585858" fill-opacity="1"><g transform="translate(16.90363, 13.052255)"><g><path d="M -11.296875 -4.890625 L -11.296875 -6.8125 L -7.59375 -3.890625 C -7.488281 -3.796875 -7.382812 -3.703125 -7.28125 -3.609375 C -7.1875 -3.523438 -7.101562 -3.441406 -7.03125 -3.359375 C -6.945312 -3.265625 -6.863281 -3.171875 -6.78125 -3.078125 L -6.609375 -3.078125 C -6.617188 -3.210938 -6.628906 -3.351562 -6.640625 -3.5 C -6.660156 -3.632812 -6.671875 -3.773438 -6.671875 -3.921875 C -6.679688 -4.066406 -6.6875 -4.203125 -6.6875 -4.328125 L -6.6875 -10.296875 L -5.234375 -10.296875 L -5.234375 -4.328125 C -5.234375 -4.035156 -5.253906 -3.757812 -5.296875 -3.5 C -5.304688 -3.351562 -5.316406 -3.210938 -5.328125 -3.078125 L -5.171875 -3.078125 C -5.097656 -3.160156 -5.019531 -3.242188 -4.9375 -3.328125 C -4.863281 -3.398438 -4.773438 -3.484375 -4.671875 -3.578125 C -4.566406 -3.679688 -4.445312 -3.785156 -4.3125 -3.890625 L -0.625 -6.8125 L -0.625 -4.90625 L -5.953125 -0.71875 Z M -11.296875 -4.890625 "/></g></g></g></g></g></g></g></g></g><g mask="url(#a59c4ecb04)"><g transform="matrix(1, 0, 0, 1, 66, 194)"><g clip-path="url(#4b7d04880f)"><g clip-path="url(#053d0f90b6)"><g><g clip-path="url(#339e71ae17)"><g fill="#585858" fill-opacity="1"><g transform="translate(16.90363, 12.451344)"><g><path d="M -11.296875 -4.890625 L -11.296875 -6.8125 L -7.59375 -3.890625 C -7.488281 -3.796875 -7.382812 -3.703125 -7.28125 -3.609375 C -7.1875 -3.523438 -7.101562 -3.441406 -7.03125 -3.359375 C -6.945312 -3.265625 -6.863281 -3.171875 -6.78125 -3.078125 L -6.609375 -3.078125 C -6.617188 -3.210938 -6.628906 -3.351562 -6.640625 -3.5 C -6.660156 -3.632812 -6.671875 -3.773438 -6.671875 -3.921875 C -6.679688 -4.066406 -6.6875 -4.203125 -6.6875 -4.328125 L -6.6875 -10.296875 L -5.234375 -10.296875 L -5.234375 -4.328125 C -5.234375 -4.035156 -5.253906 -3.757812 -5.296875 -3.5 C -5.304688 -3.351562 -5.316406 -3.210938 -5.328125 -3.078125 L -5.171875 -3.078125 C -5.097656 -3.160156 -5.019531 -3.242188 -4.9375 -3.328125 C -4.863281 -3.398438 -4.773438 -3.484375 -4.671875 -3.578125 C -4.566406 -3.679688 -4.445312 -3.785156 -4.3125 -3.890625 L -0.625 -6.8125 L -0.625 -4.90625 L -5.953125 -0.71875 Z M -11.296875 -4.890625 "/></g></g></g></g></g></g></g></g></g></svg>