<svg xmlns="http://www.w3.org/2000/svg" xmlns:xlink="http://www.w3.org/1999/xlink" width="1466" zoomAndPan="magnify" viewBox="0 0 1099.9199 147.750002" height="197" preserveAspectRatio="xMidYMid meet" version="1.0"><defs><g/><clipPath id="bc493cde9f"><path d="M 0.890625 3 L 1097 3 L 1097 144 L 0.890625 144 Z M 0.890625 3 " clip-rule="nonzero"/></clipPath><clipPath id="6038f2c200"><rect x="0" width="1097" y="0" height="141"/></clipPath></defs><g clip-path="url(#bc493cde9f)"><g transform="matrix(1, 0, 0, 1, 0.000000000000000111, 3)"><g clip-path="url(#6038f2c200)"><g fill="#000000" fill-opacity="1"><g transform="translate(-10.481612, 113.157525)"><g><path d="M 21.5625 12.6875 L 21.5625 -95.703125 L 53.84375 -95.703125 L 53.84375 -82.4375 L 35.96875 -82.4375 L 35.96875 -0.578125 L 53.84375 -0.578125 L 53.84375 12.6875 Z M 21.5625 12.6875 "/></g></g></g><g fill="#000000" fill-opacity="1"><g transform="translate(58.695603, 113.157525)"><g><path d="M 19.140625 -40.9375 C 19.140625 -43.164062 19.519531 -45.203125 20.28125 -47.046875 C 21.050781 -48.890625 22.128906 -50.484375 23.515625 -51.828125 C 24.898438 -53.171875 26.535156 -54.226562 28.421875 -55 C 30.304688 -55.769531 32.363281 -56.15625 34.59375 -56.15625 C 36.820312 -56.15625 38.875 -55.769531 40.75 -55 C 42.632812 -54.226562 44.269531 -53.171875 45.65625 -51.828125 C 47.039062 -50.484375 48.113281 -48.890625 48.875 -47.046875 C 49.644531 -45.203125 50.03125 -43.164062 50.03125 -40.9375 C 50.03125 -38.78125 49.644531 -36.78125 48.875 -34.9375 C 48.113281 -33.09375 47.039062 -31.492188 45.65625 -30.140625 C 44.269531 -28.796875 42.632812 -27.757812 40.75 -27.03125 C 38.875 -26.300781 36.820312 -25.9375 34.59375 -25.9375 C 32.363281 -25.9375 30.304688 -26.300781 28.421875 -27.03125 C 26.535156 -27.757812 24.898438 -28.796875 23.515625 -30.140625 C 22.128906 -31.492188 21.050781 -33.09375 20.28125 -34.9375 C 19.519531 -36.78125 19.140625 -38.78125 19.140625 -40.9375 Z M 19.140625 -40.9375 "/></g></g></g><g fill="#000000" fill-opacity="1"><g transform="translate(127.872818, 113.157525)"><g><path d="M 15.5625 12.6875 L 15.5625 -0.578125 L 33.4375 -0.578125 L 33.4375 -82.4375 L 15.5625 -82.4375 L 15.5625 -95.703125 L 47.96875 -95.703125 L 47.96875 12.6875 Z M 15.5625 12.6875 "/></g></g></g><g fill="#000000" fill-opacity="1"><g transform="translate(197.054323, 113.157525)"><g/></g></g><g fill="#000000" fill-opacity="1"><g transform="translate(266.231538, 113.157525)"><g><path d="M 10.375 -63.40625 L 20.75 -63.40625 L 20.75 -22.375 C 20.75 -12.757812 25.320312 -7.953125 34.46875 -7.953125 C 43.769531 -7.953125 48.421875 -12.757812 48.421875 -22.375 L 48.421875 -63.40625 L 58.796875 -63.40625 L 58.796875 -22.375 C 58.796875 -14.832031 56.703125 -9.023438 52.515625 -4.953125 C 48.328125 -0.878906 42.3125 1.15625 34.46875 1.15625 C 26.78125 1.15625 20.84375 -0.898438 16.65625 -5.015625 C 12.46875 -9.128906 10.375 -14.914062 10.375 -22.375 Z M 10.375 -63.40625 "/></g></g></g><g fill="#000000" fill-opacity="1"><g transform="translate(335.408753, 113.157525)"><g><path d="M 35.96875 -84.171875 L 35.96875 -18.453125 C 35.96875 -15.609375 36.734375 -13.394531 38.265625 -11.8125 C 39.804688 -10.238281 41.925781 -9.453125 44.625 -9.453125 L 63.40625 -9.453125 L 63.40625 0 L 44.625 0 C 38.695312 0 34.039062 -1.628906 30.65625 -4.890625 C 27.28125 -8.160156 25.59375 -12.679688 25.59375 -18.453125 L 25.59375 -74.71875 L 4.609375 -74.71875 L 4.609375 -84.171875 Z M 35.96875 -84.171875 "/></g></g></g><g fill="#000000" fill-opacity="1"><g transform="translate(404.585969, 113.157525)"><g><path d="M 6.921875 -63.40625 L 25.359375 -63.40625 L 25.359375 -83.015625 L 35.734375 -83.015625 L 35.734375 -63.40625 L 60.53125 -63.40625 L 60.53125 -53.953125 L 35.734375 -53.953125 L 35.734375 -16.375 C 35.734375 -14.21875 36.40625 -12.523438 37.75 -11.296875 C 39.101562 -10.066406 40.929688 -9.453125 43.234375 -9.453125 L 59.375 -9.453125 L 59.375 0 L 43.234375 0 C 37.773438 0 33.429688 -1.5 30.203125 -4.5 C 26.972656 -7.5 25.359375 -11.457031 25.359375 -16.375 L 25.359375 -53.953125 L 6.921875 -53.953125 Z M 6.921875 -63.40625 "/></g></g></g><g fill="#000000" fill-opacity="1"><g transform="translate(473.763184, 113.157525)"><g><path d="M 12.90625 -63.40625 L 22.71875 -63.40625 L 22.71875 -52.453125 L 23.640625 -52.453125 C 24.640625 -56.222656 26.710938 -59.179688 29.859375 -61.328125 C 33.015625 -63.484375 36.894531 -64.5625 41.5 -64.5625 C 48.1875 -64.5625 53.429688 -62.46875 57.234375 -58.28125 C 61.046875 -54.09375 62.953125 -48.347656 62.953125 -41.046875 L 62.953125 -37.46875 L 52.578125 -37.46875 L 52.578125 -39.78125 C 52.578125 -44.769531 51.328125 -48.628906 48.828125 -51.359375 C 46.328125 -54.085938 42.769531 -55.453125 38.15625 -55.453125 C 33.625 -55.453125 30.015625 -54.050781 27.328125 -51.25 C 24.640625 -48.445312 23.296875 -44.625 23.296875 -39.78125 L 23.296875 0 L 12.90625 0 Z M 12.90625 -63.40625 "/></g></g></g><g fill="#000000" fill-opacity="1"><g transform="translate(542.940416, 113.157525)"><g><path d="M 7.265625 -18.453125 C 7.265625 -21.441406 7.78125 -24.144531 8.8125 -26.5625 C 9.851562 -28.988281 11.351562 -31.046875 13.3125 -32.734375 C 15.269531 -34.429688 17.632812 -35.738281 20.40625 -36.65625 C 23.175781 -37.582031 26.289062 -38.046875 29.75 -38.046875 L 48.65625 -38.046875 L 48.65625 -43.234375 C 48.65625 -47.148438 47.367188 -50.203125 44.796875 -52.390625 C 42.222656 -54.585938 38.515625 -55.6875 33.671875 -55.6875 C 30.128906 -55.6875 27.109375 -55.03125 24.609375 -53.71875 C 22.117188 -52.414062 20.445312 -50.613281 19.59375 -48.3125 L 9.21875 -48.3125 C 10.300781 -53.300781 13.050781 -57.253906 17.46875 -60.171875 C 21.882812 -63.097656 27.359375 -64.5625 33.890625 -64.5625 C 41.734375 -64.5625 47.882812 -62.734375 52.34375 -59.078125 C 56.800781 -55.429688 59.03125 -50.34375 59.03125 -43.8125 L 59.03125 0 L 49.578125 0 L 49.578125 -12.109375 L 48.65625 -12.109375 C 47.65625 -8.035156 45.3125 -4.804688 41.625 -2.421875 C 37.9375 -0.0351562 33.4375 1.15625 28.125 1.15625 C 21.75 1.15625 16.675781 -0.609375 12.90625 -4.140625 C 9.144531 -7.679688 7.265625 -12.453125 7.265625 -18.453125 Z M 30.4375 -7.375 C 33.050781 -7.375 35.472656 -7.71875 37.703125 -8.40625 C 39.929688 -9.101562 41.851562 -10.085938 43.46875 -11.359375 C 45.082031 -12.628906 46.347656 -14.109375 47.265625 -15.796875 C 48.191406 -17.484375 48.65625 -19.328125 48.65625 -21.328125 L 48.65625 -29.984375 L 29.984375 -29.984375 C 26.140625 -29.984375 23.117188 -28.984375 20.921875 -26.984375 C 18.734375 -24.984375 17.640625 -22.210938 17.640625 -18.671875 C 17.640625 -15.140625 18.753906 -12.375 20.984375 -10.375 C 23.210938 -8.375 26.363281 -7.375 30.4375 -7.375 Z M 30.4375 -7.375 "/></g></g></g><g fill="#000000" fill-opacity="1"><g transform="translate(612.117615, 113.157525)"><g><path d="M 35.515625 1.15625 C 31.585938 1.15625 28.066406 0.578125 24.953125 -0.578125 C 21.847656 -1.734375 19.195312 -3.382812 17 -5.53125 C 14.8125 -7.6875 13.117188 -10.300781 11.921875 -13.375 C 10.734375 -16.445312 10.140625 -19.867188 10.140625 -23.640625 L 10.140625 -39.78125 C 10.140625 -43.539062 10.734375 -46.957031 11.921875 -50.03125 C 13.117188 -53.113281 14.8125 -55.726562 17 -57.875 C 19.195312 -60.03125 21.847656 -61.679688 24.953125 -62.828125 C 28.066406 -63.984375 31.585938 -64.5625 35.515625 -64.5625 C 42.503906 -64.5625 48.25 -62.660156 52.75 -58.859375 C 57.25 -55.054688 59.957031 -49.847656 60.875 -43.234375 L 50.5 -43.234375 C 49.957031 -46.921875 48.320312 -49.859375 45.59375 -52.046875 C 42.863281 -54.242188 39.503906 -55.34375 35.515625 -55.34375 C 30.898438 -55.34375 27.242188 -53.957031 24.546875 -51.1875 C 21.859375 -48.425781 20.515625 -44.625 20.515625 -39.78125 L 20.515625 -23.640625 C 20.515625 -18.796875 21.84375 -14.988281 24.5 -12.21875 C 27.15625 -9.457031 30.828125 -8.078125 35.515625 -8.078125 C 39.503906 -8.078125 42.863281 -9.171875 45.59375 -11.359375 C 48.320312 -13.546875 49.957031 -16.484375 50.5 -20.171875 L 60.875 -20.171875 C 59.875 -13.484375 57.125 -8.253906 52.625 -4.484375 C 48.132812 -0.722656 42.429688 1.15625 35.515625 1.15625 Z M 35.515625 1.15625 "/></g></g></g><g fill="#000000" fill-opacity="1"><g transform="translate(681.294814, 113.157525)"><g><path d="M 19.59375 -23.640625 C 19.59375 -18.796875 20.921875 -14.988281 23.578125 -12.21875 C 26.234375 -9.457031 29.90625 -8.078125 34.59375 -8.078125 C 39.195312 -8.078125 42.84375 -9.457031 45.53125 -12.21875 C 48.226562 -14.988281 49.578125 -18.796875 49.578125 -23.640625 L 49.578125 -39.78125 C 49.578125 -44.625 48.226562 -48.425781 45.53125 -51.1875 C 42.84375 -53.957031 39.195312 -55.34375 34.59375 -55.34375 C 29.976562 -55.34375 26.320312 -53.957031 23.625 -51.1875 C 20.9375 -48.425781 19.59375 -44.625 19.59375 -39.78125 Z M 9.21875 -39.78125 C 9.21875 -43.625 9.8125 -47.0625 11 -50.09375 C 12.195312 -53.132812 13.890625 -55.726562 16.078125 -57.875 C 18.273438 -60.03125 20.925781 -61.679688 24.03125 -62.828125 C 27.144531 -63.984375 30.664062 -64.5625 34.59375 -64.5625 C 42.425781 -64.5625 48.609375 -62.367188 53.140625 -57.984375 C 57.679688 -53.609375 59.953125 -47.578125 59.953125 -39.890625 L 59.953125 -23.640625 C 59.953125 -19.796875 59.375 -16.332031 58.21875 -13.25 C 57.070312 -10.175781 55.398438 -7.582031 53.203125 -5.46875 C 51.015625 -3.363281 48.34375 -1.734375 45.1875 -0.578125 C 42.039062 0.578125 38.507812 1.15625 34.59375 1.15625 C 30.664062 1.15625 27.144531 0.578125 24.03125 -0.578125 C 20.925781 -1.734375 18.273438 -3.382812 16.078125 -5.53125 C 13.890625 -7.6875 12.195312 -10.300781 11 -13.375 C 9.8125 -16.445312 9.21875 -19.867188 9.21875 -23.640625 Z M 9.21875 -39.78125 "/></g></g></g><g fill="#000000" fill-opacity="1"><g transform="translate(750.472046, 113.157525)"><g><path d="M 10.140625 0 L 10.140625 -63.40625 L 19.953125 -63.40625 L 19.953125 -52.453125 L 20.875 -52.453125 C 21.875 -56.296875 23.890625 -59.273438 26.921875 -61.390625 C 29.953125 -63.503906 33.738281 -64.5625 38.28125 -64.5625 C 41.425781 -64.5625 44.285156 -64.023438 46.859375 -62.953125 C 49.441406 -61.878906 51.632812 -60.359375 53.4375 -58.390625 C 55.25 -56.429688 56.648438 -54.085938 57.640625 -51.359375 C 58.640625 -48.628906 59.140625 -45.578125 59.140625 -42.203125 L 59.140625 0 L 48.765625 0 L 48.765625 -40.46875 C 48.765625 -45.3125 47.535156 -49.078125 45.078125 -51.765625 C 42.617188 -54.453125 39.195312 -55.796875 34.8125 -55.796875 C 30.4375 -55.796875 26.957031 -54.351562 24.375 -51.46875 C 21.800781 -48.59375 20.515625 -44.695312 20.515625 -39.78125 L 20.515625 0 Z M 10.140625 0 "/></g></g></g><g fill="#000000" fill-opacity="1"><g transform="translate(819.649278, 113.157525)"><g><path d="M 6.921875 -63.40625 L 25.359375 -63.40625 L 25.359375 -83.015625 L 35.734375 -83.015625 L 35.734375 -63.40625 L 60.53125 -63.40625 L 60.53125 -53.953125 L 35.734375 -53.953125 L 35.734375 -16.375 C 35.734375 -14.21875 36.40625 -12.523438 37.75 -11.296875 C 39.101562 -10.066406 40.929688 -9.453125 43.234375 -9.453125 L 59.375 -9.453125 L 59.375 0 L 43.234375 0 C 37.773438 0 33.429688 -1.5 30.203125 -4.5 C 26.972656 -7.5 25.359375 -11.457031 25.359375 -16.375 L 25.359375 -53.953125 L 6.921875 -53.953125 Z M 6.921875 -63.40625 "/></g></g></g><g fill="#000000" fill-opacity="1"><g transform="translate(888.82651, 113.157525)"><g><path d="M 34.59375 1.15625 C 26.675781 1.15625 20.46875 -0.992188 15.96875 -5.296875 C 11.46875 -9.609375 9.21875 -15.53125 9.21875 -23.0625 L 9.21875 -40.359375 C 9.21875 -47.890625 11.46875 -53.804688 15.96875 -58.109375 C 20.46875 -62.410156 26.675781 -64.5625 34.59375 -64.5625 C 42.507812 -64.5625 48.710938 -62.410156 53.203125 -58.109375 C 57.703125 -53.804688 59.953125 -47.890625 59.953125 -40.359375 L 59.953125 -28.703125 L 19.59375 -28.703125 L 19.59375 -23.640625 C 19.59375 -18.796875 20.921875 -14.988281 23.578125 -12.21875 C 26.234375 -9.457031 29.90625 -8.078125 34.59375 -8.078125 C 38.050781 -8.078125 41.046875 -8.613281 43.578125 -9.6875 C 46.117188 -10.757812 48.003906 -12.332031 49.234375 -14.40625 L 59.609375 -14.40625 C 58.296875 -9.5625 55.390625 -5.753906 50.890625 -2.984375 C 46.398438 -0.222656 40.96875 1.15625 34.59375 1.15625 Z M 49.578125 -37.359375 L 49.578125 -40.359375 C 49.578125 -45.117188 48.269531 -48.804688 45.65625 -51.421875 C 43.039062 -54.035156 39.351562 -55.34375 34.59375 -55.34375 C 29.820312 -55.34375 26.128906 -54.035156 23.515625 -51.421875 C 20.898438 -48.804688 19.59375 -45.117188 19.59375 -40.359375 L 19.59375 -37.359375 Z M 49.578125 -37.359375 "/></g></g></g><g fill="#000000" fill-opacity="1"><g transform="translate(958.003675, 113.157525)"><g><path d="M 5.53125 0 L 28.484375 -32.515625 L 6.921875 -63.40625 L 19.375 -63.40625 L 32.625 -43.234375 C 33.007812 -42.691406 33.316406 -42.171875 33.546875 -41.671875 C 33.773438 -41.179688 33.96875 -40.742188 34.125 -40.359375 C 34.28125 -39.972656 34.394531 -39.585938 34.46875 -39.203125 L 34.9375 -39.203125 C 35.007812 -39.585938 35.125 -39.972656 35.28125 -40.359375 C 35.4375 -40.742188 35.628906 -41.179688 35.859375 -41.671875 C 36.085938 -42.171875 36.394531 -42.691406 36.78125 -43.234375 L 50.03125 -63.40625 L 62.375 -63.40625 L 40.8125 -32.625 L 63.640625 0 L 51.1875 0 L 37.015625 -21.4375 C 36.703125 -21.976562 36.410156 -22.5 36.140625 -23 C 35.867188 -23.5 35.617188 -23.976562 35.390625 -24.4375 C 35.160156 -24.976562 34.96875 -25.476562 34.8125 -25.9375 L 34.359375 -25.9375 C 34.203125 -25.40625 34.007812 -24.90625 33.78125 -24.4375 C 33.550781 -23.976562 33.320312 -23.476562 33.09375 -22.9375 C 32.863281 -22.40625 32.554688 -21.90625 32.171875 -21.4375 L 17.875 0 Z M 5.53125 0 "/></g></g></g><g fill="#000000" fill-opacity="1"><g transform="translate(1027.180907, 113.157525)"><g><path d="M 6.921875 -63.40625 L 25.359375 -63.40625 L 25.359375 -83.015625 L 35.734375 -83.015625 L 35.734375 -63.40625 L 60.53125 -63.40625 L 60.53125 -53.953125 L 35.734375 -53.953125 L 35.734375 -16.375 C 35.734375 -14.21875 36.40625 -12.523438 37.75 -11.296875 C 39.101562 -10.066406 40.929688 -9.453125 43.234375 -9.453125 L 59.375 -9.453125 L 59.375 0 L 43.234375 0 C 37.773438 0 33.429688 -1.5 30.203125 -4.5 C 26.972656 -7.5 25.359375 -11.457031 25.359375 -16.375 L 25.359375 -53.953125 L 6.921875 -53.953125 Z M 6.921875 -63.40625 "/></g></g></g></g></g></g></svg>