<svg xmlns="http://www.w3.org/2000/svg" xmlns:xlink="http://www.w3.org/1999/xlink" width="748" zoomAndPan="magnify" viewBox="0 0 561 316.499991" height="422" preserveAspectRatio="xMidYMid meet" version="1.0"><defs><g/><clipPath id="dcb15b17c9"><path d="M 0.441406 0 L 560.554688 0 L 560.554688 316 L 0.441406 316 Z M 0.441406 0 " clip-rule="nonzero"/></clipPath><clipPath id="e689f96d4b"><path d="M 24.40625 0 L 539.21875 0 C 552.453125 0 563.179688 10.726562 563.179688 23.960938 L 563.179688 292.039062 C 563.179688 305.273438 552.453125 316 539.21875 316 L 24.40625 316 C 11.171875 316 0.441406 305.273438 0.441406 292.039062 L 0.441406 23.960938 C 0.441406 10.726562 11.171875 0 24.40625 0 Z M 24.40625 0 " clip-rule="nonzero"/></clipPath><clipPath id="ef958a4e74"><path d="M 0.441406 0 L 560.554688 0 L 560.554688 316 L 0.441406 316 Z M 0.441406 0 " clip-rule="nonzero"/></clipPath><clipPath id="9ab0e89033"><path d="M 24.40625 0 L 539.21875 0 C 552.453125 0 563.179688 10.726562 563.179688 23.960938 L 563.179688 292.039062 C 563.179688 305.273438 552.453125 316 539.21875 316 L 24.40625 316 C 11.171875 316 0.441406 305.273438 0.441406 292.039062 L 0.441406 23.960938 C 0.441406 10.726562 11.171875 0 24.40625 0 Z M 24.40625 0 " clip-rule="nonzero"/></clipPath><linearGradient x1="49.975249" gradientTransform="matrix(1.234378, 0, 0, 1.234378, 0.434414, 0)" y1="-49.968751" x2="404.856772" gradientUnits="userSpaceOnUse" y2="304.912762" id="21ec77d9db"><stop stop-opacity="1" stop-color="rgb(13.328552%, 13.328552%, 13.328552%)" offset="0"/><stop stop-opacity="1" stop-color="rgb(13.188171%, 13.188171%, 13.188171%)" offset="0.03125"/><stop stop-opacity="1" stop-color="rgb(12.90741%, 12.90741%, 12.90741%)" offset="0.0625"/><stop stop-opacity="1" stop-color="rgb(12.626648%, 12.626648%, 12.626648%)" offset="0.09375"/><stop stop-opacity="1" stop-color="rgb(12.345886%, 12.345886%, 12.345886%)" offset="0.125"/><stop stop-opacity="1" stop-color="rgb(12.065125%, 12.065125%, 12.065125%)" offset="0.15625"/><stop stop-opacity="1" stop-color="rgb(11.782837%, 11.782837%, 11.782837%)" offset="0.1875"/><stop stop-opacity="1" stop-color="rgb(11.502075%, 11.502075%, 11.502075%)" offset="0.21875"/><stop stop-opacity="1" stop-color="rgb(11.221313%, 11.221313%, 11.221313%)" offset="0.25"/><stop stop-opacity="1" stop-color="rgb(10.940552%, 10.940552%, 10.940552%)" offset="0.28125"/><stop stop-opacity="1" stop-color="rgb(10.65979%, 10.65979%, 10.65979%)" offset="0.3125"/><stop stop-opacity="1" stop-color="rgb(10.377502%, 10.377502%, 10.377502%)" offset="0.34375"/><stop stop-opacity="1" stop-color="rgb(10.096741%, 10.096741%, 10.096741%)" offset="0.360684"/><stop stop-opacity="1" stop-color="rgb(9.95636%, 9.95636%, 9.95636%)" offset="0.375"/><stop stop-opacity="1" stop-color="rgb(9.815979%, 9.815979%, 9.815979%)" offset="0.40625"/><stop stop-opacity="1" stop-color="rgb(9.535217%, 9.535217%, 9.535217%)" offset="0.4375"/><stop stop-opacity="1" stop-color="rgb(9.254456%, 9.254456%, 9.254456%)" offset="0.46875"/><stop stop-opacity="1" stop-color="rgb(8.973694%, 8.973694%, 8.973694%)" offset="0.5"/><stop stop-opacity="1" stop-color="rgb(8.691406%, 8.691406%, 8.691406%)" offset="0.53125"/><stop stop-opacity="1" stop-color="rgb(8.410645%, 8.410645%, 8.410645%)" offset="0.5625"/><stop stop-opacity="1" stop-color="rgb(8.129883%, 8.129883%, 8.129883%)" offset="0.59375"/><stop stop-opacity="1" stop-color="rgb(7.849121%, 7.849121%, 7.849121%)" offset="0.625"/><stop stop-opacity="1" stop-color="rgb(7.568359%, 7.568359%, 7.568359%)" offset="0.639316"/><stop stop-opacity="1" stop-color="rgb(7.427979%, 7.427979%, 7.427979%)" offset="0.65625"/><stop stop-opacity="1" stop-color="rgb(7.286072%, 7.286072%, 7.286072%)" offset="0.6875"/><stop stop-opacity="1" stop-color="rgb(7.00531%, 7.00531%, 7.00531%)" offset="0.71875"/><stop stop-opacity="1" stop-color="rgb(6.724548%, 6.724548%, 6.724548%)" offset="0.75"/><stop stop-opacity="1" stop-color="rgb(6.443787%, 6.443787%, 6.443787%)" offset="0.78125"/><stop stop-opacity="1" stop-color="rgb(6.163025%, 6.163025%, 6.163025%)" offset="0.8125"/><stop stop-opacity="1" stop-color="rgb(5.882263%, 5.882263%, 5.882263%)" offset="0.84375"/><stop stop-opacity="1" stop-color="rgb(5.599976%, 5.599976%, 5.599976%)" offset="0.875"/><stop stop-opacity="1" stop-color="rgb(5.319214%, 5.319214%, 5.319214%)" offset="0.90625"/><stop stop-opacity="1" stop-color="rgb(5.038452%, 5.038452%, 5.038452%)" offset="0.9375"/><stop stop-opacity="1" stop-color="rgb(4.75769%, 4.75769%, 4.75769%)" offset="0.96875"/><stop stop-opacity="1" stop-color="rgb(4.476929%, 4.476929%, 4.476929%)" offset="1"/></linearGradient><clipPath id="4ed8478a09"><rect x="0" width="561" y="0" height="316"/></clipPath><clipPath id="87e37598f1"><path d="M 171.554688 142.074219 L 213.488281 142.074219 L 213.488281 178.019531 L 171.554688 178.019531 Z M 171.554688 142.074219 " clip-rule="nonzero"/></clipPath><clipPath id="41d8fe1809"><rect x="0" width="164" y="0" height="15"/></clipPath><clipPath id="00808a64f3"><rect x="0" width="163" y="0" height="23"/></clipPath></defs><g clip-path="url(#dcb15b17c9)"><g clip-path="url(#e689f96d4b)"><g transform="matrix(1, 0, 0, 1, 0.000000000000000056, 0)"><g clip-path="url(#4ed8478a09)"><g clip-path="url(#ef958a4e74)"><g clip-path="url(#9ab0e89033)"><path fill="url(#21ec77d9db)" d="M 0.441406 0 L 0.441406 316 L 560.558594 316 L 560.558594 0 Z M 0.441406 0 " fill-rule="nonzero"/></g></g></g></g></g></g><g clip-path="url(#87e37598f1)"><path fill="#a6a6a6" d="M 181.152344 160.386719 C 181.152344 160.355469 181.152344 160.324219 181.148438 160.292969 C 180.820312 151.835938 188.046875 145.550781 195.476562 145.550781 C 202.90625 145.550781 209.992188 151.40625 209.992188 160.292969 C 209.992188 164.40625 208.082031 168.269531 205.566406 170.746094 C 202.640625 173.617188 198.859375 174.777344 195.667969 174.777344 C 189.734375 174.777344 185.621094 170.582031 185.621094 170.582031 L 182.980469 173.066406 C 182.980469 173.066406 185.648438 175.4375 187.84375 176.453125 C 190.039062 177.46875 190.679688 178.082031 195.476562 178.1875 C 199.59375 178.28125 203.441406 176.441406 205.941406 174.777344 C 212.976562 170.09375 213.523438 163.40625 213.523438 160.339844 C 213.523438 157.273438 212.914062 151.257812 207.054688 146.289062 C 204.3125 143.964844 200.746094 142.121094 195.140625 142.121094 C 189.90625 142.121094 185.929688 144.527344 183.332031 146.789062 C 177.195312 152.140625 177.445312 160.339844 177.445312 160.339844 C 177.445312 160.339844 177.453125 160.355469 177.46875 160.386719 L 171.550781 160.386719 L 179.523438 168.617188 L 187.753906 160.386719 Z M 181.152344 160.386719 " fill-opacity="1" fill-rule="evenodd"/></g><path fill="#a6a6a6" d="M 193.851562 152.726562 L 193.851562 162.335938 L 202.394531 167.527344 L 203.847656 165.503906 L 196.664062 161.152344 L 196.664062 152.726562 Z M 193.851562 152.726562 " fill-opacity="1" fill-rule="evenodd"/><g transform="matrix(1, 0, 0, 1, 225, 164)"><g clip-path="url(#41d8fe1809)"><g fill="#a6a6a6" fill-opacity="1"><g transform="translate(0.64641, 11.364187)"><g><path d="M 2.28125 1.203125 L 2.28125 -9.03125 L 4.953125 -9.03125 L 4.953125 -8.15625 L 3.265625 -8.15625 L 3.265625 0.328125 L 4.953125 0.328125 L 4.953125 1.203125 Z M 2.28125 1.203125 "/></g></g></g><g fill="#a6a6a6" fill-opacity="1"><g transform="translate(7.169758, 11.364187)"><g/></g></g><g fill="#a6a6a6" fill-opacity="1"><g transform="translate(13.689511, 11.364187)"><g/></g></g><g fill="#a6a6a6" fill-opacity="1"><g transform="translate(20.216456, 11.364187)"><g><path d="M 0.984375 -5.984375 L 1.953125 -5.984375 L 1.953125 -2.109375 C 1.953125 -1.203125 2.382812 -0.75 3.25 -0.75 C 4.125 -0.75 4.5625 -1.203125 4.5625 -2.109375 L 4.5625 -5.984375 L 5.546875 -5.984375 L 5.546875 -2.109375 C 5.546875 -1.398438 5.347656 -0.851562 4.953125 -0.46875 C 4.554688 -0.0820312 3.988281 0.109375 3.25 0.109375 C 2.53125 0.109375 1.972656 -0.0820312 1.578125 -0.46875 C 1.179688 -0.863281 0.984375 -1.410156 0.984375 -2.109375 Z M 0.984375 -5.984375 "/></g></g></g><g fill="#a6a6a6" fill-opacity="1"><g transform="translate(26.736208, 11.364187)"><g><path d="M 3.390625 -7.9375 L 3.390625 -1.734375 C 3.390625 -1.472656 3.460938 -1.265625 3.609375 -1.109375 C 3.753906 -0.960938 3.953125 -0.890625 4.203125 -0.890625 L 5.984375 -0.890625 L 5.984375 0 L 4.203125 0 C 3.648438 0 3.210938 -0.148438 2.890625 -0.453125 C 2.578125 -0.765625 2.421875 -1.191406 2.421875 -1.734375 L 2.421875 -7.046875 L 0.4375 -7.046875 L 0.4375 -7.9375 Z M 3.390625 -7.9375 "/></g></g></g><g fill="#a6a6a6" fill-opacity="1"><g transform="translate(33.255961, 11.364187)"><g><path d="M 0.65625 -5.984375 L 2.390625 -5.984375 L 2.390625 -7.828125 L 3.375 -7.828125 L 3.375 -5.984375 L 5.703125 -5.984375 L 5.703125 -5.09375 L 3.375 -5.09375 L 3.375 -1.546875 C 3.375 -1.335938 3.4375 -1.175781 3.5625 -1.0625 C 3.6875 -0.945312 3.859375 -0.890625 4.078125 -0.890625 L 5.59375 -0.890625 L 5.59375 0 L 4.078125 0 C 3.566406 0 3.15625 -0.140625 2.84375 -0.421875 C 2.539062 -0.703125 2.390625 -1.078125 2.390625 -1.546875 L 2.390625 -5.09375 L 0.65625 -5.09375 Z M 0.65625 -5.984375 "/></g></g></g><g fill="#a6a6a6" fill-opacity="1"><g transform="translate(39.775714, 11.364187)"><g><path d="M 1.21875 -5.984375 L 2.140625 -5.984375 L 2.140625 -4.953125 L 2.234375 -4.953125 C 2.328125 -5.304688 2.519531 -5.582031 2.8125 -5.78125 C 3.113281 -5.988281 3.484375 -6.09375 3.921875 -6.09375 C 4.546875 -6.09375 5.035156 -5.894531 5.390625 -5.5 C 5.753906 -5.101562 5.9375 -4.5625 5.9375 -3.875 L 5.9375 -3.53125 L 4.953125 -3.53125 L 4.953125 -3.75 C 4.953125 -4.21875 4.832031 -4.582031 4.59375 -4.84375 C 4.363281 -5.101562 4.03125 -5.234375 3.59375 -5.234375 C 3.164062 -5.234375 2.828125 -5.097656 2.578125 -4.828125 C 2.328125 -4.566406 2.203125 -4.207031 2.203125 -3.75 L 2.203125 0 L 1.21875 0 Z M 1.21875 -5.984375 "/></g></g></g><g fill="#a6a6a6" fill-opacity="1"><g transform="translate(46.295466, 11.364187)"><g><path d="M 0.6875 -1.734375 C 0.6875 -2.023438 0.734375 -2.28125 0.828125 -2.5 C 0.929688 -2.726562 1.070312 -2.921875 1.25 -3.078125 C 1.4375 -3.242188 1.660156 -3.367188 1.921875 -3.453125 C 2.179688 -3.546875 2.476562 -3.59375 2.8125 -3.59375 L 4.59375 -3.59375 L 4.59375 -4.078125 C 4.59375 -4.441406 4.46875 -4.726562 4.21875 -4.9375 C 3.976562 -5.144531 3.628906 -5.25 3.171875 -5.25 C 2.835938 -5.25 2.550781 -5.1875 2.3125 -5.0625 C 2.082031 -4.945312 1.925781 -4.78125 1.84375 -4.5625 L 0.875 -4.5625 C 0.96875 -5.03125 1.222656 -5.398438 1.640625 -5.671875 C 2.054688 -5.953125 2.578125 -6.09375 3.203125 -6.09375 C 3.941406 -6.09375 4.519531 -5.921875 4.9375 -5.578125 C 5.351562 -5.234375 5.5625 -4.75 5.5625 -4.125 L 5.5625 0 L 4.671875 0 L 4.671875 -1.140625 L 4.59375 -1.140625 C 4.5 -0.753906 4.273438 -0.445312 3.921875 -0.21875 C 3.578125 0 3.15625 0.109375 2.65625 0.109375 C 2.050781 0.109375 1.570312 -0.0546875 1.21875 -0.390625 C 0.863281 -0.722656 0.6875 -1.171875 0.6875 -1.734375 Z M 2.875 -0.703125 C 3.113281 -0.703125 3.335938 -0.734375 3.546875 -0.796875 C 3.765625 -0.859375 3.945312 -0.945312 4.09375 -1.0625 C 4.25 -1.1875 4.367188 -1.328125 4.453125 -1.484375 C 4.546875 -1.648438 4.59375 -1.828125 4.59375 -2.015625 L 4.59375 -2.828125 L 2.828125 -2.828125 C 2.460938 -2.828125 2.175781 -2.734375 1.96875 -2.546875 C 1.757812 -2.359375 1.65625 -2.097656 1.65625 -1.765625 C 1.65625 -1.429688 1.757812 -1.171875 1.96875 -0.984375 C 2.1875 -0.796875 2.488281 -0.703125 2.875 -0.703125 Z M 2.875 -0.703125 "/></g></g></g><g fill="#a6a6a6" fill-opacity="1"><g transform="translate(52.815219, 11.364187)"><g><path d="M 3.34375 0.109375 C 2.976562 0.109375 2.644531 0.0546875 2.34375 -0.046875 C 2.050781 -0.160156 1.800781 -0.316406 1.59375 -0.515625 C 1.394531 -0.722656 1.238281 -0.972656 1.125 -1.265625 C 1.007812 -1.554688 0.953125 -1.878906 0.953125 -2.234375 L 0.953125 -3.75 C 0.953125 -4.101562 1.007812 -4.425781 1.125 -4.71875 C 1.238281 -5.007812 1.394531 -5.253906 1.59375 -5.453125 C 1.800781 -5.660156 2.050781 -5.816406 2.34375 -5.921875 C 2.644531 -6.035156 2.976562 -6.09375 3.34375 -6.09375 C 4.007812 -6.09375 4.550781 -5.910156 4.96875 -5.546875 C 5.394531 -5.191406 5.648438 -4.703125 5.734375 -4.078125 L 4.765625 -4.078125 C 4.710938 -4.421875 4.554688 -4.695312 4.296875 -4.90625 C 4.046875 -5.113281 3.726562 -5.21875 3.34375 -5.21875 C 2.914062 -5.21875 2.570312 -5.085938 2.3125 -4.828125 C 2.0625 -4.566406 1.9375 -4.207031 1.9375 -3.75 L 1.9375 -2.234375 C 1.9375 -1.773438 2.0625 -1.414062 2.3125 -1.15625 C 2.5625 -0.894531 2.90625 -0.765625 3.34375 -0.765625 C 3.726562 -0.765625 4.046875 -0.863281 4.296875 -1.0625 C 4.554688 -1.269531 4.710938 -1.550781 4.765625 -1.90625 L 5.734375 -1.90625 C 5.640625 -1.269531 5.378906 -0.773438 4.953125 -0.421875 C 4.535156 -0.0664062 4 0.109375 3.34375 0.109375 Z M 3.34375 0.109375 "/></g></g></g><g fill="#a6a6a6" fill-opacity="1"><g transform="translate(59.334971, 11.364187)"><g><path d="M 1.84375 -2.234375 C 1.84375 -1.773438 1.96875 -1.414062 2.21875 -1.15625 C 2.46875 -0.894531 2.816406 -0.765625 3.265625 -0.765625 C 3.703125 -0.765625 4.046875 -0.894531 4.296875 -1.15625 C 4.546875 -1.414062 4.671875 -1.773438 4.671875 -2.234375 L 4.671875 -3.75 C 4.671875 -4.207031 4.546875 -4.566406 4.296875 -4.828125 C 4.046875 -5.085938 3.703125 -5.21875 3.265625 -5.21875 C 2.828125 -5.21875 2.476562 -5.085938 2.21875 -4.828125 C 1.96875 -4.566406 1.84375 -4.207031 1.84375 -3.75 Z M 0.875 -3.75 C 0.875 -4.113281 0.925781 -4.4375 1.03125 -4.71875 C 1.144531 -5.007812 1.304688 -5.253906 1.515625 -5.453125 C 1.722656 -5.660156 1.972656 -5.816406 2.265625 -5.921875 C 2.554688 -6.035156 2.890625 -6.09375 3.265625 -6.09375 C 4.003906 -6.09375 4.585938 -5.882812 5.015625 -5.46875 C 5.441406 -5.050781 5.65625 -4.484375 5.65625 -3.765625 L 5.65625 -2.234375 C 5.65625 -1.867188 5.597656 -1.539062 5.484375 -1.25 C 5.378906 -0.957031 5.222656 -0.710938 5.015625 -0.515625 C 4.804688 -0.316406 4.550781 -0.160156 4.25 -0.046875 C 3.957031 0.0546875 3.628906 0.109375 3.265625 0.109375 C 2.890625 0.109375 2.554688 0.0546875 2.265625 -0.046875 C 1.972656 -0.160156 1.722656 -0.316406 1.515625 -0.515625 C 1.304688 -0.722656 1.144531 -0.972656 1.03125 -1.265625 C 0.925781 -1.554688 0.875 -1.878906 0.875 -2.234375 Z M 0.875 -3.75 "/></g></g></g><g fill="#a6a6a6" fill-opacity="1"><g transform="translate(65.854724, 11.364187)"><g><path d="M 0.953125 0 L 0.953125 -5.984375 L 1.875 -5.984375 L 1.875 -4.953125 L 1.96875 -4.953125 C 2.0625 -5.304688 2.25 -5.582031 2.53125 -5.78125 C 2.820312 -5.988281 3.179688 -6.09375 3.609375 -6.09375 C 3.910156 -6.09375 4.179688 -6.039062 4.421875 -5.9375 C 4.660156 -5.832031 4.863281 -5.6875 5.03125 -5.5 C 5.207031 -5.320312 5.34375 -5.101562 5.4375 -4.84375 C 5.53125 -4.582031 5.578125 -4.296875 5.578125 -3.984375 L 5.578125 0 L 4.59375 0 L 4.59375 -3.8125 C 4.59375 -4.269531 4.476562 -4.625 4.25 -4.875 C 4.019531 -5.132812 3.695312 -5.265625 3.28125 -5.265625 C 2.875 -5.265625 2.546875 -5.128906 2.296875 -4.859375 C 2.054688 -4.585938 1.9375 -4.21875 1.9375 -3.75 L 1.9375 0 Z M 0.953125 0 "/></g></g></g><g fill="#a6a6a6" fill-opacity="1"><g transform="translate(72.374477, 11.364187)"><g><path d="M 0.65625 -5.984375 L 2.390625 -5.984375 L 2.390625 -7.828125 L 3.375 -7.828125 L 3.375 -5.984375 L 5.703125 -5.984375 L 5.703125 -5.09375 L 3.375 -5.09375 L 3.375 -1.546875 C 3.375 -1.335938 3.4375 -1.175781 3.5625 -1.0625 C 3.6875 -0.945312 3.859375 -0.890625 4.078125 -0.890625 L 5.59375 -0.890625 L 5.59375 0 L 4.078125 0 C 3.566406 0 3.15625 -0.140625 2.84375 -0.421875 C 2.539062 -0.703125 2.390625 -1.078125 2.390625 -1.546875 L 2.390625 -5.09375 L 0.65625 -5.09375 Z M 0.65625 -5.984375 "/></g></g></g><g fill="#a6a6a6" fill-opacity="1"><g transform="translate(78.894229, 11.364187)"><g><path d="M 3.265625 0.109375 C 2.515625 0.109375 1.925781 -0.09375 1.5 -0.5 C 1.082031 -0.90625 0.875 -1.460938 0.875 -2.171875 L 0.875 -3.8125 C 0.875 -4.519531 1.082031 -5.078125 1.5 -5.484375 C 1.925781 -5.890625 2.515625 -6.09375 3.265625 -6.09375 C 4.003906 -6.09375 4.585938 -5.890625 5.015625 -5.484375 C 5.441406 -5.078125 5.65625 -4.519531 5.65625 -3.8125 L 5.65625 -2.703125 L 1.84375 -2.703125 L 1.84375 -2.234375 C 1.84375 -1.773438 1.96875 -1.414062 2.21875 -1.15625 C 2.46875 -0.894531 2.816406 -0.765625 3.265625 -0.765625 C 3.585938 -0.765625 3.867188 -0.8125 4.109375 -0.90625 C 4.347656 -1.007812 4.523438 -1.160156 4.640625 -1.359375 L 5.625 -1.359375 C 5.5 -0.898438 5.222656 -0.539062 4.796875 -0.28125 C 4.378906 -0.0195312 3.867188 0.109375 3.265625 0.109375 Z M 4.671875 -3.53125 L 4.671875 -3.8125 C 4.671875 -4.257812 4.546875 -4.601562 4.296875 -4.84375 C 4.054688 -5.09375 3.710938 -5.21875 3.265625 -5.21875 C 2.816406 -5.21875 2.46875 -5.09375 2.21875 -4.84375 C 1.96875 -4.601562 1.84375 -4.257812 1.84375 -3.8125 L 1.84375 -3.53125 Z M 4.671875 -3.53125 "/></g></g></g><g fill="#a6a6a6" fill-opacity="1"><g transform="translate(85.413982, 11.364187)"><g><path d="M 0.515625 0 L 2.6875 -3.0625 L 0.65625 -5.984375 L 1.828125 -5.984375 L 3.078125 -4.078125 C 3.109375 -4.023438 3.132812 -3.972656 3.15625 -3.921875 C 3.1875 -3.878906 3.207031 -3.84375 3.21875 -3.8125 C 3.226562 -3.769531 3.238281 -3.734375 3.25 -3.703125 L 3.296875 -3.703125 C 3.304688 -3.734375 3.316406 -3.769531 3.328125 -3.8125 C 3.335938 -3.84375 3.351562 -3.878906 3.375 -3.921875 C 3.40625 -3.972656 3.4375 -4.023438 3.46875 -4.078125 L 4.71875 -5.984375 L 5.890625 -5.984375 L 3.84375 -3.078125 L 6 0 L 4.828125 0 L 3.484375 -2.015625 C 3.460938 -2.066406 3.4375 -2.113281 3.40625 -2.15625 C 3.382812 -2.207031 3.363281 -2.257812 3.34375 -2.3125 C 3.320312 -2.351562 3.300781 -2.398438 3.28125 -2.453125 L 3.234375 -2.453125 C 3.222656 -2.398438 3.207031 -2.351562 3.1875 -2.3125 C 3.164062 -2.257812 3.144531 -2.207031 3.125 -2.15625 C 3.101562 -2.113281 3.070312 -2.066406 3.03125 -2.015625 L 1.6875 0 Z M 0.515625 0 "/></g></g></g><g fill="#a6a6a6" fill-opacity="1"><g transform="translate(91.933734, 11.364187)"><g><path d="M 0.65625 -5.984375 L 2.390625 -5.984375 L 2.390625 -7.828125 L 3.375 -7.828125 L 3.375 -5.984375 L 5.703125 -5.984375 L 5.703125 -5.09375 L 3.375 -5.09375 L 3.375 -1.546875 C 3.375 -1.335938 3.4375 -1.175781 3.5625 -1.0625 C 3.6875 -0.945312 3.859375 -0.890625 4.078125 -0.890625 L 5.59375 -0.890625 L 5.59375 0 L 4.078125 0 C 3.566406 0 3.15625 -0.140625 2.84375 -0.421875 C 2.539062 -0.703125 2.390625 -1.078125 2.390625 -1.546875 L 2.390625 -5.09375 L 0.65625 -5.09375 Z M 0.65625 -5.984375 "/></g></g></g><g fill="#a6a6a6" fill-opacity="1"><g transform="translate(98.453487, 11.364187)"><g/></g></g><g fill="#a6a6a6" fill-opacity="1"><g transform="translate(104.97324, 11.364187)"><g><path d="M 0.796875 -3.8125 C 0.796875 -4.15625 0.84375 -4.46875 0.9375 -4.75 C 1.03125 -5.03125 1.164062 -5.269531 1.34375 -5.46875 C 1.519531 -5.664062 1.734375 -5.816406 1.984375 -5.921875 C 2.242188 -6.035156 2.53125 -6.09375 2.84375 -6.09375 C 3.269531 -6.09375 3.632812 -5.988281 3.9375 -5.78125 C 4.25 -5.570312 4.457031 -5.273438 4.5625 -4.890625 L 4.640625 -4.890625 L 4.640625 -5.984375 L 5.5625 -5.984375 L 5.5625 -0.4375 C 5.5625 0.269531 5.351562 0.816406 4.9375 1.203125 C 4.53125 1.597656 3.953125 1.796875 3.203125 1.796875 L 1.734375 1.796875 L 1.734375 0.90625 L 3.203125 0.90625 C 3.640625 0.90625 3.976562 0.785156 4.21875 0.546875 C 4.46875 0.316406 4.59375 -0.0078125 4.59375 -0.4375 L 4.59375 -0.65625 L 4.625 -1.734375 L 4.5625 -1.734375 C 4.457031 -1.347656 4.25 -1.050781 3.9375 -0.84375 C 3.632812 -0.644531 3.269531 -0.546875 2.84375 -0.546875 C 2.53125 -0.546875 2.25 -0.597656 2 -0.703125 C 1.75 -0.816406 1.535156 -0.96875 1.359375 -1.15625 C 1.179688 -1.351562 1.039062 -1.59375 0.9375 -1.875 C 0.84375 -2.164062 0.796875 -2.484375 0.796875 -2.828125 Z M 1.796875 -2.828125 C 1.796875 -2.378906 1.921875 -2.023438 2.171875 -1.765625 C 2.421875 -1.515625 2.765625 -1.390625 3.203125 -1.390625 C 3.628906 -1.390625 3.96875 -1.515625 4.21875 -1.765625 C 4.46875 -2.023438 4.59375 -2.378906 4.59375 -2.828125 L 4.59375 -3.8125 C 4.59375 -4.257812 4.46875 -4.609375 4.21875 -4.859375 C 3.96875 -5.109375 3.628906 -5.234375 3.203125 -5.234375 C 2.765625 -5.234375 2.421875 -5.109375 2.171875 -4.859375 C 1.921875 -4.609375 1.796875 -4.257812 1.796875 -3.8125 Z M 1.796875 -2.828125 "/></g></g></g><g fill="#a6a6a6" fill-opacity="1"><g transform="translate(111.492992, 11.364187)"><g><path d="M 0.984375 -5.984375 L 1.953125 -5.984375 L 1.953125 -2.109375 C 1.953125 -1.203125 2.382812 -0.75 3.25 -0.75 C 4.125 -0.75 4.5625 -1.203125 4.5625 -2.109375 L 4.5625 -5.984375 L 5.546875 -5.984375 L 5.546875 -2.109375 C 5.546875 -1.398438 5.347656 -0.851562 4.953125 -0.46875 C 4.554688 -0.0820312 3.988281 0.109375 3.25 0.109375 C 2.53125 0.109375 1.972656 -0.0820312 1.578125 -0.46875 C 1.179688 -0.863281 0.984375 -1.410156 0.984375 -2.109375 Z M 0.984375 -5.984375 "/></g></g></g><g fill="#a6a6a6" fill-opacity="1"><g transform="translate(118.012745, 11.364187)"><g><path d="M 1.03125 0 L 1.03125 -0.890625 L 3.203125 -0.890625 L 3.203125 -5.09375 L 1.3125 -5.09375 L 1.3125 -5.984375 L 4.1875 -5.984375 L 4.1875 -0.890625 L 5.984375 -0.890625 L 5.984375 0 Z M 3.421875 -8.3125 L 3.640625 -8.3125 C 3.847656 -8.3125 4.015625 -8.25 4.140625 -8.125 C 4.273438 -8.007812 4.34375 -7.851562 4.34375 -7.65625 C 4.34375 -7.457031 4.273438 -7.300781 4.140625 -7.1875 C 4.015625 -7.070312 3.847656 -7.015625 3.640625 -7.015625 L 3.421875 -7.015625 C 3.210938 -7.015625 3.039062 -7.066406 2.90625 -7.171875 C 2.78125 -7.285156 2.71875 -7.445312 2.71875 -7.65625 C 2.71875 -7.851562 2.78125 -8.007812 2.90625 -8.125 C 3.039062 -8.25 3.210938 -8.3125 3.421875 -8.3125 Z M 3.421875 -8.3125 "/></g></g></g><g fill="#a6a6a6" fill-opacity="1"><g transform="translate(124.532497, 11.364187)"><g><path d="M 0.875 -3.75 C 0.875 -4.113281 0.921875 -4.441406 1.015625 -4.734375 C 1.109375 -5.023438 1.242188 -5.269531 1.421875 -5.46875 C 1.597656 -5.664062 1.804688 -5.816406 2.046875 -5.921875 C 2.296875 -6.035156 2.570312 -6.09375 2.875 -6.09375 C 3.320312 -6.09375 3.691406 -5.988281 3.984375 -5.78125 C 4.273438 -5.582031 4.46875 -5.304688 4.5625 -4.953125 L 4.640625 -4.953125 C 4.628906 -5.078125 4.625 -5.195312 4.625 -5.3125 C 4.601562 -5.425781 4.59375 -5.539062 4.59375 -5.65625 C 4.59375 -5.78125 4.59375 -5.890625 4.59375 -5.984375 L 4.59375 -7.9375 L 5.5625 -7.9375 L 5.5625 0 L 4.640625 0 L 4.640625 -1.03125 L 4.5625 -1.03125 C 4.46875 -0.664062 4.273438 -0.382812 3.984375 -0.1875 C 3.691406 0.0078125 3.320312 0.109375 2.875 0.109375 C 2.570312 0.109375 2.296875 0.0546875 2.046875 -0.046875 C 1.804688 -0.160156 1.597656 -0.316406 1.421875 -0.515625 C 1.242188 -0.710938 1.109375 -0.957031 1.015625 -1.25 C 0.921875 -1.539062 0.875 -1.867188 0.875 -2.234375 Z M 3.25 -0.734375 C 3.65625 -0.734375 3.976562 -0.867188 4.21875 -1.140625 C 4.46875 -1.410156 4.59375 -1.773438 4.59375 -2.234375 L 4.59375 -3.75 C 4.59375 -4.207031 4.46875 -4.566406 4.21875 -4.828125 C 3.976562 -5.097656 3.65625 -5.234375 3.25 -5.234375 C 2.8125 -5.234375 2.46875 -5.101562 2.21875 -4.84375 C 1.96875 -4.582031 1.84375 -4.21875 1.84375 -3.75 L 1.84375 -2.234375 C 1.84375 -1.773438 1.96875 -1.410156 2.21875 -1.140625 C 2.46875 -0.867188 2.8125 -0.734375 3.25 -0.734375 Z M 3.25 -0.734375 "/></g></g></g><g fill="#a6a6a6" fill-opacity="1"><g transform="translate(131.05225, 11.364187)"><g><path d="M 3.265625 0.109375 C 2.515625 0.109375 1.925781 -0.09375 1.5 -0.5 C 1.082031 -0.90625 0.875 -1.460938 0.875 -2.171875 L 0.875 -3.8125 C 0.875 -4.519531 1.082031 -5.078125 1.5 -5.484375 C 1.925781 -5.890625 2.515625 -6.09375 3.265625 -6.09375 C 4.003906 -6.09375 4.585938 -5.890625 5.015625 -5.484375 C 5.441406 -5.078125 5.65625 -4.519531 5.65625 -3.8125 L 5.65625 -2.703125 L 1.84375 -2.703125 L 1.84375 -2.234375 C 1.84375 -1.773438 1.96875 -1.414062 2.21875 -1.15625 C 2.46875 -0.894531 2.816406 -0.765625 3.265625 -0.765625 C 3.585938 -0.765625 3.867188 -0.8125 4.109375 -0.90625 C 4.347656 -1.007812 4.523438 -1.160156 4.640625 -1.359375 L 5.625 -1.359375 C 5.5 -0.898438 5.222656 -0.539062 4.796875 -0.28125 C 4.378906 -0.0195312 3.867188 0.109375 3.265625 0.109375 Z M 4.671875 -3.53125 L 4.671875 -3.8125 C 4.671875 -4.257812 4.546875 -4.601562 4.296875 -4.84375 C 4.054688 -5.09375 3.710938 -5.21875 3.265625 -5.21875 C 2.816406 -5.21875 2.46875 -5.09375 2.21875 -4.84375 C 1.96875 -4.601562 1.84375 -4.257812 1.84375 -3.8125 L 1.84375 -3.53125 Z M 4.671875 -3.53125 "/></g></g></g><g fill="#a6a6a6" fill-opacity="1"><g transform="translate(137.572003, 11.364187)"><g><path d="M 3.09375 0.109375 C 2.46875 0.109375 1.945312 -0.03125 1.53125 -0.3125 C 1.125 -0.601562 0.894531 -0.988281 0.84375 -1.46875 L 1.875 -1.46875 C 1.914062 -1.257812 2.046875 -1.085938 2.265625 -0.953125 C 2.492188 -0.828125 2.769531 -0.765625 3.09375 -0.765625 L 3.40625 -0.765625 C 3.789062 -0.765625 4.09375 -0.84375 4.3125 -1 C 4.53125 -1.164062 4.640625 -1.382812 4.640625 -1.65625 C 4.640625 -2.132812 4.304688 -2.421875 3.640625 -2.515625 L 2.734375 -2.65625 C 2.148438 -2.738281 1.710938 -2.921875 1.421875 -3.203125 C 1.128906 -3.484375 0.984375 -3.878906 0.984375 -4.390625 C 0.984375 -4.929688 1.171875 -5.347656 1.546875 -5.640625 C 1.929688 -5.941406 2.46875 -6.09375 3.15625 -6.09375 L 3.453125 -6.09375 C 3.742188 -6.09375 4.007812 -6.054688 4.25 -5.984375 C 4.5 -5.910156 4.71875 -5.804688 4.90625 -5.671875 C 5.101562 -5.535156 5.257812 -5.375 5.375 -5.1875 C 5.5 -5.007812 5.578125 -4.804688 5.609375 -4.578125 L 4.578125 -4.578125 C 4.535156 -4.765625 4.410156 -4.914062 4.203125 -5.03125 C 4.003906 -5.15625 3.753906 -5.21875 3.453125 -5.21875 L 3.15625 -5.21875 C 2.78125 -5.21875 2.488281 -5.144531 2.28125 -5 C 2.082031 -4.851562 1.984375 -4.632812 1.984375 -4.34375 C 1.984375 -4.113281 2.050781 -3.9375 2.1875 -3.8125 C 2.332031 -3.695312 2.5625 -3.617188 2.875 -3.578125 L 3.78125 -3.453125 C 4.425781 -3.359375 4.894531 -3.164062 5.1875 -2.875 C 5.488281 -2.59375 5.640625 -2.191406 5.640625 -1.671875 C 5.640625 -1.117188 5.441406 -0.679688 5.046875 -0.359375 C 4.660156 -0.046875 4.113281 0.109375 3.40625 0.109375 Z M 3.09375 0.109375 "/></g></g></g><g fill="#a6a6a6" fill-opacity="1"><g transform="translate(144.09675, 11.364187)"><g/></g></g><g fill="#a6a6a6" fill-opacity="1"><g transform="translate(150.616503, 11.364187)"><g/></g></g><g fill="#a6a6a6" fill-opacity="1"><g transform="translate(157.143447, 11.364187)"><g><path d="M 1.625 1.203125 L 1.625 0.328125 L 3.3125 0.328125 L 3.3125 -8.15625 L 1.625 -8.15625 L 1.625 -9.03125 L 4.296875 -9.03125 L 4.296875 1.203125 Z M 1.625 1.203125 "/></g></g></g></g></g><g transform="matrix(1, 0, 0, 1, 226, 136)"><g clip-path="url(#00808a64f3)"><g fill="#ffffff" fill-opacity="1"><g transform="translate(0.807743, 17.960644)"><g><path d="M 5.5 0.171875 C 4.894531 0.171875 4.347656 0.0820312 3.859375 -0.09375 C 3.378906 -0.269531 2.96875 -0.523438 2.625 -0.859375 C 2.289062 -1.191406 2.03125 -1.59375 1.84375 -2.0625 C 1.664062 -2.539062 1.578125 -3.078125 1.578125 -3.671875 L 1.578125 -6.171875 C 1.578125 -6.753906 1.664062 -7.28125 1.84375 -7.75 C 2.03125 -8.226562 2.289062 -8.632812 2.625 -8.96875 C 2.96875 -9.300781 3.378906 -9.554688 3.859375 -9.734375 C 4.347656 -9.921875 4.894531 -10.015625 5.5 -10.015625 C 6.582031 -10.015625 7.472656 -9.71875 8.171875 -9.125 C 8.867188 -8.53125 9.289062 -7.722656 9.4375 -6.703125 L 7.828125 -6.703125 C 7.742188 -7.273438 7.488281 -7.726562 7.0625 -8.0625 C 6.644531 -8.40625 6.125 -8.578125 5.5 -8.578125 C 4.789062 -8.578125 4.226562 -8.363281 3.8125 -7.9375 C 3.394531 -7.507812 3.1875 -6.921875 3.1875 -6.171875 L 3.1875 -3.671875 C 3.1875 -2.910156 3.390625 -2.316406 3.796875 -1.890625 C 4.210938 -1.460938 4.78125 -1.25 5.5 -1.25 C 6.125 -1.25 6.644531 -1.414062 7.0625 -1.75 C 7.488281 -2.09375 7.742188 -2.550781 7.828125 -3.125 L 9.4375 -3.125 C 9.28125 -2.09375 8.851562 -1.285156 8.15625 -0.703125 C 7.457031 -0.117188 6.570312 0.171875 5.5 0.171875 Z M 5.5 0.171875 "/></g></g></g><g fill="#ffffff" fill-opacity="1"><g transform="translate(11.519993, 17.960644)"><g><path d="M 3.03125 -3.671875 C 3.03125 -2.910156 3.234375 -2.316406 3.640625 -1.890625 C 4.054688 -1.460938 4.628906 -1.25 5.359375 -1.25 C 6.078125 -1.25 6.644531 -1.460938 7.0625 -1.890625 C 7.476562 -2.316406 7.6875 -2.910156 7.6875 -3.671875 L 7.6875 -6.171875 C 7.6875 -6.921875 7.476562 -7.507812 7.0625 -7.9375 C 6.644531 -8.363281 6.078125 -8.578125 5.359375 -8.578125 C 4.648438 -8.578125 4.082031 -8.363281 3.65625 -7.9375 C 3.238281 -7.507812 3.03125 -6.921875 3.03125 -6.171875 Z M 1.4375 -6.171875 C 1.4375 -6.765625 1.523438 -7.296875 1.703125 -7.765625 C 1.890625 -8.234375 2.148438 -8.632812 2.484375 -8.96875 C 2.828125 -9.300781 3.238281 -9.554688 3.71875 -9.734375 C 4.207031 -9.921875 4.753906 -10.015625 5.359375 -10.015625 C 6.578125 -10.015625 7.535156 -9.671875 8.234375 -8.984375 C 8.941406 -8.304688 9.296875 -7.375 9.296875 -6.1875 L 9.296875 -3.671875 C 9.296875 -3.066406 9.207031 -2.523438 9.03125 -2.046875 C 8.851562 -1.578125 8.59375 -1.175781 8.25 -0.84375 C 7.90625 -0.519531 7.488281 -0.269531 7 -0.09375 C 6.519531 0.0820312 5.972656 0.171875 5.359375 0.171875 C 4.753906 0.171875 4.207031 0.0820312 3.71875 -0.09375 C 3.238281 -0.269531 2.828125 -0.523438 2.484375 -0.859375 C 2.148438 -1.191406 1.890625 -1.59375 1.703125 -2.0625 C 1.523438 -2.539062 1.4375 -3.078125 1.4375 -3.671875 Z M 1.4375 -6.171875 "/></g></g></g><g fill="#ffffff" fill-opacity="1"><g transform="translate(22.232243, 17.960644)"><g><path d="M 1.578125 0 L 1.578125 -9.828125 L 3.09375 -9.828125 L 3.09375 -8.140625 L 3.234375 -8.140625 C 3.390625 -8.734375 3.703125 -9.191406 4.171875 -9.515625 C 4.640625 -9.847656 5.226562 -10.015625 5.9375 -10.015625 C 6.425781 -10.015625 6.867188 -9.929688 7.265625 -9.765625 C 7.660156 -9.597656 8 -9.359375 8.28125 -9.046875 C 8.5625 -8.742188 8.78125 -8.378906 8.9375 -7.953125 C 9.09375 -7.535156 9.171875 -7.066406 9.171875 -6.546875 L 9.171875 0 L 7.5625 0 L 7.5625 -6.28125 C 7.5625 -7.03125 7.367188 -7.613281 6.984375 -8.03125 C 6.609375 -8.445312 6.078125 -8.65625 5.390625 -8.65625 C 4.710938 -8.65625 4.175781 -8.429688 3.78125 -7.984375 C 3.382812 -7.535156 3.1875 -6.929688 3.1875 -6.171875 L 3.1875 0 Z M 1.578125 0 "/></g></g></g><g fill="#ffffff" fill-opacity="1"><g transform="translate(32.944494, 17.960644)"><g><path d="M 1.078125 -9.828125 L 3.9375 -9.828125 L 3.9375 -12.875 L 5.546875 -12.875 L 5.546875 -9.828125 L 9.390625 -9.828125 L 9.390625 -8.359375 L 5.546875 -8.359375 L 5.546875 -2.53125 C 5.546875 -2.195312 5.648438 -1.9375 5.859375 -1.75 C 6.066406 -1.5625 6.347656 -1.46875 6.703125 -1.46875 L 9.203125 -1.46875 L 9.203125 0 L 6.703125 0 C 5.859375 0 5.1875 -0.226562 4.6875 -0.6875 C 4.1875 -1.15625 3.9375 -1.769531 3.9375 -2.53125 L 3.9375 -8.359375 L 1.078125 -8.359375 Z M 1.078125 -9.828125 "/></g></g></g><g fill="#ffffff" fill-opacity="1"><g transform="translate(43.656744, 17.960644)"><g><path d="M 5.359375 0.171875 C 4.128906 0.171875 3.164062 -0.160156 2.46875 -0.828125 C 1.78125 -1.492188 1.4375 -2.410156 1.4375 -3.578125 L 1.4375 -6.25 C 1.4375 -7.425781 1.78125 -8.347656 2.46875 -9.015625 C 3.164062 -9.679688 4.128906 -10.015625 5.359375 -10.015625 C 6.585938 -10.015625 7.550781 -9.679688 8.25 -9.015625 C 8.945312 -8.347656 9.296875 -7.425781 9.296875 -6.25 L 9.296875 -4.453125 L 3.03125 -4.453125 L 3.03125 -3.671875 C 3.03125 -2.910156 3.234375 -2.316406 3.640625 -1.890625 C 4.054688 -1.460938 4.628906 -1.25 5.359375 -1.25 C 5.898438 -1.25 6.363281 -1.332031 6.75 -1.5 C 7.144531 -1.664062 7.4375 -1.910156 7.625 -2.234375 L 9.234375 -2.234375 C 9.035156 -1.484375 8.585938 -0.894531 7.890625 -0.46875 C 7.191406 -0.0390625 6.347656 0.171875 5.359375 0.171875 Z M 7.6875 -5.796875 L 7.6875 -6.25 C 7.6875 -6.988281 7.484375 -7.5625 7.078125 -7.96875 C 6.671875 -8.375 6.097656 -8.578125 5.359375 -8.578125 C 4.617188 -8.578125 4.046875 -8.375 3.640625 -7.96875 C 3.234375 -7.5625 3.03125 -6.988281 3.03125 -6.25 L 3.03125 -5.796875 Z M 7.6875 -5.796875 "/></g></g></g><g fill="#ffffff" fill-opacity="1"><g transform="translate(54.368994, 17.960644)"><g><path d="M 0.859375 0 L 4.421875 -5.046875 L 1.078125 -9.828125 L 3 -9.828125 L 5.0625 -6.703125 C 5.113281 -6.617188 5.15625 -6.535156 5.1875 -6.453125 C 5.226562 -6.378906 5.265625 -6.3125 5.296875 -6.25 C 5.316406 -6.195312 5.332031 -6.140625 5.34375 -6.078125 L 5.421875 -6.078125 C 5.429688 -6.140625 5.445312 -6.195312 5.46875 -6.25 C 5.488281 -6.3125 5.515625 -6.378906 5.546875 -6.453125 C 5.585938 -6.535156 5.640625 -6.617188 5.703125 -6.703125 L 7.75 -9.828125 L 9.671875 -9.828125 L 6.328125 -5.0625 L 9.859375 0 L 7.9375 0 L 5.734375 -3.328125 C 5.691406 -3.410156 5.648438 -3.488281 5.609375 -3.5625 C 5.566406 -3.644531 5.523438 -3.722656 5.484375 -3.796875 C 5.453125 -3.878906 5.421875 -3.953125 5.390625 -4.015625 L 5.328125 -4.015625 C 5.304688 -3.929688 5.273438 -3.859375 5.234375 -3.796875 C 5.203125 -3.722656 5.164062 -3.644531 5.125 -3.5625 C 5.09375 -3.476562 5.046875 -3.398438 4.984375 -3.328125 L 2.765625 0 Z M 0.859375 0 "/></g></g></g><g fill="#ffffff" fill-opacity="1"><g transform="translate(65.081244, 17.960644)"><g><path d="M 1.078125 -9.828125 L 3.9375 -9.828125 L 3.9375 -12.875 L 5.546875 -12.875 L 5.546875 -9.828125 L 9.390625 -9.828125 L 9.390625 -8.359375 L 5.546875 -8.359375 L 5.546875 -2.53125 C 5.546875 -2.195312 5.648438 -1.9375 5.859375 -1.75 C 6.066406 -1.5625 6.347656 -1.46875 6.703125 -1.46875 L 9.203125 -1.46875 L 9.203125 0 L 6.703125 0 C 5.859375 0 5.1875 -0.226562 4.6875 -0.6875 C 4.1875 -1.15625 3.9375 -1.769531 3.9375 -2.53125 L 3.9375 -8.359375 L 1.078125 -8.359375 Z M 1.078125 -9.828125 "/></g></g></g><g fill="#ffffff" fill-opacity="1"><g transform="translate(75.793494, 17.960644)"><g/></g></g><g fill="#ffffff" fill-opacity="1"><g transform="translate(86.505744, 17.960644)"><g><path d="M 1.578125 -13.046875 L 3.1875 -13.046875 L 3.1875 -9.828125 C 3.1875 -9.660156 3.179688 -9.476562 3.171875 -9.28125 C 3.160156 -9.082031 3.148438 -8.898438 3.140625 -8.734375 C 3.117188 -8.535156 3.101562 -8.335938 3.09375 -8.140625 L 3.234375 -8.140625 C 3.390625 -8.734375 3.703125 -9.191406 4.171875 -9.515625 C 4.640625 -9.847656 5.226562 -10.015625 5.9375 -10.015625 C 6.425781 -10.015625 6.867188 -9.929688 7.265625 -9.765625 C 7.660156 -9.597656 8 -9.359375 8.28125 -9.046875 C 8.5625 -8.742188 8.78125 -8.378906 8.9375 -7.953125 C 9.09375 -7.535156 9.171875 -7.066406 9.171875 -6.546875 L 9.171875 0 L 7.5625 0 L 7.5625 -6.28125 C 7.5625 -7.03125 7.367188 -7.613281 6.984375 -8.03125 C 6.609375 -8.445312 6.078125 -8.65625 5.390625 -8.65625 C 4.710938 -8.65625 4.175781 -8.429688 3.78125 -7.984375 C 3.382812 -7.535156 3.1875 -6.929688 3.1875 -6.171875 L 3.1875 0 L 1.578125 0 Z M 1.578125 -13.046875 "/></g></g></g><g fill="#ffffff" fill-opacity="1"><g transform="translate(97.217995, 17.960644)"><g><path d="M 1.703125 0 L 1.703125 -1.46875 L 5.265625 -1.46875 L 5.265625 -8.359375 L 2.140625 -8.359375 L 2.140625 -9.828125 L 6.875 -9.828125 L 6.875 -1.46875 L 9.828125 -1.46875 L 9.828125 0 Z M 5.625 -13.671875 L 5.984375 -13.671875 C 6.328125 -13.671875 6.609375 -13.566406 6.828125 -13.359375 C 7.046875 -13.160156 7.15625 -12.898438 7.15625 -12.578125 C 7.15625 -12.253906 7.046875 -12 6.828125 -11.8125 C 6.609375 -11.625 6.328125 -11.53125 5.984375 -11.53125 L 5.625 -11.53125 C 5.28125 -11.53125 5 -11.617188 4.78125 -11.796875 C 4.570312 -11.984375 4.46875 -12.242188 4.46875 -12.578125 C 4.46875 -12.898438 4.570312 -13.160156 4.78125 -13.359375 C 5 -13.566406 5.28125 -13.671875 5.625 -13.671875 Z M 5.625 -13.671875 "/></g></g></g><g fill="#ffffff" fill-opacity="1"><g transform="translate(107.930245, 17.960644)"><g><path d="M 5.09375 0.171875 C 4.0625 0.171875 3.207031 -0.0625 2.53125 -0.53125 C 1.851562 -1 1.46875 -1.625 1.375 -2.40625 L 3.078125 -2.40625 C 3.148438 -2.0625 3.367188 -1.78125 3.734375 -1.5625 C 4.109375 -1.351562 4.5625 -1.25 5.09375 -1.25 L 5.59375 -1.25 C 6.238281 -1.25 6.738281 -1.382812 7.09375 -1.65625 C 7.445312 -1.925781 7.625 -2.285156 7.625 -2.734375 C 7.625 -3.503906 7.078125 -3.972656 5.984375 -4.140625 L 4.5 -4.359375 C 3.539062 -4.503906 2.820312 -4.804688 2.34375 -5.265625 C 1.863281 -5.734375 1.625 -6.382812 1.625 -7.21875 C 1.625 -8.101562 1.9375 -8.789062 2.5625 -9.28125 C 3.1875 -9.769531 4.0625 -10.015625 5.1875 -10.015625 L 5.6875 -10.015625 C 6.164062 -10.015625 6.601562 -9.953125 7 -9.828125 C 7.40625 -9.710938 7.765625 -9.539062 8.078125 -9.3125 C 8.390625 -9.09375 8.644531 -8.832031 8.84375 -8.53125 C 9.039062 -8.226562 9.164062 -7.894531 9.21875 -7.53125 L 7.53125 -7.53125 C 7.457031 -7.832031 7.253906 -8.082031 6.921875 -8.28125 C 6.585938 -8.476562 6.175781 -8.578125 5.6875 -8.578125 L 5.1875 -8.578125 C 4.570312 -8.578125 4.09375 -8.457031 3.75 -8.21875 C 3.414062 -7.976562 3.25 -7.625 3.25 -7.15625 C 3.25 -6.769531 3.363281 -6.476562 3.59375 -6.28125 C 3.832031 -6.082031 4.210938 -5.945312 4.734375 -5.875 L 6.21875 -5.671875 C 7.28125 -5.515625 8.050781 -5.203125 8.53125 -4.734375 C 9.019531 -4.273438 9.265625 -3.613281 9.265625 -2.75 C 9.265625 -1.832031 8.941406 -1.113281 8.296875 -0.59375 C 7.660156 -0.0820312 6.757812 0.171875 5.59375 0.171875 Z M 5.09375 0.171875 "/></g></g></g><g fill="#ffffff" fill-opacity="1"><g transform="translate(118.642495, 17.960644)"><g><path d="M 1.078125 -9.828125 L 3.9375 -9.828125 L 3.9375 -12.875 L 5.546875 -12.875 L 5.546875 -9.828125 L 9.390625 -9.828125 L 9.390625 -8.359375 L 5.546875 -8.359375 L 5.546875 -2.53125 C 5.546875 -2.195312 5.648438 -1.9375 5.859375 -1.75 C 6.066406 -1.5625 6.347656 -1.46875 6.703125 -1.46875 L 9.203125 -1.46875 L 9.203125 0 L 6.703125 0 C 5.859375 0 5.1875 -0.226562 4.6875 -0.6875 C 4.1875 -1.15625 3.9375 -1.769531 3.9375 -2.53125 L 3.9375 -8.359375 L 1.078125 -8.359375 Z M 1.078125 -9.828125 "/></g></g></g><g fill="#ffffff" fill-opacity="1"><g transform="translate(129.354745, 17.960644)"><g><path d="M 3.03125 -3.671875 C 3.03125 -2.910156 3.234375 -2.316406 3.640625 -1.890625 C 4.054688 -1.460938 4.628906 -1.25 5.359375 -1.25 C 6.078125 -1.25 6.644531 -1.460938 7.0625 -1.890625 C 7.476562 -2.316406 7.6875 -2.910156 7.6875 -3.671875 L 7.6875 -6.171875 C 7.6875 -6.921875 7.476562 -7.507812 7.0625 -7.9375 C 6.644531 -8.363281 6.078125 -8.578125 5.359375 -8.578125 C 4.648438 -8.578125 4.082031 -8.363281 3.65625 -7.9375 C 3.238281 -7.507812 3.03125 -6.921875 3.03125 -6.171875 Z M 1.4375 -6.171875 C 1.4375 -6.765625 1.523438 -7.296875 1.703125 -7.765625 C 1.890625 -8.234375 2.148438 -8.632812 2.484375 -8.96875 C 2.828125 -9.300781 3.238281 -9.554688 3.71875 -9.734375 C 4.207031 -9.921875 4.753906 -10.015625 5.359375 -10.015625 C 6.578125 -10.015625 7.535156 -9.671875 8.234375 -8.984375 C 8.941406 -8.304688 9.296875 -7.375 9.296875 -6.1875 L 9.296875 -3.671875 C 9.296875 -3.066406 9.207031 -2.523438 9.03125 -2.046875 C 8.851562 -1.578125 8.59375 -1.175781 8.25 -0.84375 C 7.90625 -0.519531 7.488281 -0.269531 7 -0.09375 C 6.519531 0.0820312 5.972656 0.171875 5.359375 0.171875 C 4.753906 0.171875 4.207031 0.0820312 3.71875 -0.09375 C 3.238281 -0.269531 2.828125 -0.523438 2.484375 -0.859375 C 2.148438 -1.191406 1.890625 -1.59375 1.703125 -2.0625 C 1.523438 -2.539062 1.4375 -3.078125 1.4375 -3.671875 Z M 1.4375 -6.171875 "/></g></g></g><g fill="#ffffff" fill-opacity="1"><g transform="translate(140.066995, 17.960644)"><g><path d="M 2 -9.828125 L 3.515625 -9.828125 L 3.515625 -8.140625 L 3.671875 -8.140625 C 3.816406 -8.722656 4.132812 -9.179688 4.625 -9.515625 C 5.113281 -9.847656 5.71875 -10.015625 6.4375 -10.015625 C 7.46875 -10.015625 8.28125 -9.6875 8.875 -9.03125 C 9.46875 -8.382812 9.765625 -7.492188 9.765625 -6.359375 L 9.765625 -5.8125 L 8.15625 -5.8125 L 8.15625 -6.171875 C 8.15625 -6.941406 7.957031 -7.535156 7.5625 -7.953125 C 7.175781 -8.378906 6.628906 -8.59375 5.921875 -8.59375 C 5.210938 -8.59375 4.648438 -8.375 4.234375 -7.9375 C 3.816406 -7.507812 3.609375 -6.921875 3.609375 -6.171875 L 3.609375 0 L 2 0 Z M 2 -9.828125 "/></g></g></g><g fill="#ffffff" fill-opacity="1"><g transform="translate(150.779245, 17.960644)"><g><path d="M 2.6875 -9.828125 L 4.9375 -4.1875 C 5.039062 -3.90625 5.125 -3.644531 5.1875 -3.40625 C 5.257812 -3.175781 5.3125 -2.96875 5.34375 -2.78125 C 5.394531 -2.5625 5.425781 -2.363281 5.4375 -2.1875 L 5.5625 -2.1875 C 5.570312 -2.363281 5.601562 -2.554688 5.65625 -2.765625 C 5.6875 -2.960938 5.726562 -3.175781 5.78125 -3.40625 C 5.84375 -3.644531 5.925781 -3.90625 6.03125 -4.1875 L 8.09375 -9.828125 L 9.828125 -9.828125 L 5.0625 2.953125 L 3.34375 2.953125 L 4.703125 -0.71875 L 0.890625 -9.828125 Z M 2.6875 -9.828125 "/></g></g></g></g></g></svg>