<svg xmlns="http://www.w3.org/2000/svg" xmlns:xlink="http://www.w3.org/1999/xlink" width="748" zoomAndPan="magnify" viewBox="0 0 561 316.499991" height="422" preserveAspectRatio="xMidYMid meet" version="1.0"><defs><g/><clipPath id="85af161f27"><path d="M 0.441406 0 L 560.554688 0 L 560.554688 316 L 0.441406 316 Z M 0.441406 0 " clip-rule="nonzero"/></clipPath><clipPath id="d27ea16812"><path d="M 24.40625 0 L 539.21875 0 C 552.453125 0 563.179688 10.726562 563.179688 23.960938 L 563.179688 292.039062 C 563.179688 305.273438 552.453125 316 539.21875 316 L 24.40625 316 C 11.171875 316 0.441406 305.273438 0.441406 292.039062 L 0.441406 23.960938 C 0.441406 10.726562 11.171875 0 24.40625 0 Z M 24.40625 0 " clip-rule="nonzero"/></clipPath><clipPath id="741af25aca"><path d="M 0.441406 0 L 560.554688 0 L 560.554688 316 L 0.441406 316 Z M 0.441406 0 " clip-rule="nonzero"/></clipPath><clipPath id="0c1a77c444"><path d="M 24.40625 0 L 539.21875 0 C 552.453125 0 563.179688 10.726562 563.179688 23.960938 L 563.179688 292.039062 C 563.179688 305.273438 552.453125 316 539.21875 316 L 24.40625 316 C 11.171875 316 0.441406 305.273438 0.441406 292.039062 L 0.441406 23.960938 C 0.441406 10.726562 11.171875 0 24.40625 0 Z M 24.40625 0 " clip-rule="nonzero"/></clipPath><linearGradient x1="49.975249" gradientTransform="matrix(1.234378, 0, 0, 1.234378, 0.434414, 0)" y1="-49.968751" x2="404.856772" gradientUnits="userSpaceOnUse" y2="304.912762" id="6361e5902f"><stop stop-opacity="1" stop-color="rgb(13.328552%, 13.328552%, 13.328552%)" offset="0"/><stop stop-opacity="1" stop-color="rgb(13.188171%, 13.188171%, 13.188171%)" offset="0.03125"/><stop stop-opacity="1" stop-color="rgb(12.90741%, 12.90741%, 12.90741%)" offset="0.0625"/><stop stop-opacity="1" stop-color="rgb(12.626648%, 12.626648%, 12.626648%)" offset="0.09375"/><stop stop-opacity="1" stop-color="rgb(12.345886%, 12.345886%, 12.345886%)" offset="0.125"/><stop stop-opacity="1" stop-color="rgb(12.065125%, 12.065125%, 12.065125%)" offset="0.15625"/><stop stop-opacity="1" stop-color="rgb(11.782837%, 11.782837%, 11.782837%)" offset="0.1875"/><stop stop-opacity="1" stop-color="rgb(11.502075%, 11.502075%, 11.502075%)" offset="0.21875"/><stop stop-opacity="1" stop-color="rgb(11.221313%, 11.221313%, 11.221313%)" offset="0.25"/><stop stop-opacity="1" stop-color="rgb(10.940552%, 10.940552%, 10.940552%)" offset="0.28125"/><stop stop-opacity="1" stop-color="rgb(10.65979%, 10.65979%, 10.65979%)" offset="0.3125"/><stop stop-opacity="1" stop-color="rgb(10.377502%, 10.377502%, 10.377502%)" offset="0.34375"/><stop stop-opacity="1" stop-color="rgb(10.096741%, 10.096741%, 10.096741%)" offset="0.360684"/><stop stop-opacity="1" stop-color="rgb(9.95636%, 9.95636%, 9.95636%)" offset="0.375"/><stop stop-opacity="1" stop-color="rgb(9.815979%, 9.815979%, 9.815979%)" offset="0.40625"/><stop stop-opacity="1" stop-color="rgb(9.535217%, 9.535217%, 9.535217%)" offset="0.4375"/><stop stop-opacity="1" stop-color="rgb(9.254456%, 9.254456%, 9.254456%)" offset="0.46875"/><stop stop-opacity="1" stop-color="rgb(8.973694%, 8.973694%, 8.973694%)" offset="0.5"/><stop stop-opacity="1" stop-color="rgb(8.691406%, 8.691406%, 8.691406%)" offset="0.53125"/><stop stop-opacity="1" stop-color="rgb(8.410645%, 8.410645%, 8.410645%)" offset="0.5625"/><stop stop-opacity="1" stop-color="rgb(8.129883%, 8.129883%, 8.129883%)" offset="0.59375"/><stop stop-opacity="1" stop-color="rgb(7.849121%, 7.849121%, 7.849121%)" offset="0.625"/><stop stop-opacity="1" stop-color="rgb(7.568359%, 7.568359%, 7.568359%)" offset="0.639316"/><stop stop-opacity="1" stop-color="rgb(7.427979%, 7.427979%, 7.427979%)" offset="0.65625"/><stop stop-opacity="1" stop-color="rgb(7.286072%, 7.286072%, 7.286072%)" offset="0.6875"/><stop stop-opacity="1" stop-color="rgb(7.00531%, 7.00531%, 7.00531%)" offset="0.71875"/><stop stop-opacity="1" stop-color="rgb(6.724548%, 6.724548%, 6.724548%)" offset="0.75"/><stop stop-opacity="1" stop-color="rgb(6.443787%, 6.443787%, 6.443787%)" offset="0.78125"/><stop stop-opacity="1" stop-color="rgb(6.163025%, 6.163025%, 6.163025%)" offset="0.8125"/><stop stop-opacity="1" stop-color="rgb(5.882263%, 5.882263%, 5.882263%)" offset="0.84375"/><stop stop-opacity="1" stop-color="rgb(5.599976%, 5.599976%, 5.599976%)" offset="0.875"/><stop stop-opacity="1" stop-color="rgb(5.319214%, 5.319214%, 5.319214%)" offset="0.90625"/><stop stop-opacity="1" stop-color="rgb(5.038452%, 5.038452%, 5.038452%)" offset="0.9375"/><stop stop-opacity="1" stop-color="rgb(4.75769%, 4.75769%, 4.75769%)" offset="0.96875"/><stop stop-opacity="1" stop-color="rgb(4.476929%, 4.476929%, 4.476929%)" offset="1"/></linearGradient><clipPath id="c847d752fb"><rect x="0" width="561" y="0" height="316"/></clipPath><clipPath id="cea711bdf3"><path d="M 182 141.457031 L 209.367188 141.457031 L 209.367188 168 L 182 168 Z M 182 141.457031 " clip-rule="nonzero"/></clipPath><clipPath id="40955b5376"><path d="M 171.175781 147 L 204 147 L 204 179.644531 L 171.175781 179.644531 Z M 171.175781 147 " clip-rule="nonzero"/></clipPath><clipPath id="f3783f0a25"><rect x="0" width="165" y="0" height="14"/></clipPath><clipPath id="d01327d8e9"><rect x="0" width="165" y="0" height="28"/></clipPath></defs><g clip-path="url(#85af161f27)"><g clip-path="url(#d27ea16812)"><g transform="matrix(1, 0, 0, 1, 0.000000000000000056, 0)"><g clip-path="url(#c847d752fb)"><g clip-path="url(#741af25aca)"><g clip-path="url(#0c1a77c444)"><path fill="url(#6361e5902f)" d="M 0.441406 0 L 0.441406 316 L 560.558594 316 L 560.558594 0 Z M 0.441406 0 " fill-rule="nonzero"/></g></g></g></g></g></g><g clip-path="url(#cea711bdf3)"><path fill="#a6a6a6" d="M 200.738281 142.167969 C 201.445312 141.460938 202.59375 141.460938 203.304688 142.167969 L 208.746094 147.613281 C 209.457031 148.320312 209.457031 149.46875 208.746094 150.179688 L 192.417969 166.507812 C 192.140625 166.785156 191.78125 166.964844 191.390625 167.019531 L 185.039062 167.925781 C 184.476562 168.007812 183.90625 167.816406 183.5 167.414062 C 183.097656 167.011719 182.90625 166.441406 182.988281 165.875 L 183.894531 159.523438 C 183.949219 159.136719 184.132812 158.777344 184.410156 158.5 Z M 187.402344 160.636719 L 186.921875 163.992188 L 190.28125 163.511719 L 204.898438 148.894531 L 202.019531 146.015625 Z M 187.402344 160.636719 " fill-opacity="1" fill-rule="evenodd"/></g><g clip-path="url(#40955b5376)"><path fill="#a6a6a6" d="M 177.527344 150.710938 C 176.023438 150.710938 174.804688 151.925781 174.804688 153.429688 L 174.804688 173.390625 C 174.804688 174.890625 176.023438 176.109375 177.527344 176.109375 L 197.484375 176.109375 C 198.988281 176.109375 200.207031 174.890625 200.207031 173.390625 L 200.207031 159.78125 L 203.835938 159.78125 L 203.835938 173.390625 C 203.835938 176.894531 200.992188 179.738281 197.484375 179.738281 L 177.527344 179.738281 C 174.019531 179.738281 171.175781 176.894531 171.175781 173.390625 L 171.175781 153.429688 C 171.175781 149.921875 174.019531 147.082031 177.527344 147.082031 L 191.132812 147.082031 L 191.132812 150.710938 Z M 177.527344 150.710938 " fill-opacity="1" fill-rule="evenodd"/></g><g transform="matrix(1, 0, 0, 1, 225, 166)"><g clip-path="url(#f3783f0a25)"><g fill="#a6a6a6" fill-opacity="1"><g transform="translate(1.024343, 10.776877)"><g><path d="M 2.28125 1.203125 L 2.28125 -9.03125 L 4.953125 -9.03125 L 4.953125 -8.15625 L 3.265625 -8.15625 L 3.265625 0.328125 L 4.953125 0.328125 L 4.953125 1.203125 Z M 2.28125 1.203125 "/></g></g></g><g fill="#a6a6a6" fill-opacity="1"><g transform="translate(7.547692, 10.776877)"><g/></g></g><g fill="#a6a6a6" fill-opacity="1"><g transform="translate(14.067444, 10.776877)"><g/></g></g><g fill="#a6a6a6" fill-opacity="1"><g transform="translate(20.594389, 10.776877)"><g><path d="M 0.984375 -5.984375 L 1.953125 -5.984375 L 1.953125 -2.109375 C 1.953125 -1.203125 2.382812 -0.75 3.25 -0.75 C 4.125 -0.75 4.5625 -1.203125 4.5625 -2.109375 L 4.5625 -5.984375 L 5.546875 -5.984375 L 5.546875 -2.109375 C 5.546875 -1.398438 5.347656 -0.851562 4.953125 -0.46875 C 4.554688 -0.0820312 3.988281 0.109375 3.25 0.109375 C 2.53125 0.109375 1.972656 -0.0820312 1.578125 -0.46875 C 1.179688 -0.863281 0.984375 -1.410156 0.984375 -2.109375 Z M 0.984375 -5.984375 "/></g></g></g><g fill="#a6a6a6" fill-opacity="1"><g transform="translate(27.114142, 10.776877)"><g><path d="M 3.390625 -7.9375 L 3.390625 -1.734375 C 3.390625 -1.472656 3.460938 -1.265625 3.609375 -1.109375 C 3.753906 -0.960938 3.953125 -0.890625 4.203125 -0.890625 L 5.984375 -0.890625 L 5.984375 0 L 4.203125 0 C 3.648438 0 3.210938 -0.148438 2.890625 -0.453125 C 2.578125 -0.765625 2.421875 -1.191406 2.421875 -1.734375 L 2.421875 -7.046875 L 0.4375 -7.046875 L 0.4375 -7.9375 Z M 3.390625 -7.9375 "/></g></g></g><g fill="#a6a6a6" fill-opacity="1"><g transform="translate(33.633894, 10.776877)"><g><path d="M 0.65625 -5.984375 L 2.390625 -5.984375 L 2.390625 -7.828125 L 3.375 -7.828125 L 3.375 -5.984375 L 5.703125 -5.984375 L 5.703125 -5.09375 L 3.375 -5.09375 L 3.375 -1.546875 C 3.375 -1.335938 3.4375 -1.175781 3.5625 -1.0625 C 3.6875 -0.945312 3.859375 -0.890625 4.078125 -0.890625 L 5.59375 -0.890625 L 5.59375 0 L 4.078125 0 C 3.566406 0 3.15625 -0.140625 2.84375 -0.421875 C 2.539062 -0.703125 2.390625 -1.078125 2.390625 -1.546875 L 2.390625 -5.09375 L 0.65625 -5.09375 Z M 0.65625 -5.984375 "/></g></g></g><g fill="#a6a6a6" fill-opacity="1"><g transform="translate(40.153647, 10.776877)"><g><path d="M 1.21875 -5.984375 L 2.140625 -5.984375 L 2.140625 -4.953125 L 2.234375 -4.953125 C 2.328125 -5.304688 2.519531 -5.582031 2.8125 -5.78125 C 3.113281 -5.988281 3.484375 -6.09375 3.921875 -6.09375 C 4.546875 -6.09375 5.035156 -5.894531 5.390625 -5.5 C 5.753906 -5.101562 5.9375 -4.5625 5.9375 -3.875 L 5.9375 -3.53125 L 4.953125 -3.53125 L 4.953125 -3.75 C 4.953125 -4.21875 4.832031 -4.582031 4.59375 -4.84375 C 4.363281 -5.101562 4.03125 -5.234375 3.59375 -5.234375 C 3.164062 -5.234375 2.828125 -5.097656 2.578125 -4.828125 C 2.328125 -4.566406 2.203125 -4.207031 2.203125 -3.75 L 2.203125 0 L 1.21875 0 Z M 1.21875 -5.984375 "/></g></g></g><g fill="#a6a6a6" fill-opacity="1"><g transform="translate(46.673399, 10.776877)"><g><path d="M 0.6875 -1.734375 C 0.6875 -2.023438 0.734375 -2.28125 0.828125 -2.5 C 0.929688 -2.726562 1.070312 -2.921875 1.25 -3.078125 C 1.4375 -3.242188 1.660156 -3.367188 1.921875 -3.453125 C 2.179688 -3.546875 2.476562 -3.59375 2.8125 -3.59375 L 4.59375 -3.59375 L 4.59375 -4.078125 C 4.59375 -4.441406 4.46875 -4.726562 4.21875 -4.9375 C 3.976562 -5.144531 3.628906 -5.25 3.171875 -5.25 C 2.835938 -5.25 2.550781 -5.1875 2.3125 -5.0625 C 2.082031 -4.945312 1.925781 -4.78125 1.84375 -4.5625 L 0.875 -4.5625 C 0.96875 -5.03125 1.222656 -5.398438 1.640625 -5.671875 C 2.054688 -5.953125 2.578125 -6.09375 3.203125 -6.09375 C 3.941406 -6.09375 4.519531 -5.921875 4.9375 -5.578125 C 5.351562 -5.234375 5.5625 -4.75 5.5625 -4.125 L 5.5625 0 L 4.671875 0 L 4.671875 -1.140625 L 4.59375 -1.140625 C 4.5 -0.753906 4.273438 -0.445312 3.921875 -0.21875 C 3.578125 0 3.15625 0.109375 2.65625 0.109375 C 2.050781 0.109375 1.570312 -0.0546875 1.21875 -0.390625 C 0.863281 -0.722656 0.6875 -1.171875 0.6875 -1.734375 Z M 2.875 -0.703125 C 3.113281 -0.703125 3.335938 -0.734375 3.546875 -0.796875 C 3.765625 -0.859375 3.945312 -0.945312 4.09375 -1.0625 C 4.25 -1.1875 4.367188 -1.328125 4.453125 -1.484375 C 4.546875 -1.648438 4.59375 -1.828125 4.59375 -2.015625 L 4.59375 -2.828125 L 2.828125 -2.828125 C 2.460938 -2.828125 2.175781 -2.734375 1.96875 -2.546875 C 1.757812 -2.359375 1.65625 -2.097656 1.65625 -1.765625 C 1.65625 -1.429688 1.757812 -1.171875 1.96875 -0.984375 C 2.1875 -0.796875 2.488281 -0.703125 2.875 -0.703125 Z M 2.875 -0.703125 "/></g></g></g><g fill="#a6a6a6" fill-opacity="1"><g transform="translate(53.193152, 10.776877)"><g><path d="M 3.34375 0.109375 C 2.976562 0.109375 2.644531 0.0546875 2.34375 -0.046875 C 2.050781 -0.160156 1.800781 -0.316406 1.59375 -0.515625 C 1.394531 -0.722656 1.238281 -0.972656 1.125 -1.265625 C 1.007812 -1.554688 0.953125 -1.878906 0.953125 -2.234375 L 0.953125 -3.75 C 0.953125 -4.101562 1.007812 -4.425781 1.125 -4.71875 C 1.238281 -5.007812 1.394531 -5.253906 1.59375 -5.453125 C 1.800781 -5.660156 2.050781 -5.816406 2.34375 -5.921875 C 2.644531 -6.035156 2.976562 -6.09375 3.34375 -6.09375 C 4.007812 -6.09375 4.550781 -5.910156 4.96875 -5.546875 C 5.394531 -5.191406 5.648438 -4.703125 5.734375 -4.078125 L 4.765625 -4.078125 C 4.710938 -4.421875 4.554688 -4.695312 4.296875 -4.90625 C 4.046875 -5.113281 3.726562 -5.21875 3.34375 -5.21875 C 2.914062 -5.21875 2.570312 -5.085938 2.3125 -4.828125 C 2.0625 -4.566406 1.9375 -4.207031 1.9375 -3.75 L 1.9375 -2.234375 C 1.9375 -1.773438 2.0625 -1.414062 2.3125 -1.15625 C 2.5625 -0.894531 2.90625 -0.765625 3.34375 -0.765625 C 3.726562 -0.765625 4.046875 -0.863281 4.296875 -1.0625 C 4.554688 -1.269531 4.710938 -1.550781 4.765625 -1.90625 L 5.734375 -1.90625 C 5.640625 -1.269531 5.378906 -0.773438 4.953125 -0.421875 C 4.535156 -0.0664062 4 0.109375 3.34375 0.109375 Z M 3.34375 0.109375 "/></g></g></g><g fill="#a6a6a6" fill-opacity="1"><g transform="translate(59.712905, 10.776877)"><g><path d="M 1.84375 -2.234375 C 1.84375 -1.773438 1.96875 -1.414062 2.21875 -1.15625 C 2.46875 -0.894531 2.816406 -0.765625 3.265625 -0.765625 C 3.703125 -0.765625 4.046875 -0.894531 4.296875 -1.15625 C 4.546875 -1.414062 4.671875 -1.773438 4.671875 -2.234375 L 4.671875 -3.75 C 4.671875 -4.207031 4.546875 -4.566406 4.296875 -4.828125 C 4.046875 -5.085938 3.703125 -5.21875 3.265625 -5.21875 C 2.828125 -5.21875 2.476562 -5.085938 2.21875 -4.828125 C 1.96875 -4.566406 1.84375 -4.207031 1.84375 -3.75 Z M 0.875 -3.75 C 0.875 -4.113281 0.925781 -4.4375 1.03125 -4.71875 C 1.144531 -5.007812 1.304688 -5.253906 1.515625 -5.453125 C 1.722656 -5.660156 1.972656 -5.816406 2.265625 -5.921875 C 2.554688 -6.035156 2.890625 -6.09375 3.265625 -6.09375 C 4.003906 -6.09375 4.585938 -5.882812 5.015625 -5.46875 C 5.441406 -5.050781 5.65625 -4.484375 5.65625 -3.765625 L 5.65625 -2.234375 C 5.65625 -1.867188 5.597656 -1.539062 5.484375 -1.25 C 5.378906 -0.957031 5.222656 -0.710938 5.015625 -0.515625 C 4.804688 -0.316406 4.550781 -0.160156 4.25 -0.046875 C 3.957031 0.0546875 3.628906 0.109375 3.265625 0.109375 C 2.890625 0.109375 2.554688 0.0546875 2.265625 -0.046875 C 1.972656 -0.160156 1.722656 -0.316406 1.515625 -0.515625 C 1.304688 -0.722656 1.144531 -0.972656 1.03125 -1.265625 C 0.925781 -1.554688 0.875 -1.878906 0.875 -2.234375 Z M 0.875 -3.75 "/></g></g></g><g fill="#a6a6a6" fill-opacity="1"><g transform="translate(66.232657, 10.776877)"><g><path d="M 0.953125 0 L 0.953125 -5.984375 L 1.875 -5.984375 L 1.875 -4.953125 L 1.96875 -4.953125 C 2.0625 -5.304688 2.25 -5.582031 2.53125 -5.78125 C 2.820312 -5.988281 3.179688 -6.09375 3.609375 -6.09375 C 3.910156 -6.09375 4.179688 -6.039062 4.421875 -5.9375 C 4.660156 -5.832031 4.863281 -5.6875 5.03125 -5.5 C 5.207031 -5.320312 5.34375 -5.101562 5.4375 -4.84375 C 5.53125 -4.582031 5.578125 -4.296875 5.578125 -3.984375 L 5.578125 0 L 4.59375 0 L 4.59375 -3.8125 C 4.59375 -4.269531 4.476562 -4.625 4.25 -4.875 C 4.019531 -5.132812 3.695312 -5.265625 3.28125 -5.265625 C 2.875 -5.265625 2.546875 -5.128906 2.296875 -4.859375 C 2.054688 -4.585938 1.9375 -4.21875 1.9375 -3.75 L 1.9375 0 Z M 0.953125 0 "/></g></g></g><g fill="#a6a6a6" fill-opacity="1"><g transform="translate(72.75241, 10.776877)"><g><path d="M 0.65625 -5.984375 L 2.390625 -5.984375 L 2.390625 -7.828125 L 3.375 -7.828125 L 3.375 -5.984375 L 5.703125 -5.984375 L 5.703125 -5.09375 L 3.375 -5.09375 L 3.375 -1.546875 C 3.375 -1.335938 3.4375 -1.175781 3.5625 -1.0625 C 3.6875 -0.945312 3.859375 -0.890625 4.078125 -0.890625 L 5.59375 -0.890625 L 5.59375 0 L 4.078125 0 C 3.566406 0 3.15625 -0.140625 2.84375 -0.421875 C 2.539062 -0.703125 2.390625 -1.078125 2.390625 -1.546875 L 2.390625 -5.09375 L 0.65625 -5.09375 Z M 0.65625 -5.984375 "/></g></g></g><g fill="#a6a6a6" fill-opacity="1"><g transform="translate(79.272162, 10.776877)"><g><path d="M 3.265625 0.109375 C 2.515625 0.109375 1.925781 -0.09375 1.5 -0.5 C 1.082031 -0.90625 0.875 -1.460938 0.875 -2.171875 L 0.875 -3.8125 C 0.875 -4.519531 1.082031 -5.078125 1.5 -5.484375 C 1.925781 -5.890625 2.515625 -6.09375 3.265625 -6.09375 C 4.003906 -6.09375 4.585938 -5.890625 5.015625 -5.484375 C 5.441406 -5.078125 5.65625 -4.519531 5.65625 -3.8125 L 5.65625 -2.703125 L 1.84375 -2.703125 L 1.84375 -2.234375 C 1.84375 -1.773438 1.96875 -1.414062 2.21875 -1.15625 C 2.46875 -0.894531 2.816406 -0.765625 3.265625 -0.765625 C 3.585938 -0.765625 3.867188 -0.8125 4.109375 -0.90625 C 4.347656 -1.007812 4.523438 -1.160156 4.640625 -1.359375 L 5.625 -1.359375 C 5.5 -0.898438 5.222656 -0.539062 4.796875 -0.28125 C 4.378906 -0.0195312 3.867188 0.109375 3.265625 0.109375 Z M 4.671875 -3.53125 L 4.671875 -3.8125 C 4.671875 -4.257812 4.546875 -4.601562 4.296875 -4.84375 C 4.054688 -5.09375 3.710938 -5.21875 3.265625 -5.21875 C 2.816406 -5.21875 2.46875 -5.09375 2.21875 -4.84375 C 1.96875 -4.601562 1.84375 -4.257812 1.84375 -3.8125 L 1.84375 -3.53125 Z M 4.671875 -3.53125 "/></g></g></g><g fill="#a6a6a6" fill-opacity="1"><g transform="translate(85.791915, 10.776877)"><g><path d="M 0.515625 0 L 2.6875 -3.0625 L 0.65625 -5.984375 L 1.828125 -5.984375 L 3.078125 -4.078125 C 3.109375 -4.023438 3.132812 -3.972656 3.15625 -3.921875 C 3.1875 -3.878906 3.207031 -3.84375 3.21875 -3.8125 C 3.226562 -3.769531 3.238281 -3.734375 3.25 -3.703125 L 3.296875 -3.703125 C 3.304688 -3.734375 3.316406 -3.769531 3.328125 -3.8125 C 3.335938 -3.84375 3.351562 -3.878906 3.375 -3.921875 C 3.40625 -3.972656 3.4375 -4.023438 3.46875 -4.078125 L 4.71875 -5.984375 L 5.890625 -5.984375 L 3.84375 -3.078125 L 6 0 L 4.828125 0 L 3.484375 -2.015625 C 3.460938 -2.066406 3.4375 -2.113281 3.40625 -2.15625 C 3.382812 -2.207031 3.363281 -2.257812 3.34375 -2.3125 C 3.320312 -2.351562 3.300781 -2.398438 3.28125 -2.453125 L 3.234375 -2.453125 C 3.222656 -2.398438 3.207031 -2.351562 3.1875 -2.3125 C 3.164062 -2.257812 3.144531 -2.207031 3.125 -2.15625 C 3.101562 -2.113281 3.070312 -2.066406 3.03125 -2.015625 L 1.6875 0 Z M 0.515625 0 "/></g></g></g><g fill="#a6a6a6" fill-opacity="1"><g transform="translate(92.311668, 10.776877)"><g><path d="M 0.65625 -5.984375 L 2.390625 -5.984375 L 2.390625 -7.828125 L 3.375 -7.828125 L 3.375 -5.984375 L 5.703125 -5.984375 L 5.703125 -5.09375 L 3.375 -5.09375 L 3.375 -1.546875 C 3.375 -1.335938 3.4375 -1.175781 3.5625 -1.0625 C 3.6875 -0.945312 3.859375 -0.890625 4.078125 -0.890625 L 5.59375 -0.890625 L 5.59375 0 L 4.078125 0 C 3.566406 0 3.15625 -0.140625 2.84375 -0.421875 C 2.539062 -0.703125 2.390625 -1.078125 2.390625 -1.546875 L 2.390625 -5.09375 L 0.65625 -5.09375 Z M 0.65625 -5.984375 "/></g></g></g><g fill="#a6a6a6" fill-opacity="1"><g transform="translate(98.83142, 10.776877)"><g/></g></g><g fill="#a6a6a6" fill-opacity="1"><g transform="translate(105.351173, 10.776877)"><g><path d="M 0.796875 -3.8125 C 0.796875 -4.15625 0.84375 -4.46875 0.9375 -4.75 C 1.03125 -5.03125 1.164062 -5.269531 1.34375 -5.46875 C 1.519531 -5.664062 1.734375 -5.816406 1.984375 -5.921875 C 2.242188 -6.035156 2.53125 -6.09375 2.84375 -6.09375 C 3.269531 -6.09375 3.632812 -5.988281 3.9375 -5.78125 C 4.25 -5.570312 4.457031 -5.273438 4.5625 -4.890625 L 4.640625 -4.890625 L 4.640625 -5.984375 L 5.5625 -5.984375 L 5.5625 -0.4375 C 5.5625 0.269531 5.351562 0.816406 4.9375 1.203125 C 4.53125 1.597656 3.953125 1.796875 3.203125 1.796875 L 1.734375 1.796875 L 1.734375 0.90625 L 3.203125 0.90625 C 3.640625 0.90625 3.976562 0.785156 4.21875 0.546875 C 4.46875 0.316406 4.59375 -0.0078125 4.59375 -0.4375 L 4.59375 -0.65625 L 4.625 -1.734375 L 4.5625 -1.734375 C 4.457031 -1.347656 4.25 -1.050781 3.9375 -0.84375 C 3.632812 -0.644531 3.269531 -0.546875 2.84375 -0.546875 C 2.53125 -0.546875 2.25 -0.597656 2 -0.703125 C 1.75 -0.816406 1.535156 -0.96875 1.359375 -1.15625 C 1.179688 -1.351562 1.039062 -1.59375 0.9375 -1.875 C 0.84375 -2.164062 0.796875 -2.484375 0.796875 -2.828125 Z M 1.796875 -2.828125 C 1.796875 -2.378906 1.921875 -2.023438 2.171875 -1.765625 C 2.421875 -1.515625 2.765625 -1.390625 3.203125 -1.390625 C 3.628906 -1.390625 3.96875 -1.515625 4.21875 -1.765625 C 4.46875 -2.023438 4.59375 -2.378906 4.59375 -2.828125 L 4.59375 -3.8125 C 4.59375 -4.257812 4.46875 -4.609375 4.21875 -4.859375 C 3.96875 -5.109375 3.628906 -5.234375 3.203125 -5.234375 C 2.765625 -5.234375 2.421875 -5.109375 2.171875 -4.859375 C 1.921875 -4.609375 1.796875 -4.257812 1.796875 -3.8125 Z M 1.796875 -2.828125 "/></g></g></g><g fill="#a6a6a6" fill-opacity="1"><g transform="translate(111.870925, 10.776877)"><g><path d="M 0.984375 -5.984375 L 1.953125 -5.984375 L 1.953125 -2.109375 C 1.953125 -1.203125 2.382812 -0.75 3.25 -0.75 C 4.125 -0.75 4.5625 -1.203125 4.5625 -2.109375 L 4.5625 -5.984375 L 5.546875 -5.984375 L 5.546875 -2.109375 C 5.546875 -1.398438 5.347656 -0.851562 4.953125 -0.46875 C 4.554688 -0.0820312 3.988281 0.109375 3.25 0.109375 C 2.53125 0.109375 1.972656 -0.0820312 1.578125 -0.46875 C 1.179688 -0.863281 0.984375 -1.410156 0.984375 -2.109375 Z M 0.984375 -5.984375 "/></g></g></g><g fill="#a6a6a6" fill-opacity="1"><g transform="translate(118.390678, 10.776877)"><g><path d="M 1.03125 0 L 1.03125 -0.890625 L 3.203125 -0.890625 L 3.203125 -5.09375 L 1.3125 -5.09375 L 1.3125 -5.984375 L 4.1875 -5.984375 L 4.1875 -0.890625 L 5.984375 -0.890625 L 5.984375 0 Z M 3.421875 -8.3125 L 3.640625 -8.3125 C 3.847656 -8.3125 4.015625 -8.25 4.140625 -8.125 C 4.273438 -8.007812 4.34375 -7.851562 4.34375 -7.65625 C 4.34375 -7.457031 4.273438 -7.300781 4.140625 -7.1875 C 4.015625 -7.070312 3.847656 -7.015625 3.640625 -7.015625 L 3.421875 -7.015625 C 3.210938 -7.015625 3.039062 -7.066406 2.90625 -7.171875 C 2.78125 -7.285156 2.71875 -7.445312 2.71875 -7.65625 C 2.71875 -7.851562 2.78125 -8.007812 2.90625 -8.125 C 3.039062 -8.25 3.210938 -8.3125 3.421875 -8.3125 Z M 3.421875 -8.3125 "/></g></g></g><g fill="#a6a6a6" fill-opacity="1"><g transform="translate(124.910431, 10.776877)"><g><path d="M 0.875 -3.75 C 0.875 -4.113281 0.921875 -4.441406 1.015625 -4.734375 C 1.109375 -5.023438 1.242188 -5.269531 1.421875 -5.46875 C 1.597656 -5.664062 1.804688 -5.816406 2.046875 -5.921875 C 2.296875 -6.035156 2.570312 -6.09375 2.875 -6.09375 C 3.320312 -6.09375 3.691406 -5.988281 3.984375 -5.78125 C 4.273438 -5.582031 4.46875 -5.304688 4.5625 -4.953125 L 4.640625 -4.953125 C 4.628906 -5.078125 4.625 -5.195312 4.625 -5.3125 C 4.601562 -5.425781 4.59375 -5.539062 4.59375 -5.65625 C 4.59375 -5.78125 4.59375 -5.890625 4.59375 -5.984375 L 4.59375 -7.9375 L 5.5625 -7.9375 L 5.5625 0 L 4.640625 0 L 4.640625 -1.03125 L 4.5625 -1.03125 C 4.46875 -0.664062 4.273438 -0.382812 3.984375 -0.1875 C 3.691406 0.0078125 3.320312 0.109375 2.875 0.109375 C 2.570312 0.109375 2.296875 0.0546875 2.046875 -0.046875 C 1.804688 -0.160156 1.597656 -0.316406 1.421875 -0.515625 C 1.242188 -0.710938 1.109375 -0.957031 1.015625 -1.25 C 0.921875 -1.539062 0.875 -1.867188 0.875 -2.234375 Z M 3.25 -0.734375 C 3.65625 -0.734375 3.976562 -0.867188 4.21875 -1.140625 C 4.46875 -1.410156 4.59375 -1.773438 4.59375 -2.234375 L 4.59375 -3.75 C 4.59375 -4.207031 4.46875 -4.566406 4.21875 -4.828125 C 3.976562 -5.097656 3.65625 -5.234375 3.25 -5.234375 C 2.8125 -5.234375 2.46875 -5.101562 2.21875 -4.84375 C 1.96875 -4.582031 1.84375 -4.21875 1.84375 -3.75 L 1.84375 -2.234375 C 1.84375 -1.773438 1.96875 -1.410156 2.21875 -1.140625 C 2.46875 -0.867188 2.8125 -0.734375 3.25 -0.734375 Z M 3.25 -0.734375 "/></g></g></g><g fill="#a6a6a6" fill-opacity="1"><g transform="translate(131.430183, 10.776877)"><g><path d="M 3.265625 0.109375 C 2.515625 0.109375 1.925781 -0.09375 1.5 -0.5 C 1.082031 -0.90625 0.875 -1.460938 0.875 -2.171875 L 0.875 -3.8125 C 0.875 -4.519531 1.082031 -5.078125 1.5 -5.484375 C 1.925781 -5.890625 2.515625 -6.09375 3.265625 -6.09375 C 4.003906 -6.09375 4.585938 -5.890625 5.015625 -5.484375 C 5.441406 -5.078125 5.65625 -4.519531 5.65625 -3.8125 L 5.65625 -2.703125 L 1.84375 -2.703125 L 1.84375 -2.234375 C 1.84375 -1.773438 1.96875 -1.414062 2.21875 -1.15625 C 2.46875 -0.894531 2.816406 -0.765625 3.265625 -0.765625 C 3.585938 -0.765625 3.867188 -0.8125 4.109375 -0.90625 C 4.347656 -1.007812 4.523438 -1.160156 4.640625 -1.359375 L 5.625 -1.359375 C 5.5 -0.898438 5.222656 -0.539062 4.796875 -0.28125 C 4.378906 -0.0195312 3.867188 0.109375 3.265625 0.109375 Z M 4.671875 -3.53125 L 4.671875 -3.8125 C 4.671875 -4.257812 4.546875 -4.601562 4.296875 -4.84375 C 4.054688 -5.09375 3.710938 -5.21875 3.265625 -5.21875 C 2.816406 -5.21875 2.46875 -5.09375 2.21875 -4.84375 C 1.96875 -4.601562 1.84375 -4.257812 1.84375 -3.8125 L 1.84375 -3.53125 Z M 4.671875 -3.53125 "/></g></g></g><g fill="#a6a6a6" fill-opacity="1"><g transform="translate(137.949936, 10.776877)"><g><path d="M 3.09375 0.109375 C 2.46875 0.109375 1.945312 -0.03125 1.53125 -0.3125 C 1.125 -0.601562 0.894531 -0.988281 0.84375 -1.46875 L 1.875 -1.46875 C 1.914062 -1.257812 2.046875 -1.085938 2.265625 -0.953125 C 2.492188 -0.828125 2.769531 -0.765625 3.09375 -0.765625 L 3.40625 -0.765625 C 3.789062 -0.765625 4.09375 -0.84375 4.3125 -1 C 4.53125 -1.164062 4.640625 -1.382812 4.640625 -1.65625 C 4.640625 -2.132812 4.304688 -2.421875 3.640625 -2.515625 L 2.734375 -2.65625 C 2.148438 -2.738281 1.710938 -2.921875 1.421875 -3.203125 C 1.128906 -3.484375 0.984375 -3.878906 0.984375 -4.390625 C 0.984375 -4.929688 1.171875 -5.347656 1.546875 -5.640625 C 1.929688 -5.941406 2.46875 -6.09375 3.15625 -6.09375 L 3.453125 -6.09375 C 3.742188 -6.09375 4.007812 -6.054688 4.25 -5.984375 C 4.5 -5.910156 4.71875 -5.804688 4.90625 -5.671875 C 5.101562 -5.535156 5.257812 -5.375 5.375 -5.1875 C 5.5 -5.007812 5.578125 -4.804688 5.609375 -4.578125 L 4.578125 -4.578125 C 4.535156 -4.765625 4.410156 -4.914062 4.203125 -5.03125 C 4.003906 -5.15625 3.753906 -5.21875 3.453125 -5.21875 L 3.15625 -5.21875 C 2.78125 -5.21875 2.488281 -5.144531 2.28125 -5 C 2.082031 -4.851562 1.984375 -4.632812 1.984375 -4.34375 C 1.984375 -4.113281 2.050781 -3.9375 2.1875 -3.8125 C 2.332031 -3.695312 2.5625 -3.617188 2.875 -3.578125 L 3.78125 -3.453125 C 4.425781 -3.359375 4.894531 -3.164062 5.1875 -2.875 C 5.488281 -2.59375 5.640625 -2.191406 5.640625 -1.671875 C 5.640625 -1.117188 5.441406 -0.679688 5.046875 -0.359375 C 4.660156 -0.046875 4.113281 0.109375 3.40625 0.109375 Z M 3.09375 0.109375 "/></g></g></g><g fill="#a6a6a6" fill-opacity="1"><g transform="translate(144.474683, 10.776877)"><g/></g></g><g fill="#a6a6a6" fill-opacity="1"><g transform="translate(150.994436, 10.776877)"><g/></g></g><g fill="#a6a6a6" fill-opacity="1"><g transform="translate(157.521381, 10.776877)"><g><path d="M 1.625 1.203125 L 1.625 0.328125 L 3.3125 0.328125 L 3.3125 -8.15625 L 1.625 -8.15625 L 1.625 -9.03125 L 4.296875 -9.03125 L 4.296875 1.203125 Z M 1.625 1.203125 "/></g></g></g></g></g><g transform="matrix(1, 0, 0, 1, 225, 135)"><g clip-path="url(#d01327d8e9)"><g fill="#ffffff" fill-opacity="1"><g transform="translate(1.074984, 21.897518)"><g><path d="M 6.796875 0.21875 C 5.234375 0.21875 4.007812 -0.203125 3.125 -1.046875 C 2.25 -1.890625 1.8125 -3.050781 1.8125 -4.53125 L 1.8125 -7.921875 C 1.8125 -9.398438 2.25 -10.5625 3.125 -11.40625 C 4.007812 -12.25 5.234375 -12.671875 6.796875 -12.671875 C 8.347656 -12.671875 9.5625 -12.25 10.4375 -11.40625 C 11.320312 -10.5625 11.765625 -9.398438 11.765625 -7.921875 L 11.765625 -5.640625 L 3.84375 -5.640625 L 3.84375 -4.640625 C 3.84375 -3.691406 4.101562 -2.941406 4.625 -2.390625 C 5.144531 -1.847656 5.867188 -1.578125 6.796875 -1.578125 C 7.472656 -1.578125 8.0625 -1.679688 8.5625 -1.890625 C 9.0625 -2.109375 9.429688 -2.421875 9.671875 -2.828125 L 11.703125 -2.828125 C 11.453125 -1.878906 10.882812 -1.132812 10 -0.59375 C 9.113281 -0.0507812 8.046875 0.21875 6.796875 0.21875 Z M 9.734375 -7.328125 L 9.734375 -7.921875 C 9.734375 -8.859375 9.476562 -9.582031 8.96875 -10.09375 C 8.457031 -10.613281 7.734375 -10.875 6.796875 -10.875 C 5.859375 -10.875 5.128906 -10.613281 4.609375 -10.09375 C 4.097656 -9.582031 3.84375 -8.859375 3.84375 -7.921875 L 3.84375 -7.328125 Z M 9.734375 -7.328125 "/></g></g></g><g fill="#ffffff" fill-opacity="1"><g transform="translate(14.647507, 21.897518)"><g><path d="M 1.8125 -7.8125 C 1.8125 -8.5625 1.910156 -9.238281 2.109375 -9.84375 C 2.316406 -10.445312 2.601562 -10.957031 2.96875 -11.375 C 3.332031 -11.789062 3.769531 -12.109375 4.28125 -12.328125 C 4.789062 -12.554688 5.363281 -12.671875 6 -12.671875 C 6.914062 -12.671875 7.675781 -12.460938 8.28125 -12.046875 C 8.882812 -11.640625 9.285156 -11.054688 9.484375 -10.296875 L 9.671875 -10.296875 C 9.648438 -10.554688 9.632812 -10.816406 9.625 -11.078125 C 9.59375 -11.296875 9.570312 -11.53125 9.5625 -11.78125 C 9.550781 -12.03125 9.546875 -12.253906 9.546875 -12.453125 L 9.546875 -16.53125 L 11.59375 -16.53125 L 11.59375 0 L 9.671875 0 L 9.671875 -2.15625 L 9.484375 -2.15625 C 9.285156 -1.394531 8.882812 -0.804688 8.28125 -0.390625 C 7.675781 0.015625 6.914062 0.21875 6 0.21875 C 5.363281 0.21875 4.789062 0.109375 4.28125 -0.109375 C 3.769531 -0.335938 3.332031 -0.660156 2.96875 -1.078125 C 2.601562 -1.492188 2.316406 -2.003906 2.109375 -2.609375 C 1.910156 -3.210938 1.8125 -3.890625 1.8125 -4.640625 Z M 6.765625 -1.546875 C 7.609375 -1.546875 8.28125 -1.820312 8.78125 -2.375 C 9.289062 -2.9375 9.546875 -3.691406 9.546875 -4.640625 L 9.546875 -7.8125 C 9.546875 -8.757812 9.289062 -9.507812 8.78125 -10.0625 C 8.28125 -10.625 7.609375 -10.90625 6.765625 -10.90625 C 5.847656 -10.90625 5.128906 -10.632812 4.609375 -10.09375 C 4.097656 -9.550781 3.84375 -8.789062 3.84375 -7.8125 L 3.84375 -4.640625 C 3.84375 -3.691406 4.101562 -2.9375 4.625 -2.375 C 5.144531 -1.820312 5.859375 -1.546875 6.765625 -1.546875 Z M 6.765625 -1.546875 "/></g></g></g><g fill="#ffffff" fill-opacity="1"><g transform="translate(28.220029, 21.897518)"><g><path d="M 2.15625 0 L 2.15625 -1.859375 L 6.671875 -1.859375 L 6.671875 -10.59375 L 2.71875 -10.59375 L 2.71875 -12.453125 L 8.71875 -12.453125 L 8.71875 -1.859375 L 12.453125 -1.859375 L 12.453125 0 Z M 7.125 -17.3125 L 7.578125 -17.3125 C 8.015625 -17.3125 8.367188 -17.179688 8.640625 -16.921875 C 8.921875 -16.671875 9.0625 -16.34375 9.0625 -15.9375 C 9.0625 -15.53125 8.921875 -15.207031 8.640625 -14.96875 C 8.367188 -14.726562 8.015625 -14.609375 7.578125 -14.609375 L 7.125 -14.609375 C 6.6875 -14.609375 6.332031 -14.722656 6.0625 -14.953125 C 5.789062 -15.191406 5.65625 -15.519531 5.65625 -15.9375 C 5.65625 -16.34375 5.789062 -16.671875 6.0625 -16.921875 C 6.332031 -17.179688 6.6875 -17.3125 7.125 -17.3125 Z M 7.125 -17.3125 "/></g></g></g><g fill="#ffffff" fill-opacity="1"><g transform="translate(41.792552, 21.897518)"><g><path d="M 1.359375 -12.453125 L 4.984375 -12.453125 L 4.984375 -16.296875 L 7.015625 -16.296875 L 7.015625 -12.453125 L 11.890625 -12.453125 L 11.890625 -10.59375 L 7.015625 -10.59375 L 7.015625 -3.21875 C 7.015625 -2.789062 7.144531 -2.457031 7.40625 -2.21875 C 7.675781 -1.976562 8.035156 -1.859375 8.484375 -1.859375 L 11.65625 -1.859375 L 11.65625 0 L 8.484375 0 C 7.410156 0 6.554688 -0.289062 5.921875 -0.875 C 5.296875 -1.46875 4.984375 -2.25 4.984375 -3.21875 L 4.984375 -10.59375 L 1.359375 -10.59375 Z M 1.359375 -12.453125 "/></g></g></g><g fill="#ffffff" fill-opacity="1"><g transform="translate(55.365075, 21.897518)"><g/></g></g><g fill="#ffffff" fill-opacity="1"><g transform="translate(68.937597, 21.897518)"><g><path d="M 6.96875 0.21875 C 6.195312 0.21875 5.503906 0.109375 4.890625 -0.109375 C 4.285156 -0.335938 3.765625 -0.660156 3.328125 -1.078125 C 2.898438 -1.503906 2.570312 -2.019531 2.34375 -2.625 C 2.113281 -3.226562 2 -3.898438 2 -4.640625 L 2 -7.8125 C 2 -8.550781 2.113281 -9.222656 2.34375 -9.828125 C 2.570312 -10.429688 2.898438 -10.941406 3.328125 -11.359375 C 3.765625 -11.785156 4.285156 -12.109375 4.890625 -12.328125 C 5.503906 -12.554688 6.195312 -12.671875 6.96875 -12.671875 C 8.34375 -12.671875 9.472656 -12.296875 10.359375 -11.546875 C 11.242188 -10.804688 11.773438 -9.785156 11.953125 -8.484375 L 9.921875 -8.484375 C 9.816406 -9.210938 9.492188 -9.789062 8.953125 -10.21875 C 8.421875 -10.65625 7.757812 -10.875 6.96875 -10.875 C 6.0625 -10.875 5.34375 -10.597656 4.8125 -10.046875 C 4.289062 -9.503906 4.03125 -8.757812 4.03125 -7.8125 L 4.03125 -4.640625 C 4.03125 -3.691406 4.289062 -2.941406 4.8125 -2.390625 C 5.332031 -1.847656 6.050781 -1.578125 6.96875 -1.578125 C 7.757812 -1.578125 8.421875 -1.789062 8.953125 -2.21875 C 9.492188 -2.65625 9.816406 -3.238281 9.921875 -3.96875 L 11.953125 -3.96875 C 11.753906 -2.65625 11.210938 -1.628906 10.328125 -0.890625 C 9.453125 -0.148438 8.332031 0.21875 6.96875 0.21875 Z M 6.96875 0.21875 "/></g></g></g><g fill="#ffffff" fill-opacity="1"><g transform="translate(82.51012, 21.897518)"><g><path d="M 3.84375 -4.640625 C 3.84375 -3.691406 4.101562 -2.941406 4.625 -2.390625 C 5.144531 -1.847656 5.867188 -1.578125 6.796875 -1.578125 C 7.703125 -1.578125 8.414062 -1.847656 8.9375 -2.390625 C 9.46875 -2.941406 9.734375 -3.691406 9.734375 -4.640625 L 9.734375 -7.8125 C 9.734375 -8.757812 9.46875 -9.503906 8.9375 -10.046875 C 8.414062 -10.597656 7.703125 -10.875 6.796875 -10.875 C 5.890625 -10.875 5.171875 -10.597656 4.640625 -10.046875 C 4.109375 -9.503906 3.84375 -8.757812 3.84375 -7.8125 Z M 1.8125 -7.8125 C 1.8125 -8.5625 1.925781 -9.234375 2.15625 -9.828125 C 2.394531 -10.429688 2.726562 -10.941406 3.15625 -11.359375 C 3.582031 -11.785156 4.101562 -12.109375 4.71875 -12.328125 C 5.332031 -12.554688 6.023438 -12.671875 6.796875 -12.671875 C 8.335938 -12.671875 9.550781 -12.238281 10.4375 -11.375 C 11.320312 -10.519531 11.765625 -9.335938 11.765625 -7.828125 L 11.765625 -4.640625 C 11.765625 -3.890625 11.648438 -3.210938 11.421875 -2.609375 C 11.203125 -2.003906 10.875 -1.492188 10.4375 -1.078125 C 10.007812 -0.660156 9.488281 -0.335938 8.875 -0.109375 C 8.257812 0.109375 7.566406 0.21875 6.796875 0.21875 C 6.023438 0.21875 5.332031 0.109375 4.71875 -0.109375 C 4.101562 -0.335938 3.582031 -0.660156 3.15625 -1.078125 C 2.726562 -1.503906 2.394531 -2.019531 2.15625 -2.625 C 1.925781 -3.226562 1.8125 -3.898438 1.8125 -4.640625 Z M 1.8125 -7.8125 "/></g></g></g><g fill="#ffffff" fill-opacity="1"><g transform="translate(96.082642, 21.897518)"><g><path d="M 2 0 L 2 -12.453125 L 3.921875 -12.453125 L 3.921875 -10.296875 L 4.09375 -10.296875 C 4.289062 -11.054688 4.6875 -11.640625 5.28125 -12.046875 C 5.882812 -12.460938 6.628906 -12.671875 7.515625 -12.671875 C 8.128906 -12.671875 8.691406 -12.566406 9.203125 -12.359375 C 9.710938 -12.148438 10.144531 -11.851562 10.5 -11.46875 C 10.851562 -11.082031 11.125 -10.617188 11.3125 -10.078125 C 11.507812 -9.546875 11.609375 -8.945312 11.609375 -8.28125 L 11.609375 0 L 9.578125 0 L 9.578125 -7.953125 C 9.578125 -8.898438 9.332031 -9.632812 8.84375 -10.15625 C 8.363281 -10.6875 7.695312 -10.953125 6.84375 -10.953125 C 5.976562 -10.953125 5.289062 -10.671875 4.78125 -10.109375 C 4.28125 -9.546875 4.03125 -8.78125 4.03125 -7.8125 L 4.03125 0 Z M 2 0 "/></g></g></g><g fill="#ffffff" fill-opacity="1"><g transform="translate(109.655165, 21.897518)"><g><path d="M 1.359375 -12.453125 L 4.984375 -12.453125 L 4.984375 -16.296875 L 7.015625 -16.296875 L 7.015625 -12.453125 L 11.890625 -12.453125 L 11.890625 -10.59375 L 7.015625 -10.59375 L 7.015625 -3.21875 C 7.015625 -2.789062 7.144531 -2.457031 7.40625 -2.21875 C 7.675781 -1.976562 8.035156 -1.859375 8.484375 -1.859375 L 11.65625 -1.859375 L 11.65625 0 L 8.484375 0 C 7.410156 0 6.554688 -0.289062 5.921875 -0.875 C 5.296875 -1.46875 4.984375 -2.25 4.984375 -3.21875 L 4.984375 -10.59375 L 1.359375 -10.59375 Z M 1.359375 -12.453125 "/></g></g></g><g fill="#ffffff" fill-opacity="1"><g transform="translate(123.227688, 21.897518)"><g><path d="M 6.796875 0.21875 C 5.234375 0.21875 4.007812 -0.203125 3.125 -1.046875 C 2.25 -1.890625 1.8125 -3.050781 1.8125 -4.53125 L 1.8125 -7.921875 C 1.8125 -9.398438 2.25 -10.5625 3.125 -11.40625 C 4.007812 -12.25 5.234375 -12.671875 6.796875 -12.671875 C 8.347656 -12.671875 9.5625 -12.25 10.4375 -11.40625 C 11.320312 -10.5625 11.765625 -9.398438 11.765625 -7.921875 L 11.765625 -5.640625 L 3.84375 -5.640625 L 3.84375 -4.640625 C 3.84375 -3.691406 4.101562 -2.941406 4.625 -2.390625 C 5.144531 -1.847656 5.867188 -1.578125 6.796875 -1.578125 C 7.472656 -1.578125 8.0625 -1.679688 8.5625 -1.890625 C 9.0625 -2.109375 9.429688 -2.421875 9.671875 -2.828125 L 11.703125 -2.828125 C 11.453125 -1.878906 10.882812 -1.132812 10 -0.59375 C 9.113281 -0.0507812 8.046875 0.21875 6.796875 0.21875 Z M 9.734375 -7.328125 L 9.734375 -7.921875 C 9.734375 -8.859375 9.476562 -9.582031 8.96875 -10.09375 C 8.457031 -10.613281 7.734375 -10.875 6.796875 -10.875 C 5.859375 -10.875 5.128906 -10.613281 4.609375 -10.09375 C 4.097656 -9.582031 3.84375 -8.859375 3.84375 -7.921875 L 3.84375 -7.328125 Z M 9.734375 -7.328125 "/></g></g></g><g fill="#ffffff" fill-opacity="1"><g transform="translate(136.80021, 21.897518)"><g><path d="M 1.09375 0 L 5.59375 -6.390625 L 1.359375 -12.453125 L 3.796875 -12.453125 L 6.40625 -8.484375 C 6.476562 -8.378906 6.535156 -8.273438 6.578125 -8.171875 C 6.628906 -8.078125 6.671875 -7.992188 6.703125 -7.921875 C 6.734375 -7.847656 6.753906 -7.773438 6.765625 -7.703125 L 6.859375 -7.703125 C 6.867188 -7.773438 6.890625 -7.847656 6.921875 -7.921875 C 6.953125 -7.992188 6.988281 -8.078125 7.03125 -8.171875 C 7.082031 -8.273438 7.144531 -8.378906 7.21875 -8.484375 L 9.828125 -12.453125 L 12.25 -12.453125 L 8.015625 -6.40625 L 12.5 0 L 10.046875 0 L 7.265625 -4.21875 C 7.203125 -4.320312 7.144531 -4.421875 7.09375 -4.515625 C 7.039062 -4.609375 6.992188 -4.703125 6.953125 -4.796875 C 6.898438 -4.898438 6.863281 -5 6.84375 -5.09375 L 6.75 -5.09375 C 6.71875 -4.988281 6.679688 -4.890625 6.640625 -4.796875 C 6.585938 -4.703125 6.539062 -4.601562 6.5 -4.5 C 6.457031 -4.394531 6.394531 -4.300781 6.3125 -4.21875 L 3.515625 0 Z M 1.09375 0 "/></g></g></g><g fill="#ffffff" fill-opacity="1"><g transform="translate(150.372733, 21.897518)"><g><path d="M 1.359375 -12.453125 L 4.984375 -12.453125 L 4.984375 -16.296875 L 7.015625 -16.296875 L 7.015625 -12.453125 L 11.890625 -12.453125 L 11.890625 -10.59375 L 7.015625 -10.59375 L 7.015625 -3.21875 C 7.015625 -2.789062 7.144531 -2.457031 7.40625 -2.21875 C 7.675781 -1.976562 8.035156 -1.859375 8.484375 -1.859375 L 11.65625 -1.859375 L 11.65625 0 L 8.484375 0 C 7.410156 0 6.554688 -0.289062 5.921875 -0.875 C 5.296875 -1.46875 4.984375 -2.25 4.984375 -3.21875 L 4.984375 -10.59375 L 1.359375 -10.59375 Z M 1.359375 -12.453125 "/></g></g></g></g></g></svg>