<svg xmlns="http://www.w3.org/2000/svg" xmlns:xlink="http://www.w3.org/1999/xlink" width="748" zoomAndPan="magnify" viewBox="0 0 561 316.499991" height="422" preserveAspectRatio="xMidYMid meet" version="1.0"><defs><g/><clipPath id="c1f9d5e91a"><path d="M 0.441406 0 L 560.554688 0 L 560.554688 316 L 0.441406 316 Z M 0.441406 0 " clip-rule="nonzero"/></clipPath><clipPath id="5df2bfbf94"><path d="M 24.40625 0 L 539.21875 0 C 552.453125 0 563.179688 10.726562 563.179688 23.960938 L 563.179688 292.039062 C 563.179688 305.273438 552.453125 316 539.21875 316 L 24.40625 316 C 11.171875 316 0.441406 305.273438 0.441406 292.039062 L 0.441406 23.960938 C 0.441406 10.726562 11.171875 0 24.40625 0 Z M 24.40625 0 " clip-rule="nonzero"/></clipPath><clipPath id="750b3e2c8c"><path d="M 0.441406 0 L 560.554688 0 L 560.554688 316 L 0.441406 316 Z M 0.441406 0 " clip-rule="nonzero"/></clipPath><clipPath id="f493ab8652"><path d="M 24.40625 0 L 539.21875 0 C 552.453125 0 563.179688 10.726562 563.179688 23.960938 L 563.179688 292.039062 C 563.179688 305.273438 552.453125 316 539.21875 316 L 24.40625 316 C 11.171875 316 0.441406 305.273438 0.441406 292.039062 L 0.441406 23.960938 C 0.441406 10.726562 11.171875 0 24.40625 0 Z M 24.40625 0 " clip-rule="nonzero"/></clipPath><linearGradient x1="49.975249" gradientTransform="matrix(1.234378, 0, 0, 1.234378, 0.434414, 0.000000000000021283)" y1="-49.968751" x2="404.856772" gradientUnits="userSpaceOnUse" y2="304.912762" id="415e6bd4b9"><stop stop-opacity="1" stop-color="rgb(13.328552%, 13.328552%, 13.328552%)" offset="0"/><stop stop-opacity="1" stop-color="rgb(13.188171%, 13.188171%, 13.188171%)" offset="0.03125"/><stop stop-opacity="1" stop-color="rgb(12.90741%, 12.90741%, 12.90741%)" offset="0.0625"/><stop stop-opacity="1" stop-color="rgb(12.626648%, 12.626648%, 12.626648%)" offset="0.09375"/><stop stop-opacity="1" stop-color="rgb(12.345886%, 12.345886%, 12.345886%)" offset="0.125"/><stop stop-opacity="1" stop-color="rgb(12.065125%, 12.065125%, 12.065125%)" offset="0.15625"/><stop stop-opacity="1" stop-color="rgb(11.782837%, 11.782837%, 11.782837%)" offset="0.1875"/><stop stop-opacity="1" stop-color="rgb(11.502075%, 11.502075%, 11.502075%)" offset="0.21875"/><stop stop-opacity="1" stop-color="rgb(11.221313%, 11.221313%, 11.221313%)" offset="0.25"/><stop stop-opacity="1" stop-color="rgb(10.940552%, 10.940552%, 10.940552%)" offset="0.28125"/><stop stop-opacity="1" stop-color="rgb(10.65979%, 10.65979%, 10.65979%)" offset="0.3125"/><stop stop-opacity="1" stop-color="rgb(10.377502%, 10.377502%, 10.377502%)" offset="0.34375"/><stop stop-opacity="1" stop-color="rgb(10.096741%, 10.096741%, 10.096741%)" offset="0.360684"/><stop stop-opacity="1" stop-color="rgb(9.95636%, 9.95636%, 9.95636%)" offset="0.375"/><stop stop-opacity="1" stop-color="rgb(9.815979%, 9.815979%, 9.815979%)" offset="0.40625"/><stop stop-opacity="1" stop-color="rgb(9.535217%, 9.535217%, 9.535217%)" offset="0.4375"/><stop stop-opacity="1" stop-color="rgb(9.254456%, 9.254456%, 9.254456%)" offset="0.46875"/><stop stop-opacity="1" stop-color="rgb(8.973694%, 8.973694%, 8.973694%)" offset="0.5"/><stop stop-opacity="1" stop-color="rgb(8.691406%, 8.691406%, 8.691406%)" offset="0.53125"/><stop stop-opacity="1" stop-color="rgb(8.410645%, 8.410645%, 8.410645%)" offset="0.5625"/><stop stop-opacity="1" stop-color="rgb(8.129883%, 8.129883%, 8.129883%)" offset="0.59375"/><stop stop-opacity="1" stop-color="rgb(7.849121%, 7.849121%, 7.849121%)" offset="0.625"/><stop stop-opacity="1" stop-color="rgb(7.568359%, 7.568359%, 7.568359%)" offset="0.639316"/><stop stop-opacity="1" stop-color="rgb(7.427979%, 7.427979%, 7.427979%)" offset="0.65625"/><stop stop-opacity="1" stop-color="rgb(7.286072%, 7.286072%, 7.286072%)" offset="0.6875"/><stop stop-opacity="1" stop-color="rgb(7.00531%, 7.00531%, 7.00531%)" offset="0.71875"/><stop stop-opacity="1" stop-color="rgb(6.724548%, 6.724548%, 6.724548%)" offset="0.75"/><stop stop-opacity="1" stop-color="rgb(6.443787%, 6.443787%, 6.443787%)" offset="0.78125"/><stop stop-opacity="1" stop-color="rgb(6.163025%, 6.163025%, 6.163025%)" offset="0.8125"/><stop stop-opacity="1" stop-color="rgb(5.882263%, 5.882263%, 5.882263%)" offset="0.84375"/><stop stop-opacity="1" stop-color="rgb(5.599976%, 5.599976%, 5.599976%)" offset="0.875"/><stop stop-opacity="1" stop-color="rgb(5.319214%, 5.319214%, 5.319214%)" offset="0.90625"/><stop stop-opacity="1" stop-color="rgb(5.038452%, 5.038452%, 5.038452%)" offset="0.9375"/><stop stop-opacity="1" stop-color="rgb(4.75769%, 4.75769%, 4.75769%)" offset="0.96875"/><stop stop-opacity="1" stop-color="rgb(4.476929%, 4.476929%, 4.476929%)" offset="1"/></linearGradient><clipPath id="b52cb2e1fc"><rect x="0" width="561" y="0" height="316"/></clipPath><clipPath id="2955449ba0"><rect x="0" width="164" y="0" height="14"/></clipPath><clipPath id="6250a48d3e"><path d="M 175.082031 143.0625 L 185 143.0625 L 185 153 L 175.082031 153 Z M 175.082031 143.0625 " clip-rule="nonzero"/></clipPath><clipPath id="e3e9694d11"><path d="M 198 143.0625 L 208 143.0625 L 208 153 L 198 153 Z M 198 143.0625 " clip-rule="nonzero"/></clipPath><clipPath id="67243a863a"><path d="M 175.082031 143.0625 L 208.03125 143.0625 L 208.03125 179.003906 L 175.082031 179.003906 Z M 175.082031 143.0625 " clip-rule="nonzero"/></clipPath><clipPath id="44a9e7a73c"><rect x="0" width="165" y="0" height="29"/></clipPath></defs><g clip-path="url(#c1f9d5e91a)"><g clip-path="url(#5df2bfbf94)"><g transform="matrix(1, 0, 0, 1, 0.000000000000000056, 0)"><g clip-path="url(#b52cb2e1fc)"><g clip-path="url(#750b3e2c8c)"><g clip-path="url(#f493ab8652)"><path fill="url(#415e6bd4b9)" d="M 0.441406 0 L 0.441406 316 L 560.558594 316 L 560.558594 0 Z M 0.441406 0 " fill-rule="nonzero"/></g></g></g></g></g></g><g transform="matrix(1, 0, 0, 1, 220, 165)"><g clip-path="url(#2955449ba0)"><g fill="#a6a6a6" fill-opacity="1"><g transform="translate(0.737783, 11.017486)"><g><path d="M 2.28125 1.203125 L 2.28125 -9.03125 L 4.953125 -9.03125 L 4.953125 -8.15625 L 3.265625 -8.15625 L 3.265625 0.328125 L 4.953125 0.328125 L 4.953125 1.203125 Z M 2.28125 1.203125 "/></g></g></g><g fill="#a6a6a6" fill-opacity="1"><g transform="translate(7.261131, 11.017486)"><g/></g></g><g fill="#a6a6a6" fill-opacity="1"><g transform="translate(13.780884, 11.017486)"><g/></g></g><g fill="#a6a6a6" fill-opacity="1"><g transform="translate(20.307829, 11.017486)"><g><path d="M 0.984375 -5.984375 L 1.953125 -5.984375 L 1.953125 -2.109375 C 1.953125 -1.203125 2.382812 -0.75 3.25 -0.75 C 4.125 -0.75 4.5625 -1.203125 4.5625 -2.109375 L 4.5625 -5.984375 L 5.546875 -5.984375 L 5.546875 -2.109375 C 5.546875 -1.398438 5.347656 -0.851562 4.953125 -0.46875 C 4.554688 -0.0820312 3.988281 0.109375 3.25 0.109375 C 2.53125 0.109375 1.972656 -0.0820312 1.578125 -0.46875 C 1.179688 -0.863281 0.984375 -1.410156 0.984375 -2.109375 Z M 0.984375 -5.984375 "/></g></g></g><g fill="#a6a6a6" fill-opacity="1"><g transform="translate(26.827581, 11.017486)"><g><path d="M 3.390625 -7.9375 L 3.390625 -1.734375 C 3.390625 -1.472656 3.460938 -1.265625 3.609375 -1.109375 C 3.753906 -0.960938 3.953125 -0.890625 4.203125 -0.890625 L 5.984375 -0.890625 L 5.984375 0 L 4.203125 0 C 3.648438 0 3.210938 -0.148438 2.890625 -0.453125 C 2.578125 -0.765625 2.421875 -1.191406 2.421875 -1.734375 L 2.421875 -7.046875 L 0.4375 -7.046875 L 0.4375 -7.9375 Z M 3.390625 -7.9375 "/></g></g></g><g fill="#a6a6a6" fill-opacity="1"><g transform="translate(33.347334, 11.017486)"><g><path d="M 0.65625 -5.984375 L 2.390625 -5.984375 L 2.390625 -7.828125 L 3.375 -7.828125 L 3.375 -5.984375 L 5.703125 -5.984375 L 5.703125 -5.09375 L 3.375 -5.09375 L 3.375 -1.546875 C 3.375 -1.335938 3.4375 -1.175781 3.5625 -1.0625 C 3.6875 -0.945312 3.859375 -0.890625 4.078125 -0.890625 L 5.59375 -0.890625 L 5.59375 0 L 4.078125 0 C 3.566406 0 3.15625 -0.140625 2.84375 -0.421875 C 2.539062 -0.703125 2.390625 -1.078125 2.390625 -1.546875 L 2.390625 -5.09375 L 0.65625 -5.09375 Z M 0.65625 -5.984375 "/></g></g></g><g fill="#a6a6a6" fill-opacity="1"><g transform="translate(39.867087, 11.017486)"><g><path d="M 1.21875 -5.984375 L 2.140625 -5.984375 L 2.140625 -4.953125 L 2.234375 -4.953125 C 2.328125 -5.304688 2.519531 -5.582031 2.8125 -5.78125 C 3.113281 -5.988281 3.484375 -6.09375 3.921875 -6.09375 C 4.546875 -6.09375 5.035156 -5.894531 5.390625 -5.5 C 5.753906 -5.101562 5.9375 -4.5625 5.9375 -3.875 L 5.9375 -3.53125 L 4.953125 -3.53125 L 4.953125 -3.75 C 4.953125 -4.21875 4.832031 -4.582031 4.59375 -4.84375 C 4.363281 -5.101562 4.03125 -5.234375 3.59375 -5.234375 C 3.164062 -5.234375 2.828125 -5.097656 2.578125 -4.828125 C 2.328125 -4.566406 2.203125 -4.207031 2.203125 -3.75 L 2.203125 0 L 1.21875 0 Z M 1.21875 -5.984375 "/></g></g></g><g fill="#a6a6a6" fill-opacity="1"><g transform="translate(46.386839, 11.017486)"><g><path d="M 0.6875 -1.734375 C 0.6875 -2.023438 0.734375 -2.28125 0.828125 -2.5 C 0.929688 -2.726562 1.070312 -2.921875 1.25 -3.078125 C 1.4375 -3.242188 1.660156 -3.367188 1.921875 -3.453125 C 2.179688 -3.546875 2.476562 -3.59375 2.8125 -3.59375 L 4.59375 -3.59375 L 4.59375 -4.078125 C 4.59375 -4.441406 4.46875 -4.726562 4.21875 -4.9375 C 3.976562 -5.144531 3.628906 -5.25 3.171875 -5.25 C 2.835938 -5.25 2.550781 -5.1875 2.3125 -5.0625 C 2.082031 -4.945312 1.925781 -4.78125 1.84375 -4.5625 L 0.875 -4.5625 C 0.96875 -5.03125 1.222656 -5.398438 1.640625 -5.671875 C 2.054688 -5.953125 2.578125 -6.09375 3.203125 -6.09375 C 3.941406 -6.09375 4.519531 -5.921875 4.9375 -5.578125 C 5.351562 -5.234375 5.5625 -4.75 5.5625 -4.125 L 5.5625 0 L 4.671875 0 L 4.671875 -1.140625 L 4.59375 -1.140625 C 4.5 -0.753906 4.273438 -0.445312 3.921875 -0.21875 C 3.578125 0 3.15625 0.109375 2.65625 0.109375 C 2.050781 0.109375 1.570312 -0.0546875 1.21875 -0.390625 C 0.863281 -0.722656 0.6875 -1.171875 0.6875 -1.734375 Z M 2.875 -0.703125 C 3.113281 -0.703125 3.335938 -0.734375 3.546875 -0.796875 C 3.765625 -0.859375 3.945312 -0.945312 4.09375 -1.0625 C 4.25 -1.1875 4.367188 -1.328125 4.453125 -1.484375 C 4.546875 -1.648438 4.59375 -1.828125 4.59375 -2.015625 L 4.59375 -2.828125 L 2.828125 -2.828125 C 2.460938 -2.828125 2.175781 -2.734375 1.96875 -2.546875 C 1.757812 -2.359375 1.65625 -2.097656 1.65625 -1.765625 C 1.65625 -1.429688 1.757812 -1.171875 1.96875 -0.984375 C 2.1875 -0.796875 2.488281 -0.703125 2.875 -0.703125 Z M 2.875 -0.703125 "/></g></g></g><g fill="#a6a6a6" fill-opacity="1"><g transform="translate(52.906592, 11.017486)"><g><path d="M 3.34375 0.109375 C 2.976562 0.109375 2.644531 0.0546875 2.34375 -0.046875 C 2.050781 -0.160156 1.800781 -0.316406 1.59375 -0.515625 C 1.394531 -0.722656 1.238281 -0.972656 1.125 -1.265625 C 1.007812 -1.554688 0.953125 -1.878906 0.953125 -2.234375 L 0.953125 -3.75 C 0.953125 -4.101562 1.007812 -4.425781 1.125 -4.71875 C 1.238281 -5.007812 1.394531 -5.253906 1.59375 -5.453125 C 1.800781 -5.660156 2.050781 -5.816406 2.34375 -5.921875 C 2.644531 -6.035156 2.976562 -6.09375 3.34375 -6.09375 C 4.007812 -6.09375 4.550781 -5.910156 4.96875 -5.546875 C 5.394531 -5.191406 5.648438 -4.703125 5.734375 -4.078125 L 4.765625 -4.078125 C 4.710938 -4.421875 4.554688 -4.695312 4.296875 -4.90625 C 4.046875 -5.113281 3.726562 -5.21875 3.34375 -5.21875 C 2.914062 -5.21875 2.570312 -5.085938 2.3125 -4.828125 C 2.0625 -4.566406 1.9375 -4.207031 1.9375 -3.75 L 1.9375 -2.234375 C 1.9375 -1.773438 2.0625 -1.414062 2.3125 -1.15625 C 2.5625 -0.894531 2.90625 -0.765625 3.34375 -0.765625 C 3.726562 -0.765625 4.046875 -0.863281 4.296875 -1.0625 C 4.554688 -1.269531 4.710938 -1.550781 4.765625 -1.90625 L 5.734375 -1.90625 C 5.640625 -1.269531 5.378906 -0.773438 4.953125 -0.421875 C 4.535156 -0.0664062 4 0.109375 3.34375 0.109375 Z M 3.34375 0.109375 "/></g></g></g><g fill="#a6a6a6" fill-opacity="1"><g transform="translate(59.426344, 11.017486)"><g><path d="M 1.84375 -2.234375 C 1.84375 -1.773438 1.96875 -1.414062 2.21875 -1.15625 C 2.46875 -0.894531 2.816406 -0.765625 3.265625 -0.765625 C 3.703125 -0.765625 4.046875 -0.894531 4.296875 -1.15625 C 4.546875 -1.414062 4.671875 -1.773438 4.671875 -2.234375 L 4.671875 -3.75 C 4.671875 -4.207031 4.546875 -4.566406 4.296875 -4.828125 C 4.046875 -5.085938 3.703125 -5.21875 3.265625 -5.21875 C 2.828125 -5.21875 2.476562 -5.085938 2.21875 -4.828125 C 1.96875 -4.566406 1.84375 -4.207031 1.84375 -3.75 Z M 0.875 -3.75 C 0.875 -4.113281 0.925781 -4.4375 1.03125 -4.71875 C 1.144531 -5.007812 1.304688 -5.253906 1.515625 -5.453125 C 1.722656 -5.660156 1.972656 -5.816406 2.265625 -5.921875 C 2.554688 -6.035156 2.890625 -6.09375 3.265625 -6.09375 C 4.003906 -6.09375 4.585938 -5.882812 5.015625 -5.46875 C 5.441406 -5.050781 5.65625 -4.484375 5.65625 -3.765625 L 5.65625 -2.234375 C 5.65625 -1.867188 5.597656 -1.539062 5.484375 -1.25 C 5.378906 -0.957031 5.222656 -0.710938 5.015625 -0.515625 C 4.804688 -0.316406 4.550781 -0.160156 4.25 -0.046875 C 3.957031 0.0546875 3.628906 0.109375 3.265625 0.109375 C 2.890625 0.109375 2.554688 0.0546875 2.265625 -0.046875 C 1.972656 -0.160156 1.722656 -0.316406 1.515625 -0.515625 C 1.304688 -0.722656 1.144531 -0.972656 1.03125 -1.265625 C 0.925781 -1.554688 0.875 -1.878906 0.875 -2.234375 Z M 0.875 -3.75 "/></g></g></g><g fill="#a6a6a6" fill-opacity="1"><g transform="translate(65.946097, 11.017486)"><g><path d="M 0.953125 0 L 0.953125 -5.984375 L 1.875 -5.984375 L 1.875 -4.953125 L 1.96875 -4.953125 C 2.0625 -5.304688 2.25 -5.582031 2.53125 -5.78125 C 2.820312 -5.988281 3.179688 -6.09375 3.609375 -6.09375 C 3.910156 -6.09375 4.179688 -6.039062 4.421875 -5.9375 C 4.660156 -5.832031 4.863281 -5.6875 5.03125 -5.5 C 5.207031 -5.320312 5.34375 -5.101562 5.4375 -4.84375 C 5.53125 -4.582031 5.578125 -4.296875 5.578125 -3.984375 L 5.578125 0 L 4.59375 0 L 4.59375 -3.8125 C 4.59375 -4.269531 4.476562 -4.625 4.25 -4.875 C 4.019531 -5.132812 3.695312 -5.265625 3.28125 -5.265625 C 2.875 -5.265625 2.546875 -5.128906 2.296875 -4.859375 C 2.054688 -4.585938 1.9375 -4.21875 1.9375 -3.75 L 1.9375 0 Z M 0.953125 0 "/></g></g></g><g fill="#a6a6a6" fill-opacity="1"><g transform="translate(72.46585, 11.017486)"><g><path d="M 0.65625 -5.984375 L 2.390625 -5.984375 L 2.390625 -7.828125 L 3.375 -7.828125 L 3.375 -5.984375 L 5.703125 -5.984375 L 5.703125 -5.09375 L 3.375 -5.09375 L 3.375 -1.546875 C 3.375 -1.335938 3.4375 -1.175781 3.5625 -1.0625 C 3.6875 -0.945312 3.859375 -0.890625 4.078125 -0.890625 L 5.59375 -0.890625 L 5.59375 0 L 4.078125 0 C 3.566406 0 3.15625 -0.140625 2.84375 -0.421875 C 2.539062 -0.703125 2.390625 -1.078125 2.390625 -1.546875 L 2.390625 -5.09375 L 0.65625 -5.09375 Z M 0.65625 -5.984375 "/></g></g></g><g fill="#a6a6a6" fill-opacity="1"><g transform="translate(78.985602, 11.017486)"><g><path d="M 3.265625 0.109375 C 2.515625 0.109375 1.925781 -0.09375 1.5 -0.5 C 1.082031 -0.90625 0.875 -1.460938 0.875 -2.171875 L 0.875 -3.8125 C 0.875 -4.519531 1.082031 -5.078125 1.5 -5.484375 C 1.925781 -5.890625 2.515625 -6.09375 3.265625 -6.09375 C 4.003906 -6.09375 4.585938 -5.890625 5.015625 -5.484375 C 5.441406 -5.078125 5.65625 -4.519531 5.65625 -3.8125 L 5.65625 -2.703125 L 1.84375 -2.703125 L 1.84375 -2.234375 C 1.84375 -1.773438 1.96875 -1.414062 2.21875 -1.15625 C 2.46875 -0.894531 2.816406 -0.765625 3.265625 -0.765625 C 3.585938 -0.765625 3.867188 -0.8125 4.109375 -0.90625 C 4.347656 -1.007812 4.523438 -1.160156 4.640625 -1.359375 L 5.625 -1.359375 C 5.5 -0.898438 5.222656 -0.539062 4.796875 -0.28125 C 4.378906 -0.0195312 3.867188 0.109375 3.265625 0.109375 Z M 4.671875 -3.53125 L 4.671875 -3.8125 C 4.671875 -4.257812 4.546875 -4.601562 4.296875 -4.84375 C 4.054688 -5.09375 3.710938 -5.21875 3.265625 -5.21875 C 2.816406 -5.21875 2.46875 -5.09375 2.21875 -4.84375 C 1.96875 -4.601562 1.84375 -4.257812 1.84375 -3.8125 L 1.84375 -3.53125 Z M 4.671875 -3.53125 "/></g></g></g><g fill="#a6a6a6" fill-opacity="1"><g transform="translate(85.505355, 11.017486)"><g><path d="M 0.515625 0 L 2.6875 -3.0625 L 0.65625 -5.984375 L 1.828125 -5.984375 L 3.078125 -4.078125 C 3.109375 -4.023438 3.132812 -3.972656 3.15625 -3.921875 C 3.1875 -3.878906 3.207031 -3.84375 3.21875 -3.8125 C 3.226562 -3.769531 3.238281 -3.734375 3.25 -3.703125 L 3.296875 -3.703125 C 3.304688 -3.734375 3.316406 -3.769531 3.328125 -3.8125 C 3.335938 -3.84375 3.351562 -3.878906 3.375 -3.921875 C 3.40625 -3.972656 3.4375 -4.023438 3.46875 -4.078125 L 4.71875 -5.984375 L 5.890625 -5.984375 L 3.84375 -3.078125 L 6 0 L 4.828125 0 L 3.484375 -2.015625 C 3.460938 -2.066406 3.4375 -2.113281 3.40625 -2.15625 C 3.382812 -2.207031 3.363281 -2.257812 3.34375 -2.3125 C 3.320312 -2.351562 3.300781 -2.398438 3.28125 -2.453125 L 3.234375 -2.453125 C 3.222656 -2.398438 3.207031 -2.351562 3.1875 -2.3125 C 3.164062 -2.257812 3.144531 -2.207031 3.125 -2.15625 C 3.101562 -2.113281 3.070312 -2.066406 3.03125 -2.015625 L 1.6875 0 Z M 0.515625 0 "/></g></g></g><g fill="#a6a6a6" fill-opacity="1"><g transform="translate(92.025108, 11.017486)"><g><path d="M 0.65625 -5.984375 L 2.390625 -5.984375 L 2.390625 -7.828125 L 3.375 -7.828125 L 3.375 -5.984375 L 5.703125 -5.984375 L 5.703125 -5.09375 L 3.375 -5.09375 L 3.375 -1.546875 C 3.375 -1.335938 3.4375 -1.175781 3.5625 -1.0625 C 3.6875 -0.945312 3.859375 -0.890625 4.078125 -0.890625 L 5.59375 -0.890625 L 5.59375 0 L 4.078125 0 C 3.566406 0 3.15625 -0.140625 2.84375 -0.421875 C 2.539062 -0.703125 2.390625 -1.078125 2.390625 -1.546875 L 2.390625 -5.09375 L 0.65625 -5.09375 Z M 0.65625 -5.984375 "/></g></g></g><g fill="#a6a6a6" fill-opacity="1"><g transform="translate(98.54486, 11.017486)"><g/></g></g><g fill="#a6a6a6" fill-opacity="1"><g transform="translate(105.064613, 11.017486)"><g><path d="M 0.796875 -3.8125 C 0.796875 -4.15625 0.84375 -4.46875 0.9375 -4.75 C 1.03125 -5.03125 1.164062 -5.269531 1.34375 -5.46875 C 1.519531 -5.664062 1.734375 -5.816406 1.984375 -5.921875 C 2.242188 -6.035156 2.53125 -6.09375 2.84375 -6.09375 C 3.269531 -6.09375 3.632812 -5.988281 3.9375 -5.78125 C 4.25 -5.570312 4.457031 -5.273438 4.5625 -4.890625 L 4.640625 -4.890625 L 4.640625 -5.984375 L 5.5625 -5.984375 L 5.5625 -0.4375 C 5.5625 0.269531 5.351562 0.816406 4.9375 1.203125 C 4.53125 1.597656 3.953125 1.796875 3.203125 1.796875 L 1.734375 1.796875 L 1.734375 0.90625 L 3.203125 0.90625 C 3.640625 0.90625 3.976562 0.785156 4.21875 0.546875 C 4.46875 0.316406 4.59375 -0.0078125 4.59375 -0.4375 L 4.59375 -0.65625 L 4.625 -1.734375 L 4.5625 -1.734375 C 4.457031 -1.347656 4.25 -1.050781 3.9375 -0.84375 C 3.632812 -0.644531 3.269531 -0.546875 2.84375 -0.546875 C 2.53125 -0.546875 2.25 -0.597656 2 -0.703125 C 1.75 -0.816406 1.535156 -0.96875 1.359375 -1.15625 C 1.179688 -1.351562 1.039062 -1.59375 0.9375 -1.875 C 0.84375 -2.164062 0.796875 -2.484375 0.796875 -2.828125 Z M 1.796875 -2.828125 C 1.796875 -2.378906 1.921875 -2.023438 2.171875 -1.765625 C 2.421875 -1.515625 2.765625 -1.390625 3.203125 -1.390625 C 3.628906 -1.390625 3.96875 -1.515625 4.21875 -1.765625 C 4.46875 -2.023438 4.59375 -2.378906 4.59375 -2.828125 L 4.59375 -3.8125 C 4.59375 -4.257812 4.46875 -4.609375 4.21875 -4.859375 C 3.96875 -5.109375 3.628906 -5.234375 3.203125 -5.234375 C 2.765625 -5.234375 2.421875 -5.109375 2.171875 -4.859375 C 1.921875 -4.609375 1.796875 -4.257812 1.796875 -3.8125 Z M 1.796875 -2.828125 "/></g></g></g><g fill="#a6a6a6" fill-opacity="1"><g transform="translate(111.584365, 11.017486)"><g><path d="M 0.984375 -5.984375 L 1.953125 -5.984375 L 1.953125 -2.109375 C 1.953125 -1.203125 2.382812 -0.75 3.25 -0.75 C 4.125 -0.75 4.5625 -1.203125 4.5625 -2.109375 L 4.5625 -5.984375 L 5.546875 -5.984375 L 5.546875 -2.109375 C 5.546875 -1.398438 5.347656 -0.851562 4.953125 -0.46875 C 4.554688 -0.0820312 3.988281 0.109375 3.25 0.109375 C 2.53125 0.109375 1.972656 -0.0820312 1.578125 -0.46875 C 1.179688 -0.863281 0.984375 -1.410156 0.984375 -2.109375 Z M 0.984375 -5.984375 "/></g></g></g><g fill="#a6a6a6" fill-opacity="1"><g transform="translate(118.104118, 11.017486)"><g><path d="M 1.03125 0 L 1.03125 -0.890625 L 3.203125 -0.890625 L 3.203125 -5.09375 L 1.3125 -5.09375 L 1.3125 -5.984375 L 4.1875 -5.984375 L 4.1875 -0.890625 L 5.984375 -0.890625 L 5.984375 0 Z M 3.421875 -8.3125 L 3.640625 -8.3125 C 3.847656 -8.3125 4.015625 -8.25 4.140625 -8.125 C 4.273438 -8.007812 4.34375 -7.851562 4.34375 -7.65625 C 4.34375 -7.457031 4.273438 -7.300781 4.140625 -7.1875 C 4.015625 -7.070312 3.847656 -7.015625 3.640625 -7.015625 L 3.421875 -7.015625 C 3.210938 -7.015625 3.039062 -7.066406 2.90625 -7.171875 C 2.78125 -7.285156 2.71875 -7.445312 2.71875 -7.65625 C 2.71875 -7.851562 2.78125 -8.007812 2.90625 -8.125 C 3.039062 -8.25 3.210938 -8.3125 3.421875 -8.3125 Z M 3.421875 -8.3125 "/></g></g></g><g fill="#a6a6a6" fill-opacity="1"><g transform="translate(124.623871, 11.017486)"><g><path d="M 0.875 -3.75 C 0.875 -4.113281 0.921875 -4.441406 1.015625 -4.734375 C 1.109375 -5.023438 1.242188 -5.269531 1.421875 -5.46875 C 1.597656 -5.664062 1.804688 -5.816406 2.046875 -5.921875 C 2.296875 -6.035156 2.570312 -6.09375 2.875 -6.09375 C 3.320312 -6.09375 3.691406 -5.988281 3.984375 -5.78125 C 4.273438 -5.582031 4.46875 -5.304688 4.5625 -4.953125 L 4.640625 -4.953125 C 4.628906 -5.078125 4.625 -5.195312 4.625 -5.3125 C 4.601562 -5.425781 4.59375 -5.539062 4.59375 -5.65625 C 4.59375 -5.78125 4.59375 -5.890625 4.59375 -5.984375 L 4.59375 -7.9375 L 5.5625 -7.9375 L 5.5625 0 L 4.640625 0 L 4.640625 -1.03125 L 4.5625 -1.03125 C 4.46875 -0.664062 4.273438 -0.382812 3.984375 -0.1875 C 3.691406 0.0078125 3.320312 0.109375 2.875 0.109375 C 2.570312 0.109375 2.296875 0.0546875 2.046875 -0.046875 C 1.804688 -0.160156 1.597656 -0.316406 1.421875 -0.515625 C 1.242188 -0.710938 1.109375 -0.957031 1.015625 -1.25 C 0.921875 -1.539062 0.875 -1.867188 0.875 -2.234375 Z M 3.25 -0.734375 C 3.65625 -0.734375 3.976562 -0.867188 4.21875 -1.140625 C 4.46875 -1.410156 4.59375 -1.773438 4.59375 -2.234375 L 4.59375 -3.75 C 4.59375 -4.207031 4.46875 -4.566406 4.21875 -4.828125 C 3.976562 -5.097656 3.65625 -5.234375 3.25 -5.234375 C 2.8125 -5.234375 2.46875 -5.101562 2.21875 -4.84375 C 1.96875 -4.582031 1.84375 -4.21875 1.84375 -3.75 L 1.84375 -2.234375 C 1.84375 -1.773438 1.96875 -1.410156 2.21875 -1.140625 C 2.46875 -0.867188 2.8125 -0.734375 3.25 -0.734375 Z M 3.25 -0.734375 "/></g></g></g><g fill="#a6a6a6" fill-opacity="1"><g transform="translate(131.143623, 11.017486)"><g><path d="M 3.265625 0.109375 C 2.515625 0.109375 1.925781 -0.09375 1.5 -0.5 C 1.082031 -0.90625 0.875 -1.460938 0.875 -2.171875 L 0.875 -3.8125 C 0.875 -4.519531 1.082031 -5.078125 1.5 -5.484375 C 1.925781 -5.890625 2.515625 -6.09375 3.265625 -6.09375 C 4.003906 -6.09375 4.585938 -5.890625 5.015625 -5.484375 C 5.441406 -5.078125 5.65625 -4.519531 5.65625 -3.8125 L 5.65625 -2.703125 L 1.84375 -2.703125 L 1.84375 -2.234375 C 1.84375 -1.773438 1.96875 -1.414062 2.21875 -1.15625 C 2.46875 -0.894531 2.816406 -0.765625 3.265625 -0.765625 C 3.585938 -0.765625 3.867188 -0.8125 4.109375 -0.90625 C 4.347656 -1.007812 4.523438 -1.160156 4.640625 -1.359375 L 5.625 -1.359375 C 5.5 -0.898438 5.222656 -0.539062 4.796875 -0.28125 C 4.378906 -0.0195312 3.867188 0.109375 3.265625 0.109375 Z M 4.671875 -3.53125 L 4.671875 -3.8125 C 4.671875 -4.257812 4.546875 -4.601562 4.296875 -4.84375 C 4.054688 -5.09375 3.710938 -5.21875 3.265625 -5.21875 C 2.816406 -5.21875 2.46875 -5.09375 2.21875 -4.84375 C 1.96875 -4.601562 1.84375 -4.257812 1.84375 -3.8125 L 1.84375 -3.53125 Z M 4.671875 -3.53125 "/></g></g></g><g fill="#a6a6a6" fill-opacity="1"><g transform="translate(137.663376, 11.017486)"><g><path d="M 3.09375 0.109375 C 2.46875 0.109375 1.945312 -0.03125 1.53125 -0.3125 C 1.125 -0.601562 0.894531 -0.988281 0.84375 -1.46875 L 1.875 -1.46875 C 1.914062 -1.257812 2.046875 -1.085938 2.265625 -0.953125 C 2.492188 -0.828125 2.769531 -0.765625 3.09375 -0.765625 L 3.40625 -0.765625 C 3.789062 -0.765625 4.09375 -0.84375 4.3125 -1 C 4.53125 -1.164062 4.640625 -1.382812 4.640625 -1.65625 C 4.640625 -2.132812 4.304688 -2.421875 3.640625 -2.515625 L 2.734375 -2.65625 C 2.148438 -2.738281 1.710938 -2.921875 1.421875 -3.203125 C 1.128906 -3.484375 0.984375 -3.878906 0.984375 -4.390625 C 0.984375 -4.929688 1.171875 -5.347656 1.546875 -5.640625 C 1.929688 -5.941406 2.46875 -6.09375 3.15625 -6.09375 L 3.453125 -6.09375 C 3.742188 -6.09375 4.007812 -6.054688 4.25 -5.984375 C 4.5 -5.910156 4.71875 -5.804688 4.90625 -5.671875 C 5.101562 -5.535156 5.257812 -5.375 5.375 -5.1875 C 5.5 -5.007812 5.578125 -4.804688 5.609375 -4.578125 L 4.578125 -4.578125 C 4.535156 -4.765625 4.410156 -4.914062 4.203125 -5.03125 C 4.003906 -5.15625 3.753906 -5.21875 3.453125 -5.21875 L 3.15625 -5.21875 C 2.78125 -5.21875 2.488281 -5.144531 2.28125 -5 C 2.082031 -4.851562 1.984375 -4.632812 1.984375 -4.34375 C 1.984375 -4.113281 2.050781 -3.9375 2.1875 -3.8125 C 2.332031 -3.695312 2.5625 -3.617188 2.875 -3.578125 L 3.78125 -3.453125 C 4.425781 -3.359375 4.894531 -3.164062 5.1875 -2.875 C 5.488281 -2.59375 5.640625 -2.191406 5.640625 -1.671875 C 5.640625 -1.117188 5.441406 -0.679688 5.046875 -0.359375 C 4.660156 -0.046875 4.113281 0.109375 3.40625 0.109375 Z M 3.09375 0.109375 "/></g></g></g><g fill="#a6a6a6" fill-opacity="1"><g transform="translate(144.188123, 11.017486)"><g/></g></g><g fill="#a6a6a6" fill-opacity="1"><g transform="translate(150.707876, 11.017486)"><g/></g></g><g fill="#a6a6a6" fill-opacity="1"><g transform="translate(157.23482, 11.017486)"><g><path d="M 1.625 1.203125 L 1.625 0.328125 L 3.3125 0.328125 L 3.3125 -8.15625 L 1.625 -8.15625 L 1.625 -9.03125 L 4.296875 -9.03125 L 4.296875 1.203125 Z M 1.625 1.203125 "/></g></g></g></g></g><path fill="#a6a6a6" d="M 197.148438 163.175781 L 186.128906 163.175781 C 182.148438 163.175781 178.902344 159.925781 178.902344 155.945312 L 178.902344 151.421875 C 178.902344 150.765625 179.441406 150.261719 180.058594 150.261719 C 180.71875 150.261719 181.21875 150.765625 181.21875 151.421875 L 181.21875 155.945312 C 181.21875 158.652344 183.425781 160.855469 186.128906 160.855469 L 197.148438 160.855469 C 199.777344 160.855469 202.058594 158.613281 202.058594 155.945312 L 202.058594 151.421875 C 202.058594 150.765625 202.5625 150.261719 203.21875 150.261719 C 203.835938 150.261719 204.378906 150.765625 204.378906 151.421875 L 204.378906 155.945312 C 204.378906 159.925781 201.132812 163.175781 197.148438 163.175781 Z M 197.148438 163.175781 " fill-opacity="1" fill-rule="evenodd"/><g clip-path="url(#6250a48d3e)"><path fill="#a6a6a6" d="M 180.058594 152.582031 C 177.429688 152.582031 175.34375 150.53125 175.34375 147.902344 C 175.34375 145.3125 177.46875 143.226562 180.058594 143.226562 C 182.652344 143.226562 184.738281 145.3125 184.738281 147.902344 C 184.738281 150.492188 182.652344 152.582031 180.058594 152.582031 Z M 180.058594 145.546875 C 178.746094 145.546875 177.664062 146.628906 177.664062 147.902344 C 177.664062 149.21875 178.707031 150.261719 180.058594 150.261719 C 181.375 150.261719 182.417969 149.21875 182.417969 147.902344 C 182.417969 146.628906 181.375 145.546875 180.058594 145.546875 Z M 180.058594 145.546875 " fill-opacity="1" fill-rule="evenodd"/></g><g clip-path="url(#e3e9694d11)"><path fill="#a6a6a6" d="M 203.21875 152.582031 C 200.628906 152.582031 198.539062 150.492188 198.539062 147.902344 C 198.539062 145.3125 200.628906 143.226562 203.21875 143.226562 C 205.769531 143.226562 207.898438 145.3125 207.898438 147.902344 C 207.898438 150.492188 205.769531 152.582031 203.21875 152.582031 Z M 203.21875 145.546875 C 201.90625 145.546875 200.859375 146.628906 200.859375 147.902344 C 200.859375 149.21875 201.867188 150.261719 203.21875 150.261719 C 204.535156 150.261719 205.578125 149.21875 205.578125 147.902344 C 205.578125 146.628906 204.496094 145.546875 203.21875 145.546875 Z M 203.21875 145.546875 " fill-opacity="1" fill-rule="evenodd"/></g><path fill="#a6a6a6" d="M 191.621094 171.757812 C 190.964844 171.757812 190.460938 171.21875 190.460938 170.597656 L 190.460938 162.015625 C 190.460938 161.359375 190.964844 160.855469 191.621094 160.855469 C 192.238281 160.855469 192.78125 161.359375 192.78125 162.015625 L 192.78125 170.597656 C 192.78125 171.21875 192.238281 171.757812 191.621094 171.757812 Z M 191.621094 171.757812 " fill-opacity="1" fill-rule="evenodd"/><path fill="#a6a6a6" d="M 191.621094 178.792969 C 189.03125 178.792969 186.941406 176.707031 186.941406 174.15625 C 186.941406 171.527344 189.03125 169.4375 191.621094 169.4375 C 194.210938 169.4375 196.335938 171.527344 196.335938 174.15625 C 196.335938 176.707031 194.210938 178.792969 191.621094 178.792969 Z M 191.621094 171.757812 C 190.304688 171.757812 189.261719 172.800781 189.261719 174.15625 C 189.261719 175.429688 190.304688 176.476562 191.621094 176.476562 C 192.933594 176.476562 194.015625 175.429688 194.015625 174.15625 C 194.015625 172.800781 192.933594 171.757812 191.621094 171.757812 Z M 191.621094 171.757812 " fill-opacity="1" fill-rule="evenodd"/><g clip-path="url(#67243a863a)"><path fill="#a6a6a6" d="M 216.324219 189.351562 L 166.914062 189.351562 C 162.351562 189.351562 158.679688 185.636719 158.679688 181.074219 L 158.679688 140.945312 C 158.679688 136.382812 162.351562 132.671875 166.914062 132.671875 L 216.324219 132.671875 C 220.886719 132.671875 224.597656 136.382812 224.597656 140.945312 L 224.597656 181.074219 C 224.597656 185.636719 220.886719 189.351562 216.324219 189.351562 Z M 166.914062 134.992188 C 163.667969 134.992188 161 137.65625 161 140.945312 L 161 181.074219 C 161 184.363281 163.667969 187.03125 166.914062 187.03125 L 216.324219 187.03125 C 219.613281 187.03125 222.28125 184.363281 222.28125 181.074219 L 222.28125 140.945312 C 222.28125 137.65625 219.613281 134.992188 216.324219 134.992188 Z M 166.914062 134.992188 " fill-opacity="1" fill-rule="evenodd"/><path fill="#a6a6a6" d="M 216.324219 183.203125 L 187.753906 183.203125 C 187.097656 183.203125 186.59375 182.699219 186.59375 182.042969 C 186.59375 181.425781 187.097656 180.882812 187.753906 180.882812 L 216.132812 180.882812 L 216.132812 141.136719 L 203.296875 141.136719 C 202.640625 141.136719 202.136719 140.636719 202.136719 139.976562 C 202.136719 139.359375 202.640625 138.816406 203.296875 138.816406 L 216.324219 138.816406 C 217.484375 138.816406 218.453125 139.785156 218.453125 140.945312 L 218.453125 181.074219 C 218.453125 182.234375 217.484375 183.203125 216.324219 183.203125 Z M 180.601562 183.203125 L 166.914062 183.203125 C 165.792969 183.203125 164.789062 182.234375 164.789062 181.074219 L 164.789062 140.945312 C 164.789062 139.785156 165.753906 138.816406 166.914062 138.816406 L 195.488281 138.816406 C 196.105469 138.816406 196.648438 139.359375 196.648438 139.976562 C 196.648438 140.636719 196.105469 141.136719 195.488281 141.136719 L 167.109375 141.136719 L 167.109375 180.882812 L 180.601562 180.882812 C 181.257812 180.882812 181.761719 181.425781 181.761719 182.042969 C 181.761719 182.699219 181.257812 183.203125 180.601562 183.203125 Z M 180.601562 183.203125 " fill-opacity="1" fill-rule="evenodd"/></g><g transform="matrix(1, 0, 0, 1, 221, 135)"><g clip-path="url(#44a9e7a73c)"><g fill="#ffffff" fill-opacity="1"><g transform="translate(0.262852, 22.713346)"><g><path d="M 1.359375 -9.375 L 1.359375 -11.234375 L 5 -11.234375 L 5 -13.390625 C 5 -14.390625 5.304688 -15.171875 5.921875 -15.734375 C 6.546875 -16.296875 7.398438 -16.578125 8.484375 -16.578125 L 12.140625 -16.578125 L 12.140625 -14.71875 L 8.484375 -14.71875 C 7.515625 -14.71875 7.03125 -14.273438 7.03125 -13.390625 L 7.03125 -11.234375 L 12.140625 -11.234375 L 12.140625 -9.375 L 7.03125 -9.375 L 7.03125 0 L 5 0 L 5 -9.375 Z M 1.359375 -9.375 "/></g></g></g><g fill="#ffffff" fill-opacity="1"><g transform="translate(13.872494, 22.713346)"><g><path d="M 3.859375 -4.65625 C 3.859375 -3.695312 4.117188 -2.945312 4.640625 -2.40625 C 5.160156 -1.863281 5.882812 -1.59375 6.8125 -1.59375 C 7.71875 -1.59375 8.4375 -1.863281 8.96875 -2.40625 C 9.5 -2.945312 9.765625 -3.695312 9.765625 -4.65625 L 9.765625 -7.828125 C 9.765625 -8.785156 9.5 -9.535156 8.96875 -10.078125 C 8.4375 -10.617188 7.71875 -10.890625 6.8125 -10.890625 C 5.90625 -10.890625 5.1875 -10.617188 4.65625 -10.078125 C 4.125 -9.535156 3.859375 -8.785156 3.859375 -7.828125 Z M 1.8125 -7.828125 C 1.8125 -8.585938 1.925781 -9.265625 2.15625 -9.859375 C 2.394531 -10.460938 2.726562 -10.972656 3.15625 -11.390625 C 3.59375 -11.816406 4.117188 -12.144531 4.734375 -12.375 C 5.347656 -12.601562 6.039062 -12.71875 6.8125 -12.71875 C 8.351562 -12.71875 9.570312 -12.285156 10.46875 -11.421875 C 11.363281 -10.554688 11.8125 -9.367188 11.8125 -7.859375 L 11.8125 -4.65625 C 11.8125 -3.894531 11.695312 -3.210938 11.46875 -2.609375 C 11.238281 -2.003906 10.90625 -1.492188 10.46875 -1.078125 C 10.039062 -0.660156 9.515625 -0.335938 8.890625 -0.109375 C 8.273438 0.117188 7.582031 0.234375 6.8125 0.234375 C 6.039062 0.234375 5.347656 0.117188 4.734375 -0.109375 C 4.117188 -0.335938 3.59375 -0.660156 3.15625 -1.078125 C 2.726562 -1.503906 2.394531 -2.019531 2.15625 -2.625 C 1.925781 -3.238281 1.8125 -3.914062 1.8125 -4.65625 Z M 1.8125 -7.828125 "/></g></g></g><g fill="#ffffff" fill-opacity="1"><g transform="translate(27.482136, 22.713346)"><g><path d="M 2.546875 -12.484375 L 4.46875 -12.484375 L 4.46875 -10.328125 L 4.65625 -10.328125 C 4.851562 -11.066406 5.257812 -11.648438 5.875 -12.078125 C 6.5 -12.503906 7.265625 -12.71875 8.171875 -12.71875 C 9.484375 -12.71875 10.515625 -12.300781 11.265625 -11.46875 C 12.015625 -10.644531 12.390625 -9.515625 12.390625 -8.078125 L 12.390625 -7.375 L 10.359375 -7.375 L 10.359375 -7.828125 C 10.359375 -8.816406 10.109375 -9.578125 9.609375 -10.109375 C 9.117188 -10.648438 8.421875 -10.921875 7.515625 -10.921875 C 6.617188 -10.921875 5.90625 -10.644531 5.375 -10.09375 C 4.851562 -9.539062 4.59375 -8.785156 4.59375 -7.828125 L 4.59375 0 L 2.546875 0 Z M 2.546875 -12.484375 "/></g></g></g><g fill="#ffffff" fill-opacity="1"><g transform="translate(41.091778, 22.713346)"><g><path d="M 4.15625 -16.578125 L 4.15625 -7.265625 L 6.609375 -7.265625 L 10.421875 -12.484375 L 12.765625 -12.484375 L 8.328125 -6.453125 L 12.828125 0 L 10.4375 0 L 6.625 -5.453125 L 4.15625 -5.453125 L 4.15625 0 L 2.109375 0 L 2.109375 -16.578125 Z M 4.15625 -16.578125 "/></g></g></g><g fill="#ffffff" fill-opacity="1"><g transform="translate(54.70142, 22.713346)"><g/></g></g><g fill="#ffffff" fill-opacity="1"><g transform="translate(68.311062, 22.713346)"><g><path d="M 1.25 -6.359375 C 1.25 -7.160156 1.457031 -7.820312 1.875 -8.34375 C 2.289062 -8.863281 2.882812 -9.226562 3.65625 -9.4375 L 3.5 -9.671875 C 3.039062 -10.304688 2.71875 -10.867188 2.53125 -11.359375 C 2.351562 -11.847656 2.265625 -12.335938 2.265625 -12.828125 C 2.265625 -13.367188 2.359375 -13.867188 2.546875 -14.328125 C 2.742188 -14.796875 3.019531 -15.195312 3.375 -15.53125 C 3.726562 -15.863281 4.15625 -16.117188 4.65625 -16.296875 C 5.15625 -16.484375 5.722656 -16.578125 6.359375 -16.578125 C 7.703125 -16.578125 8.75 -16.222656 9.5 -15.515625 C 10.257812 -14.816406 10.640625 -13.875 10.640625 -12.6875 L 8.609375 -12.6875 C 8.609375 -13.3125 8.40625 -13.816406 8 -14.203125 C 7.601562 -14.597656 7.054688 -14.796875 6.359375 -14.796875 C 5.722656 -14.796875 5.222656 -14.601562 4.859375 -14.21875 C 4.492188 -13.832031 4.3125 -13.351562 4.3125 -12.78125 C 4.3125 -12.113281 4.578125 -11.410156 5.109375 -10.671875 L 9.015625 -5.296875 L 10.625 -8.171875 L 12.765625 -8.171875 L 10.1875 -3.65625 L 12.84375 0 L 10.609375 0 L 9.15625 -1.96875 C 8.601562 -1.25 7.992188 -0.703125 7.328125 -0.328125 C 6.660156 0.046875 5.957031 0.234375 5.21875 0.234375 C 3.976562 0.234375 3.003906 -0.09375 2.296875 -0.75 C 1.597656 -1.414062 1.25 -2.335938 1.25 -3.515625 Z M 5.328125 -1.59375 C 5.847656 -1.59375 6.34375 -1.757812 6.8125 -2.09375 C 7.289062 -2.4375 7.695312 -2.90625 8.03125 -3.5 L 4.515625 -8.28125 C 3.703125 -8.03125 3.296875 -7.390625 3.296875 -6.359375 L 3.296875 -3.515625 C 3.296875 -2.898438 3.472656 -2.425781 3.828125 -2.09375 C 4.179688 -1.757812 4.679688 -1.59375 5.328125 -1.59375 Z M 5.328125 -1.59375 "/></g></g></g><g fill="#ffffff" fill-opacity="1"><g transform="translate(81.920704, 22.713346)"><g/></g></g><g fill="#ffffff" fill-opacity="1"><g transform="translate(95.530346, 22.713346)"><g><path d="M 7 0.234375 C 6.21875 0.234375 5.519531 0.117188 4.90625 -0.109375 C 4.300781 -0.335938 3.78125 -0.660156 3.34375 -1.078125 C 2.914062 -1.503906 2.582031 -2.019531 2.34375 -2.625 C 2.113281 -3.238281 2 -3.914062 2 -4.65625 L 2 -7.828125 C 2 -8.566406 2.113281 -9.238281 2.34375 -9.84375 C 2.582031 -10.457031 2.914062 -10.972656 3.34375 -11.390625 C 3.78125 -11.816406 4.300781 -12.144531 4.90625 -12.375 C 5.519531 -12.601562 6.21875 -12.71875 7 -12.71875 C 8.375 -12.71875 9.503906 -12.34375 10.390625 -11.59375 C 11.273438 -10.84375 11.804688 -9.816406 11.984375 -8.515625 L 9.9375 -8.515625 C 9.832031 -9.242188 9.507812 -9.820312 8.96875 -10.25 C 8.4375 -10.675781 7.78125 -10.890625 7 -10.890625 C 6.082031 -10.890625 5.359375 -10.617188 4.828125 -10.078125 C 4.304688 -9.535156 4.046875 -8.785156 4.046875 -7.828125 L 4.046875 -4.65625 C 4.046875 -3.695312 4.304688 -2.945312 4.828125 -2.40625 C 5.347656 -1.863281 6.070312 -1.59375 7 -1.59375 C 7.78125 -1.59375 8.4375 -1.804688 8.96875 -2.234375 C 9.507812 -2.671875 9.832031 -3.25 9.9375 -3.96875 L 11.984375 -3.96875 C 11.785156 -2.65625 11.242188 -1.625 10.359375 -0.875 C 9.472656 -0.132812 8.351562 0.234375 7 0.234375 Z M 7 0.234375 "/></g></g></g><g fill="#ffffff" fill-opacity="1"><g transform="translate(109.139988, 22.713346)"><g><path d="M 7.078125 -16.578125 L 7.078125 -3.625 C 7.078125 -3.070312 7.226562 -2.640625 7.53125 -2.328125 C 7.832031 -2.015625 8.25 -1.859375 8.78125 -1.859375 L 12.484375 -1.859375 L 12.484375 0 L 8.78125 0 C 7.613281 0 6.695312 -0.320312 6.03125 -0.96875 C 5.375 -1.613281 5.046875 -2.5 5.046875 -3.625 L 5.046875 -14.71875 L 0.90625 -14.71875 L 0.90625 -16.578125 Z M 7.078125 -16.578125 "/></g></g></g><g fill="#ffffff" fill-opacity="1"><g transform="translate(122.74963, 22.713346)"><g><path d="M 3.859375 -4.65625 C 3.859375 -3.695312 4.117188 -2.945312 4.640625 -2.40625 C 5.160156 -1.863281 5.882812 -1.59375 6.8125 -1.59375 C 7.71875 -1.59375 8.4375 -1.863281 8.96875 -2.40625 C 9.5 -2.945312 9.765625 -3.695312 9.765625 -4.65625 L 9.765625 -7.828125 C 9.765625 -8.785156 9.5 -9.535156 8.96875 -10.078125 C 8.4375 -10.617188 7.71875 -10.890625 6.8125 -10.890625 C 5.90625 -10.890625 5.1875 -10.617188 4.65625 -10.078125 C 4.125 -9.535156 3.859375 -8.785156 3.859375 -7.828125 Z M 1.8125 -7.828125 C 1.8125 -8.585938 1.925781 -9.265625 2.15625 -9.859375 C 2.394531 -10.460938 2.726562 -10.972656 3.15625 -11.390625 C 3.59375 -11.816406 4.117188 -12.144531 4.734375 -12.375 C 5.347656 -12.601562 6.039062 -12.71875 6.8125 -12.71875 C 8.351562 -12.71875 9.570312 -12.285156 10.46875 -11.421875 C 11.363281 -10.554688 11.8125 -9.367188 11.8125 -7.859375 L 11.8125 -4.65625 C 11.8125 -3.894531 11.695312 -3.210938 11.46875 -2.609375 C 11.238281 -2.003906 10.90625 -1.492188 10.46875 -1.078125 C 10.039062 -0.660156 9.515625 -0.335938 8.890625 -0.109375 C 8.273438 0.117188 7.582031 0.234375 6.8125 0.234375 C 6.039062 0.234375 5.347656 0.117188 4.734375 -0.109375 C 4.117188 -0.335938 3.59375 -0.660156 3.15625 -1.078125 C 2.726562 -1.503906 2.394531 -2.019531 2.15625 -2.625 C 1.925781 -3.238281 1.8125 -3.914062 1.8125 -4.65625 Z M 1.8125 -7.828125 "/></g></g></g><g fill="#ffffff" fill-opacity="1"><g transform="translate(136.359272, 22.713346)"><g><path d="M 2 0 L 2 -12.484375 L 3.921875 -12.484375 L 3.921875 -10.328125 L 4.109375 -10.328125 C 4.304688 -11.085938 4.703125 -11.675781 5.296875 -12.09375 C 5.898438 -12.507812 6.644531 -12.71875 7.53125 -12.71875 C 8.15625 -12.71875 8.71875 -12.609375 9.21875 -12.390625 C 9.726562 -12.179688 10.160156 -11.882812 10.515625 -11.5 C 10.878906 -11.113281 11.15625 -10.648438 11.34375 -10.109375 C 11.539062 -9.578125 11.640625 -8.976562 11.640625 -8.3125 L 11.640625 0 L 9.609375 0 L 9.609375 -7.96875 C 9.609375 -8.925781 9.363281 -9.664062 8.875 -10.1875 C 8.394531 -10.71875 7.722656 -10.984375 6.859375 -10.984375 C 5.992188 -10.984375 5.304688 -10.695312 4.796875 -10.125 C 4.296875 -9.5625 4.046875 -8.796875 4.046875 -7.828125 L 4.046875 0 Z M 2 0 "/></g></g></g><g fill="#ffffff" fill-opacity="1"><g transform="translate(149.968914, 22.713346)"><g><path d="M 6.8125 0.234375 C 5.25 0.234375 4.023438 -0.1875 3.140625 -1.03125 C 2.253906 -1.882812 1.8125 -3.054688 1.8125 -4.546875 L 1.8125 -7.953125 C 1.8125 -9.429688 2.253906 -10.59375 3.140625 -11.4375 C 4.023438 -12.289062 5.25 -12.71875 6.8125 -12.71875 C 8.375 -12.71875 9.597656 -12.289062 10.484375 -11.4375 C 11.367188 -10.59375 11.8125 -9.429688 11.8125 -7.953125 L 11.8125 -5.65625 L 3.859375 -5.65625 L 3.859375 -4.65625 C 3.859375 -3.695312 4.117188 -2.945312 4.640625 -2.40625 C 5.160156 -1.863281 5.882812 -1.59375 6.8125 -1.59375 C 7.488281 -1.59375 8.078125 -1.695312 8.578125 -1.90625 C 9.078125 -2.113281 9.445312 -2.425781 9.6875 -2.84375 L 11.734375 -2.84375 C 11.484375 -1.882812 10.914062 -1.128906 10.03125 -0.578125 C 9.144531 -0.0351562 8.070312 0.234375 6.8125 0.234375 Z M 9.765625 -7.359375 L 9.765625 -7.953125 C 9.765625 -8.890625 9.503906 -9.613281 8.984375 -10.125 C 8.472656 -10.632812 7.75 -10.890625 6.8125 -10.890625 C 5.875 -10.890625 5.144531 -10.632812 4.625 -10.125 C 4.113281 -9.613281 3.859375 -8.890625 3.859375 -7.953125 L 3.859375 -7.359375 Z M 9.765625 -7.359375 "/></g></g></g></g></g></svg>