<svg xmlns="http://www.w3.org/2000/svg" xmlns:xlink="http://www.w3.org/1999/xlink" width="748" zoomAndPan="magnify" viewBox="0 0 561 316.499991" height="422" preserveAspectRatio="xMidYMid meet" version="1.0"><defs><g/><clipPath id="b9fa23e697"><path d="M 0.441406 0 L 560.554688 0 L 560.554688 316 L 0.441406 316 Z M 0.441406 0 " clip-rule="nonzero"/></clipPath><clipPath id="436db8cee5"><path d="M 24.40625 0 L 539.21875 0 C 552.453125 0 563.179688 10.726562 563.179688 23.960938 L 563.179688 292.039062 C 563.179688 305.273438 552.453125 316 539.21875 316 L 24.40625 316 C 11.171875 316 0.441406 305.273438 0.441406 292.039062 L 0.441406 23.960938 C 0.441406 10.726562 11.171875 0 24.40625 0 Z M 24.40625 0 " clip-rule="nonzero"/></clipPath><clipPath id="b8ce08499f"><path d="M 0.441406 0 L 560.554688 0 L 560.554688 316 L 0.441406 316 Z M 0.441406 0 " clip-rule="nonzero"/></clipPath><clipPath id="580d54419d"><path d="M 24.40625 0 L 539.21875 0 C 552.453125 0 563.179688 10.726562 563.179688 23.960938 L 563.179688 292.039062 C 563.179688 305.273438 552.453125 316 539.21875 316 L 24.40625 316 C 11.171875 316 0.441406 305.273438 0.441406 292.039062 L 0.441406 23.960938 C 0.441406 10.726562 11.171875 0 24.40625 0 Z M 24.40625 0 " clip-rule="nonzero"/></clipPath><linearGradient x1="49.975249" gradientTransform="matrix(1.234378, 0, 0, 1.234378, 0.434414, 0)" y1="-49.968751" x2="404.856772" gradientUnits="userSpaceOnUse" y2="304.912762" id="a68d9b4ea8"><stop stop-opacity="1" stop-color="rgb(13.328552%, 13.328552%, 13.328552%)" offset="0"/><stop stop-opacity="1" stop-color="rgb(13.188171%, 13.188171%, 13.188171%)" offset="0.03125"/><stop stop-opacity="1" stop-color="rgb(12.90741%, 12.90741%, 12.90741%)" offset="0.0625"/><stop stop-opacity="1" stop-color="rgb(12.626648%, 12.626648%, 12.626648%)" offset="0.09375"/><stop stop-opacity="1" stop-color="rgb(12.345886%, 12.345886%, 12.345886%)" offset="0.125"/><stop stop-opacity="1" stop-color="rgb(12.065125%, 12.065125%, 12.065125%)" offset="0.15625"/><stop stop-opacity="1" stop-color="rgb(11.782837%, 11.782837%, 11.782837%)" offset="0.1875"/><stop stop-opacity="1" stop-color="rgb(11.502075%, 11.502075%, 11.502075%)" offset="0.21875"/><stop stop-opacity="1" stop-color="rgb(11.221313%, 11.221313%, 11.221313%)" offset="0.25"/><stop stop-opacity="1" stop-color="rgb(10.940552%, 10.940552%, 10.940552%)" offset="0.28125"/><stop stop-opacity="1" stop-color="rgb(10.65979%, 10.65979%, 10.65979%)" offset="0.3125"/><stop stop-opacity="1" stop-color="rgb(10.377502%, 10.377502%, 10.377502%)" offset="0.34375"/><stop stop-opacity="1" stop-color="rgb(10.096741%, 10.096741%, 10.096741%)" offset="0.360684"/><stop stop-opacity="1" stop-color="rgb(9.95636%, 9.95636%, 9.95636%)" offset="0.375"/><stop stop-opacity="1" stop-color="rgb(9.815979%, 9.815979%, 9.815979%)" offset="0.40625"/><stop stop-opacity="1" stop-color="rgb(9.535217%, 9.535217%, 9.535217%)" offset="0.4375"/><stop stop-opacity="1" stop-color="rgb(9.254456%, 9.254456%, 9.254456%)" offset="0.46875"/><stop stop-opacity="1" stop-color="rgb(8.973694%, 8.973694%, 8.973694%)" offset="0.5"/><stop stop-opacity="1" stop-color="rgb(8.691406%, 8.691406%, 8.691406%)" offset="0.53125"/><stop stop-opacity="1" stop-color="rgb(8.410645%, 8.410645%, 8.410645%)" offset="0.5625"/><stop stop-opacity="1" stop-color="rgb(8.129883%, 8.129883%, 8.129883%)" offset="0.59375"/><stop stop-opacity="1" stop-color="rgb(7.849121%, 7.849121%, 7.849121%)" offset="0.625"/><stop stop-opacity="1" stop-color="rgb(7.568359%, 7.568359%, 7.568359%)" offset="0.639316"/><stop stop-opacity="1" stop-color="rgb(7.427979%, 7.427979%, 7.427979%)" offset="0.65625"/><stop stop-opacity="1" stop-color="rgb(7.286072%, 7.286072%, 7.286072%)" offset="0.6875"/><stop stop-opacity="1" stop-color="rgb(7.00531%, 7.00531%, 7.00531%)" offset="0.71875"/><stop stop-opacity="1" stop-color="rgb(6.724548%, 6.724548%, 6.724548%)" offset="0.75"/><stop stop-opacity="1" stop-color="rgb(6.443787%, 6.443787%, 6.443787%)" offset="0.78125"/><stop stop-opacity="1" stop-color="rgb(6.163025%, 6.163025%, 6.163025%)" offset="0.8125"/><stop stop-opacity="1" stop-color="rgb(5.882263%, 5.882263%, 5.882263%)" offset="0.84375"/><stop stop-opacity="1" stop-color="rgb(5.599976%, 5.599976%, 5.599976%)" offset="0.875"/><stop stop-opacity="1" stop-color="rgb(5.319214%, 5.319214%, 5.319214%)" offset="0.90625"/><stop stop-opacity="1" stop-color="rgb(5.038452%, 5.038452%, 5.038452%)" offset="0.9375"/><stop stop-opacity="1" stop-color="rgb(4.75769%, 4.75769%, 4.75769%)" offset="0.96875"/><stop stop-opacity="1" stop-color="rgb(4.476929%, 4.476929%, 4.476929%)" offset="1"/></linearGradient><clipPath id="bd59c92814"><rect x="0" width="561" y="0" height="316"/></clipPath><clipPath id="87fdb45480"><path d="M 175.113281 141.835938 L 205.0625 141.835938 L 205.0625 177.78125 L 175.113281 177.78125 Z M 175.113281 141.835938 " clip-rule="nonzero"/></clipPath><clipPath id="ae5af9c4a6"><rect x="0" width="165" y="0" height="15"/></clipPath><clipPath id="687f1dcc2b"><rect x="0" width="165" y="0" height="22"/></clipPath></defs><g clip-path="url(#b9fa23e697)"><g clip-path="url(#436db8cee5)"><g transform="matrix(1, 0, 0, 1, 0.000000000000000056, 0)"><g clip-path="url(#bd59c92814)"><g clip-path="url(#b8ce08499f)"><g clip-path="url(#580d54419d)"><path fill="url(#a68d9b4ea8)" d="M 0.441406 0 L 0.441406 316 L 560.558594 316 L 560.558594 0 Z M 0.441406 0 " fill-rule="nonzero"/></g></g></g></g></g></g><g clip-path="url(#87fdb45480)"><path fill="#a6a6a6" d="M 190.222656 141.835938 C 181.753906 141.835938 175.121094 144.824219 175.121094 148.632812 L 175.121094 171.289062 C 175.121094 175.097656 181.753906 178.085938 190.222656 178.085938 C 198.691406 178.085938 205.324219 175.097656 205.324219 171.289062 L 205.324219 148.632812 C 205.324219 144.824219 198.691406 141.835938 190.222656 141.835938 Z M 203.816406 163.738281 C 203.816406 166.234375 198.234375 169.023438 190.222656 169.023438 C 182.210938 169.023438 176.628906 166.234375 176.628906 163.738281 L 176.628906 159.179688 C 179.050781 161.445312 184.160156 162.980469 190.222656 162.980469 C 196.285156 162.980469 201.394531 161.445312 203.816406 159.179688 Z M 203.816406 156.183594 C 203.816406 158.683594 198.234375 161.472656 190.222656 161.472656 C 182.210938 161.472656 176.628906 158.683594 176.628906 156.183594 L 176.628906 151.625 C 179.050781 153.894531 184.160156 155.429688 190.222656 155.429688 C 196.285156 155.429688 201.394531 153.894531 203.816406 151.625 Z M 190.222656 143.347656 C 198.234375 143.347656 203.816406 146.132812 203.816406 148.632812 C 203.816406 151.132812 198.234375 153.917969 190.222656 153.917969 C 182.210938 153.917969 176.628906 151.132812 176.628906 148.632812 C 176.628906 146.132812 182.210938 143.347656 190.222656 143.347656 Z M 190.222656 176.574219 C 182.210938 176.574219 176.628906 173.789062 176.628906 171.289062 L 176.628906 166.730469 C 179.050781 169 184.160156 170.53125 190.222656 170.53125 C 196.285156 170.53125 201.394531 169 203.816406 166.730469 L 203.816406 171.289062 C 203.816406 173.789062 198.234375 176.574219 190.222656 176.574219 Z M 190.222656 176.574219 " fill-opacity="1" fill-rule="nonzero"/></g><g transform="matrix(1, 0, 0, 1, 221, 164)"><g clip-path="url(#ae5af9c4a6)"><g fill="#a6a6a6" fill-opacity="1"><g transform="translate(1.089397, 11.12515)"><g><path d="M 2.28125 1.203125 L 2.28125 -9.03125 L 4.953125 -9.03125 L 4.953125 -8.15625 L 3.265625 -8.15625 L 3.265625 0.328125 L 4.953125 0.328125 L 4.953125 1.203125 Z M 2.28125 1.203125 "/></g></g></g><g fill="#a6a6a6" fill-opacity="1"><g transform="translate(7.612746, 11.12515)"><g/></g></g><g fill="#a6a6a6" fill-opacity="1"><g transform="translate(14.132499, 11.12515)"><g/></g></g><g fill="#a6a6a6" fill-opacity="1"><g transform="translate(20.659443, 11.12515)"><g><path d="M 0.984375 -5.984375 L 1.953125 -5.984375 L 1.953125 -2.109375 C 1.953125 -1.203125 2.382812 -0.75 3.25 -0.75 C 4.125 -0.75 4.5625 -1.203125 4.5625 -2.109375 L 4.5625 -5.984375 L 5.546875 -5.984375 L 5.546875 -2.109375 C 5.546875 -1.398438 5.347656 -0.851562 4.953125 -0.46875 C 4.554688 -0.0820312 3.988281 0.109375 3.25 0.109375 C 2.53125 0.109375 1.972656 -0.0820312 1.578125 -0.46875 C 1.179688 -0.863281 0.984375 -1.410156 0.984375 -2.109375 Z M 0.984375 -5.984375 "/></g></g></g><g fill="#a6a6a6" fill-opacity="1"><g transform="translate(27.179196, 11.12515)"><g><path d="M 3.390625 -7.9375 L 3.390625 -1.734375 C 3.390625 -1.472656 3.460938 -1.265625 3.609375 -1.109375 C 3.753906 -0.960938 3.953125 -0.890625 4.203125 -0.890625 L 5.984375 -0.890625 L 5.984375 0 L 4.203125 0 C 3.648438 0 3.210938 -0.148438 2.890625 -0.453125 C 2.578125 -0.765625 2.421875 -1.191406 2.421875 -1.734375 L 2.421875 -7.046875 L 0.4375 -7.046875 L 0.4375 -7.9375 Z M 3.390625 -7.9375 "/></g></g></g><g fill="#a6a6a6" fill-opacity="1"><g transform="translate(33.698949, 11.12515)"><g><path d="M 0.65625 -5.984375 L 2.390625 -5.984375 L 2.390625 -7.828125 L 3.375 -7.828125 L 3.375 -5.984375 L 5.703125 -5.984375 L 5.703125 -5.09375 L 3.375 -5.09375 L 3.375 -1.546875 C 3.375 -1.335938 3.4375 -1.175781 3.5625 -1.0625 C 3.6875 -0.945312 3.859375 -0.890625 4.078125 -0.890625 L 5.59375 -0.890625 L 5.59375 0 L 4.078125 0 C 3.566406 0 3.15625 -0.140625 2.84375 -0.421875 C 2.539062 -0.703125 2.390625 -1.078125 2.390625 -1.546875 L 2.390625 -5.09375 L 0.65625 -5.09375 Z M 0.65625 -5.984375 "/></g></g></g><g fill="#a6a6a6" fill-opacity="1"><g transform="translate(40.218701, 11.12515)"><g><path d="M 1.21875 -5.984375 L 2.140625 -5.984375 L 2.140625 -4.953125 L 2.234375 -4.953125 C 2.328125 -5.304688 2.519531 -5.582031 2.8125 -5.78125 C 3.113281 -5.988281 3.484375 -6.09375 3.921875 -6.09375 C 4.546875 -6.09375 5.035156 -5.894531 5.390625 -5.5 C 5.753906 -5.101562 5.9375 -4.5625 5.9375 -3.875 L 5.9375 -3.53125 L 4.953125 -3.53125 L 4.953125 -3.75 C 4.953125 -4.21875 4.832031 -4.582031 4.59375 -4.84375 C 4.363281 -5.101562 4.03125 -5.234375 3.59375 -5.234375 C 3.164062 -5.234375 2.828125 -5.097656 2.578125 -4.828125 C 2.328125 -4.566406 2.203125 -4.207031 2.203125 -3.75 L 2.203125 0 L 1.21875 0 Z M 1.21875 -5.984375 "/></g></g></g><g fill="#a6a6a6" fill-opacity="1"><g transform="translate(46.738454, 11.12515)"><g><path d="M 0.6875 -1.734375 C 0.6875 -2.023438 0.734375 -2.28125 0.828125 -2.5 C 0.929688 -2.726562 1.070312 -2.921875 1.25 -3.078125 C 1.4375 -3.242188 1.660156 -3.367188 1.921875 -3.453125 C 2.179688 -3.546875 2.476562 -3.59375 2.8125 -3.59375 L 4.59375 -3.59375 L 4.59375 -4.078125 C 4.59375 -4.441406 4.46875 -4.726562 4.21875 -4.9375 C 3.976562 -5.144531 3.628906 -5.25 3.171875 -5.25 C 2.835938 -5.25 2.550781 -5.1875 2.3125 -5.0625 C 2.082031 -4.945312 1.925781 -4.78125 1.84375 -4.5625 L 0.875 -4.5625 C 0.96875 -5.03125 1.222656 -5.398438 1.640625 -5.671875 C 2.054688 -5.953125 2.578125 -6.09375 3.203125 -6.09375 C 3.941406 -6.09375 4.519531 -5.921875 4.9375 -5.578125 C 5.351562 -5.234375 5.5625 -4.75 5.5625 -4.125 L 5.5625 0 L 4.671875 0 L 4.671875 -1.140625 L 4.59375 -1.140625 C 4.5 -0.753906 4.273438 -0.445312 3.921875 -0.21875 C 3.578125 0 3.15625 0.109375 2.65625 0.109375 C 2.050781 0.109375 1.570312 -0.0546875 1.21875 -0.390625 C 0.863281 -0.722656 0.6875 -1.171875 0.6875 -1.734375 Z M 2.875 -0.703125 C 3.113281 -0.703125 3.335938 -0.734375 3.546875 -0.796875 C 3.765625 -0.859375 3.945312 -0.945312 4.09375 -1.0625 C 4.25 -1.1875 4.367188 -1.328125 4.453125 -1.484375 C 4.546875 -1.648438 4.59375 -1.828125 4.59375 -2.015625 L 4.59375 -2.828125 L 2.828125 -2.828125 C 2.460938 -2.828125 2.175781 -2.734375 1.96875 -2.546875 C 1.757812 -2.359375 1.65625 -2.097656 1.65625 -1.765625 C 1.65625 -1.429688 1.757812 -1.171875 1.96875 -0.984375 C 2.1875 -0.796875 2.488281 -0.703125 2.875 -0.703125 Z M 2.875 -0.703125 "/></g></g></g><g fill="#a6a6a6" fill-opacity="1"><g transform="translate(53.258206, 11.12515)"><g><path d="M 3.34375 0.109375 C 2.976562 0.109375 2.644531 0.0546875 2.34375 -0.046875 C 2.050781 -0.160156 1.800781 -0.316406 1.59375 -0.515625 C 1.394531 -0.722656 1.238281 -0.972656 1.125 -1.265625 C 1.007812 -1.554688 0.953125 -1.878906 0.953125 -2.234375 L 0.953125 -3.75 C 0.953125 -4.101562 1.007812 -4.425781 1.125 -4.71875 C 1.238281 -5.007812 1.394531 -5.253906 1.59375 -5.453125 C 1.800781 -5.660156 2.050781 -5.816406 2.34375 -5.921875 C 2.644531 -6.035156 2.976562 -6.09375 3.34375 -6.09375 C 4.007812 -6.09375 4.550781 -5.910156 4.96875 -5.546875 C 5.394531 -5.191406 5.648438 -4.703125 5.734375 -4.078125 L 4.765625 -4.078125 C 4.710938 -4.421875 4.554688 -4.695312 4.296875 -4.90625 C 4.046875 -5.113281 3.726562 -5.21875 3.34375 -5.21875 C 2.914062 -5.21875 2.570312 -5.085938 2.3125 -4.828125 C 2.0625 -4.566406 1.9375 -4.207031 1.9375 -3.75 L 1.9375 -2.234375 C 1.9375 -1.773438 2.0625 -1.414062 2.3125 -1.15625 C 2.5625 -0.894531 2.90625 -0.765625 3.34375 -0.765625 C 3.726562 -0.765625 4.046875 -0.863281 4.296875 -1.0625 C 4.554688 -1.269531 4.710938 -1.550781 4.765625 -1.90625 L 5.734375 -1.90625 C 5.640625 -1.269531 5.378906 -0.773438 4.953125 -0.421875 C 4.535156 -0.0664062 4 0.109375 3.34375 0.109375 Z M 3.34375 0.109375 "/></g></g></g><g fill="#a6a6a6" fill-opacity="1"><g transform="translate(59.777959, 11.12515)"><g><path d="M 1.84375 -2.234375 C 1.84375 -1.773438 1.96875 -1.414062 2.21875 -1.15625 C 2.46875 -0.894531 2.816406 -0.765625 3.265625 -0.765625 C 3.703125 -0.765625 4.046875 -0.894531 4.296875 -1.15625 C 4.546875 -1.414062 4.671875 -1.773438 4.671875 -2.234375 L 4.671875 -3.75 C 4.671875 -4.207031 4.546875 -4.566406 4.296875 -4.828125 C 4.046875 -5.085938 3.703125 -5.21875 3.265625 -5.21875 C 2.828125 -5.21875 2.476562 -5.085938 2.21875 -4.828125 C 1.96875 -4.566406 1.84375 -4.207031 1.84375 -3.75 Z M 0.875 -3.75 C 0.875 -4.113281 0.925781 -4.4375 1.03125 -4.71875 C 1.144531 -5.007812 1.304688 -5.253906 1.515625 -5.453125 C 1.722656 -5.660156 1.972656 -5.816406 2.265625 -5.921875 C 2.554688 -6.035156 2.890625 -6.09375 3.265625 -6.09375 C 4.003906 -6.09375 4.585938 -5.882812 5.015625 -5.46875 C 5.441406 -5.050781 5.65625 -4.484375 5.65625 -3.765625 L 5.65625 -2.234375 C 5.65625 -1.867188 5.597656 -1.539062 5.484375 -1.25 C 5.378906 -0.957031 5.222656 -0.710938 5.015625 -0.515625 C 4.804688 -0.316406 4.550781 -0.160156 4.25 -0.046875 C 3.957031 0.0546875 3.628906 0.109375 3.265625 0.109375 C 2.890625 0.109375 2.554688 0.0546875 2.265625 -0.046875 C 1.972656 -0.160156 1.722656 -0.316406 1.515625 -0.515625 C 1.304688 -0.722656 1.144531 -0.972656 1.03125 -1.265625 C 0.925781 -1.554688 0.875 -1.878906 0.875 -2.234375 Z M 0.875 -3.75 "/></g></g></g><g fill="#a6a6a6" fill-opacity="1"><g transform="translate(66.297712, 11.12515)"><g><path d="M 0.953125 0 L 0.953125 -5.984375 L 1.875 -5.984375 L 1.875 -4.953125 L 1.96875 -4.953125 C 2.0625 -5.304688 2.25 -5.582031 2.53125 -5.78125 C 2.820312 -5.988281 3.179688 -6.09375 3.609375 -6.09375 C 3.910156 -6.09375 4.179688 -6.039062 4.421875 -5.9375 C 4.660156 -5.832031 4.863281 -5.6875 5.03125 -5.5 C 5.207031 -5.320312 5.34375 -5.101562 5.4375 -4.84375 C 5.53125 -4.582031 5.578125 -4.296875 5.578125 -3.984375 L 5.578125 0 L 4.59375 0 L 4.59375 -3.8125 C 4.59375 -4.269531 4.476562 -4.625 4.25 -4.875 C 4.019531 -5.132812 3.695312 -5.265625 3.28125 -5.265625 C 2.875 -5.265625 2.546875 -5.128906 2.296875 -4.859375 C 2.054688 -4.585938 1.9375 -4.21875 1.9375 -3.75 L 1.9375 0 Z M 0.953125 0 "/></g></g></g><g fill="#a6a6a6" fill-opacity="1"><g transform="translate(72.817464, 11.12515)"><g><path d="M 0.65625 -5.984375 L 2.390625 -5.984375 L 2.390625 -7.828125 L 3.375 -7.828125 L 3.375 -5.984375 L 5.703125 -5.984375 L 5.703125 -5.09375 L 3.375 -5.09375 L 3.375 -1.546875 C 3.375 -1.335938 3.4375 -1.175781 3.5625 -1.0625 C 3.6875 -0.945312 3.859375 -0.890625 4.078125 -0.890625 L 5.59375 -0.890625 L 5.59375 0 L 4.078125 0 C 3.566406 0 3.15625 -0.140625 2.84375 -0.421875 C 2.539062 -0.703125 2.390625 -1.078125 2.390625 -1.546875 L 2.390625 -5.09375 L 0.65625 -5.09375 Z M 0.65625 -5.984375 "/></g></g></g><g fill="#a6a6a6" fill-opacity="1"><g transform="translate(79.337217, 11.12515)"><g><path d="M 3.265625 0.109375 C 2.515625 0.109375 1.925781 -0.09375 1.5 -0.5 C 1.082031 -0.90625 0.875 -1.460938 0.875 -2.171875 L 0.875 -3.8125 C 0.875 -4.519531 1.082031 -5.078125 1.5 -5.484375 C 1.925781 -5.890625 2.515625 -6.09375 3.265625 -6.09375 C 4.003906 -6.09375 4.585938 -5.890625 5.015625 -5.484375 C 5.441406 -5.078125 5.65625 -4.519531 5.65625 -3.8125 L 5.65625 -2.703125 L 1.84375 -2.703125 L 1.84375 -2.234375 C 1.84375 -1.773438 1.96875 -1.414062 2.21875 -1.15625 C 2.46875 -0.894531 2.816406 -0.765625 3.265625 -0.765625 C 3.585938 -0.765625 3.867188 -0.8125 4.109375 -0.90625 C 4.347656 -1.007812 4.523438 -1.160156 4.640625 -1.359375 L 5.625 -1.359375 C 5.5 -0.898438 5.222656 -0.539062 4.796875 -0.28125 C 4.378906 -0.0195312 3.867188 0.109375 3.265625 0.109375 Z M 4.671875 -3.53125 L 4.671875 -3.8125 C 4.671875 -4.257812 4.546875 -4.601562 4.296875 -4.84375 C 4.054688 -5.09375 3.710938 -5.21875 3.265625 -5.21875 C 2.816406 -5.21875 2.46875 -5.09375 2.21875 -4.84375 C 1.96875 -4.601562 1.84375 -4.257812 1.84375 -3.8125 L 1.84375 -3.53125 Z M 4.671875 -3.53125 "/></g></g></g><g fill="#a6a6a6" fill-opacity="1"><g transform="translate(85.85697, 11.12515)"><g><path d="M 0.515625 0 L 2.6875 -3.0625 L 0.65625 -5.984375 L 1.828125 -5.984375 L 3.078125 -4.078125 C 3.109375 -4.023438 3.132812 -3.972656 3.15625 -3.921875 C 3.1875 -3.878906 3.207031 -3.84375 3.21875 -3.8125 C 3.226562 -3.769531 3.238281 -3.734375 3.25 -3.703125 L 3.296875 -3.703125 C 3.304688 -3.734375 3.316406 -3.769531 3.328125 -3.8125 C 3.335938 -3.84375 3.351562 -3.878906 3.375 -3.921875 C 3.40625 -3.972656 3.4375 -4.023438 3.46875 -4.078125 L 4.71875 -5.984375 L 5.890625 -5.984375 L 3.84375 -3.078125 L 6 0 L 4.828125 0 L 3.484375 -2.015625 C 3.460938 -2.066406 3.4375 -2.113281 3.40625 -2.15625 C 3.382812 -2.207031 3.363281 -2.257812 3.34375 -2.3125 C 3.320312 -2.351562 3.300781 -2.398438 3.28125 -2.453125 L 3.234375 -2.453125 C 3.222656 -2.398438 3.207031 -2.351562 3.1875 -2.3125 C 3.164062 -2.257812 3.144531 -2.207031 3.125 -2.15625 C 3.101562 -2.113281 3.070312 -2.066406 3.03125 -2.015625 L 1.6875 0 Z M 0.515625 0 "/></g></g></g><g fill="#a6a6a6" fill-opacity="1"><g transform="translate(92.376722, 11.12515)"><g><path d="M 0.65625 -5.984375 L 2.390625 -5.984375 L 2.390625 -7.828125 L 3.375 -7.828125 L 3.375 -5.984375 L 5.703125 -5.984375 L 5.703125 -5.09375 L 3.375 -5.09375 L 3.375 -1.546875 C 3.375 -1.335938 3.4375 -1.175781 3.5625 -1.0625 C 3.6875 -0.945312 3.859375 -0.890625 4.078125 -0.890625 L 5.59375 -0.890625 L 5.59375 0 L 4.078125 0 C 3.566406 0 3.15625 -0.140625 2.84375 -0.421875 C 2.539062 -0.703125 2.390625 -1.078125 2.390625 -1.546875 L 2.390625 -5.09375 L 0.65625 -5.09375 Z M 0.65625 -5.984375 "/></g></g></g><g fill="#a6a6a6" fill-opacity="1"><g transform="translate(98.896475, 11.12515)"><g/></g></g><g fill="#a6a6a6" fill-opacity="1"><g transform="translate(105.416227, 11.12515)"><g><path d="M 0.796875 -3.8125 C 0.796875 -4.15625 0.84375 -4.46875 0.9375 -4.75 C 1.03125 -5.03125 1.164062 -5.269531 1.34375 -5.46875 C 1.519531 -5.664062 1.734375 -5.816406 1.984375 -5.921875 C 2.242188 -6.035156 2.53125 -6.09375 2.84375 -6.09375 C 3.269531 -6.09375 3.632812 -5.988281 3.9375 -5.78125 C 4.25 -5.570312 4.457031 -5.273438 4.5625 -4.890625 L 4.640625 -4.890625 L 4.640625 -5.984375 L 5.5625 -5.984375 L 5.5625 -0.4375 C 5.5625 0.269531 5.351562 0.816406 4.9375 1.203125 C 4.53125 1.597656 3.953125 1.796875 3.203125 1.796875 L 1.734375 1.796875 L 1.734375 0.90625 L 3.203125 0.90625 C 3.640625 0.90625 3.976562 0.785156 4.21875 0.546875 C 4.46875 0.316406 4.59375 -0.0078125 4.59375 -0.4375 L 4.59375 -0.65625 L 4.625 -1.734375 L 4.5625 -1.734375 C 4.457031 -1.347656 4.25 -1.050781 3.9375 -0.84375 C 3.632812 -0.644531 3.269531 -0.546875 2.84375 -0.546875 C 2.53125 -0.546875 2.25 -0.597656 2 -0.703125 C 1.75 -0.816406 1.535156 -0.96875 1.359375 -1.15625 C 1.179688 -1.351562 1.039062 -1.59375 0.9375 -1.875 C 0.84375 -2.164062 0.796875 -2.484375 0.796875 -2.828125 Z M 1.796875 -2.828125 C 1.796875 -2.378906 1.921875 -2.023438 2.171875 -1.765625 C 2.421875 -1.515625 2.765625 -1.390625 3.203125 -1.390625 C 3.628906 -1.390625 3.96875 -1.515625 4.21875 -1.765625 C 4.46875 -2.023438 4.59375 -2.378906 4.59375 -2.828125 L 4.59375 -3.8125 C 4.59375 -4.257812 4.46875 -4.609375 4.21875 -4.859375 C 3.96875 -5.109375 3.628906 -5.234375 3.203125 -5.234375 C 2.765625 -5.234375 2.421875 -5.109375 2.171875 -4.859375 C 1.921875 -4.609375 1.796875 -4.257812 1.796875 -3.8125 Z M 1.796875 -2.828125 "/></g></g></g><g fill="#a6a6a6" fill-opacity="1"><g transform="translate(111.93598, 11.12515)"><g><path d="M 0.984375 -5.984375 L 1.953125 -5.984375 L 1.953125 -2.109375 C 1.953125 -1.203125 2.382812 -0.75 3.25 -0.75 C 4.125 -0.75 4.5625 -1.203125 4.5625 -2.109375 L 4.5625 -5.984375 L 5.546875 -5.984375 L 5.546875 -2.109375 C 5.546875 -1.398438 5.347656 -0.851562 4.953125 -0.46875 C 4.554688 -0.0820312 3.988281 0.109375 3.25 0.109375 C 2.53125 0.109375 1.972656 -0.0820312 1.578125 -0.46875 C 1.179688 -0.863281 0.984375 -1.410156 0.984375 -2.109375 Z M 0.984375 -5.984375 "/></g></g></g><g fill="#a6a6a6" fill-opacity="1"><g transform="translate(118.455733, 11.12515)"><g><path d="M 1.03125 0 L 1.03125 -0.890625 L 3.203125 -0.890625 L 3.203125 -5.09375 L 1.3125 -5.09375 L 1.3125 -5.984375 L 4.1875 -5.984375 L 4.1875 -0.890625 L 5.984375 -0.890625 L 5.984375 0 Z M 3.421875 -8.3125 L 3.640625 -8.3125 C 3.847656 -8.3125 4.015625 -8.25 4.140625 -8.125 C 4.273438 -8.007812 4.34375 -7.851562 4.34375 -7.65625 C 4.34375 -7.457031 4.273438 -7.300781 4.140625 -7.1875 C 4.015625 -7.070312 3.847656 -7.015625 3.640625 -7.015625 L 3.421875 -7.015625 C 3.210938 -7.015625 3.039062 -7.066406 2.90625 -7.171875 C 2.78125 -7.285156 2.71875 -7.445312 2.71875 -7.65625 C 2.71875 -7.851562 2.78125 -8.007812 2.90625 -8.125 C 3.039062 -8.25 3.210938 -8.3125 3.421875 -8.3125 Z M 3.421875 -8.3125 "/></g></g></g><g fill="#a6a6a6" fill-opacity="1"><g transform="translate(124.975485, 11.12515)"><g><path d="M 0.875 -3.75 C 0.875 -4.113281 0.921875 -4.441406 1.015625 -4.734375 C 1.109375 -5.023438 1.242188 -5.269531 1.421875 -5.46875 C 1.597656 -5.664062 1.804688 -5.816406 2.046875 -5.921875 C 2.296875 -6.035156 2.570312 -6.09375 2.875 -6.09375 C 3.320312 -6.09375 3.691406 -5.988281 3.984375 -5.78125 C 4.273438 -5.582031 4.46875 -5.304688 4.5625 -4.953125 L 4.640625 -4.953125 C 4.628906 -5.078125 4.625 -5.195312 4.625 -5.3125 C 4.601562 -5.425781 4.59375 -5.539062 4.59375 -5.65625 C 4.59375 -5.78125 4.59375 -5.890625 4.59375 -5.984375 L 4.59375 -7.9375 L 5.5625 -7.9375 L 5.5625 0 L 4.640625 0 L 4.640625 -1.03125 L 4.5625 -1.03125 C 4.46875 -0.664062 4.273438 -0.382812 3.984375 -0.1875 C 3.691406 0.0078125 3.320312 0.109375 2.875 0.109375 C 2.570312 0.109375 2.296875 0.0546875 2.046875 -0.046875 C 1.804688 -0.160156 1.597656 -0.316406 1.421875 -0.515625 C 1.242188 -0.710938 1.109375 -0.957031 1.015625 -1.25 C 0.921875 -1.539062 0.875 -1.867188 0.875 -2.234375 Z M 3.25 -0.734375 C 3.65625 -0.734375 3.976562 -0.867188 4.21875 -1.140625 C 4.46875 -1.410156 4.59375 -1.773438 4.59375 -2.234375 L 4.59375 -3.75 C 4.59375 -4.207031 4.46875 -4.566406 4.21875 -4.828125 C 3.976562 -5.097656 3.65625 -5.234375 3.25 -5.234375 C 2.8125 -5.234375 2.46875 -5.101562 2.21875 -4.84375 C 1.96875 -4.582031 1.84375 -4.21875 1.84375 -3.75 L 1.84375 -2.234375 C 1.84375 -1.773438 1.96875 -1.410156 2.21875 -1.140625 C 2.46875 -0.867188 2.8125 -0.734375 3.25 -0.734375 Z M 3.25 -0.734375 "/></g></g></g><g fill="#a6a6a6" fill-opacity="1"><g transform="translate(131.495238, 11.12515)"><g><path d="M 3.265625 0.109375 C 2.515625 0.109375 1.925781 -0.09375 1.5 -0.5 C 1.082031 -0.90625 0.875 -1.460938 0.875 -2.171875 L 0.875 -3.8125 C 0.875 -4.519531 1.082031 -5.078125 1.5 -5.484375 C 1.925781 -5.890625 2.515625 -6.09375 3.265625 -6.09375 C 4.003906 -6.09375 4.585938 -5.890625 5.015625 -5.484375 C 5.441406 -5.078125 5.65625 -4.519531 5.65625 -3.8125 L 5.65625 -2.703125 L 1.84375 -2.703125 L 1.84375 -2.234375 C 1.84375 -1.773438 1.96875 -1.414062 2.21875 -1.15625 C 2.46875 -0.894531 2.816406 -0.765625 3.265625 -0.765625 C 3.585938 -0.765625 3.867188 -0.8125 4.109375 -0.90625 C 4.347656 -1.007812 4.523438 -1.160156 4.640625 -1.359375 L 5.625 -1.359375 C 5.5 -0.898438 5.222656 -0.539062 4.796875 -0.28125 C 4.378906 -0.0195312 3.867188 0.109375 3.265625 0.109375 Z M 4.671875 -3.53125 L 4.671875 -3.8125 C 4.671875 -4.257812 4.546875 -4.601562 4.296875 -4.84375 C 4.054688 -5.09375 3.710938 -5.21875 3.265625 -5.21875 C 2.816406 -5.21875 2.46875 -5.09375 2.21875 -4.84375 C 1.96875 -4.601562 1.84375 -4.257812 1.84375 -3.8125 L 1.84375 -3.53125 Z M 4.671875 -3.53125 "/></g></g></g><g fill="#a6a6a6" fill-opacity="1"><g transform="translate(138.01499, 11.12515)"><g><path d="M 3.09375 0.109375 C 2.46875 0.109375 1.945312 -0.03125 1.53125 -0.3125 C 1.125 -0.601562 0.894531 -0.988281 0.84375 -1.46875 L 1.875 -1.46875 C 1.914062 -1.257812 2.046875 -1.085938 2.265625 -0.953125 C 2.492188 -0.828125 2.769531 -0.765625 3.09375 -0.765625 L 3.40625 -0.765625 C 3.789062 -0.765625 4.09375 -0.84375 4.3125 -1 C 4.53125 -1.164062 4.640625 -1.382812 4.640625 -1.65625 C 4.640625 -2.132812 4.304688 -2.421875 3.640625 -2.515625 L 2.734375 -2.65625 C 2.148438 -2.738281 1.710938 -2.921875 1.421875 -3.203125 C 1.128906 -3.484375 0.984375 -3.878906 0.984375 -4.390625 C 0.984375 -4.929688 1.171875 -5.347656 1.546875 -5.640625 C 1.929688 -5.941406 2.46875 -6.09375 3.15625 -6.09375 L 3.453125 -6.09375 C 3.742188 -6.09375 4.007812 -6.054688 4.25 -5.984375 C 4.5 -5.910156 4.71875 -5.804688 4.90625 -5.671875 C 5.101562 -5.535156 5.257812 -5.375 5.375 -5.1875 C 5.5 -5.007812 5.578125 -4.804688 5.609375 -4.578125 L 4.578125 -4.578125 C 4.535156 -4.765625 4.410156 -4.914062 4.203125 -5.03125 C 4.003906 -5.15625 3.753906 -5.21875 3.453125 -5.21875 L 3.15625 -5.21875 C 2.78125 -5.21875 2.488281 -5.144531 2.28125 -5 C 2.082031 -4.851562 1.984375 -4.632812 1.984375 -4.34375 C 1.984375 -4.113281 2.050781 -3.9375 2.1875 -3.8125 C 2.332031 -3.695312 2.5625 -3.617188 2.875 -3.578125 L 3.78125 -3.453125 C 4.425781 -3.359375 4.894531 -3.164062 5.1875 -2.875 C 5.488281 -2.59375 5.640625 -2.191406 5.640625 -1.671875 C 5.640625 -1.117188 5.441406 -0.679688 5.046875 -0.359375 C 4.660156 -0.046875 4.113281 0.109375 3.40625 0.109375 Z M 3.09375 0.109375 "/></g></g></g><g fill="#a6a6a6" fill-opacity="1"><g transform="translate(144.539738, 11.12515)"><g/></g></g><g fill="#a6a6a6" fill-opacity="1"><g transform="translate(151.05949, 11.12515)"><g/></g></g><g fill="#a6a6a6" fill-opacity="1"><g transform="translate(157.586435, 11.12515)"><g><path d="M 1.625 1.203125 L 1.625 0.328125 L 3.3125 0.328125 L 3.3125 -8.15625 L 1.625 -8.15625 L 1.625 -9.03125 L 4.296875 -9.03125 L 4.296875 1.203125 Z M 1.625 1.203125 "/></g></g></g></g></g><g transform="matrix(1, 0, 0, 1, 221, 137)"><g clip-path="url(#687f1dcc2b)"><g fill="#ffffff" fill-opacity="1"><g transform="translate(0.76551, 16.463693)"><g><path d="M 4.859375 0.171875 C 3.867188 0.171875 3.050781 -0.0507812 2.40625 -0.5 C 1.769531 -0.945312 1.40625 -1.546875 1.3125 -2.296875 L 2.9375 -2.296875 C 3 -1.972656 3.207031 -1.707031 3.5625 -1.5 C 3.914062 -1.289062 4.347656 -1.1875 4.859375 -1.1875 L 5.34375 -1.1875 C 5.957031 -1.1875 6.429688 -1.316406 6.765625 -1.578125 C 7.109375 -1.835938 7.28125 -2.179688 7.28125 -2.609375 C 7.28125 -3.347656 6.757812 -3.796875 5.71875 -3.953125 L 4.296875 -4.15625 C 3.378906 -4.300781 2.691406 -4.59375 2.234375 -5.03125 C 1.773438 -5.476562 1.546875 -6.097656 1.546875 -6.890625 C 1.546875 -7.734375 1.84375 -8.390625 2.4375 -8.859375 C 3.039062 -9.328125 3.878906 -9.5625 4.953125 -9.5625 L 5.421875 -9.5625 C 5.878906 -9.5625 6.300781 -9.503906 6.6875 -9.390625 C 7.070312 -9.273438 7.410156 -9.109375 7.703125 -8.890625 C 8.003906 -8.679688 8.25 -8.429688 8.4375 -8.140625 C 8.625 -7.859375 8.742188 -7.539062 8.796875 -7.1875 L 7.1875 -7.1875 C 7.113281 -7.476562 6.914062 -7.71875 6.59375 -7.90625 C 6.28125 -8.09375 5.890625 -8.1875 5.421875 -8.1875 L 4.953125 -8.1875 C 4.367188 -8.1875 3.914062 -8.070312 3.59375 -7.84375 C 3.269531 -7.613281 3.109375 -7.273438 3.109375 -6.828125 C 3.109375 -6.460938 3.21875 -6.1875 3.4375 -6 C 3.65625 -5.8125 4.015625 -5.679688 4.515625 -5.609375 L 5.9375 -5.40625 C 6.945312 -5.257812 7.679688 -4.960938 8.140625 -4.515625 C 8.609375 -4.078125 8.84375 -3.445312 8.84375 -2.625 C 8.84375 -1.75 8.535156 -1.0625 7.921875 -0.5625 C 7.316406 -0.0703125 6.457031 0.171875 5.34375 0.171875 Z M 4.859375 0.171875 "/></g></g></g><g fill="#ffffff" fill-opacity="1"><g transform="translate(10.993781, 16.463693)"><g><path d="M 1.03125 -9.390625 L 3.75 -9.390625 L 3.75 -12.28125 L 5.296875 -12.28125 L 5.296875 -9.390625 L 8.953125 -9.390625 L 8.953125 -7.984375 L 5.296875 -7.984375 L 5.296875 -2.421875 C 5.296875 -2.097656 5.394531 -1.847656 5.59375 -1.671875 C 5.789062 -1.492188 6.054688 -1.40625 6.390625 -1.40625 L 8.78125 -1.40625 L 8.78125 0 L 6.390625 0 C 5.585938 0 4.945312 -0.21875 4.46875 -0.65625 C 3.988281 -1.101562 3.75 -1.691406 3.75 -2.421875 L 3.75 -7.984375 L 1.03125 -7.984375 Z M 1.03125 -9.390625 "/></g></g></g><g fill="#ffffff" fill-opacity="1"><g transform="translate(21.222052, 16.463693)"><g><path d="M 2.90625 -3.5 C 2.90625 -2.78125 3.097656 -2.210938 3.484375 -1.796875 C 3.878906 -1.390625 4.425781 -1.1875 5.125 -1.1875 C 5.800781 -1.1875 6.335938 -1.390625 6.734375 -1.796875 C 7.140625 -2.210938 7.34375 -2.78125 7.34375 -3.5 L 7.34375 -5.890625 C 7.34375 -6.609375 7.140625 -7.171875 6.734375 -7.578125 C 6.335938 -7.984375 5.800781 -8.1875 5.125 -8.1875 C 4.4375 -8.1875 3.894531 -7.984375 3.5 -7.578125 C 3.101562 -7.171875 2.90625 -6.609375 2.90625 -5.890625 Z M 1.359375 -5.890625 C 1.359375 -6.453125 1.445312 -6.957031 1.625 -7.40625 C 1.800781 -7.863281 2.050781 -8.25 2.375 -8.5625 C 2.695312 -8.882812 3.085938 -9.128906 3.546875 -9.296875 C 4.015625 -9.472656 4.539062 -9.5625 5.125 -9.5625 C 6.28125 -9.5625 7.191406 -9.234375 7.859375 -8.578125 C 8.535156 -7.929688 8.875 -7.039062 8.875 -5.90625 L 8.875 -3.5 C 8.875 -2.925781 8.785156 -2.410156 8.609375 -1.953125 C 8.441406 -1.503906 8.195312 -1.125 7.875 -0.8125 C 7.550781 -0.5 7.15625 -0.253906 6.6875 -0.078125 C 6.21875 0.0859375 5.695312 0.171875 5.125 0.171875 C 4.539062 0.171875 4.015625 0.0859375 3.546875 -0.078125 C 3.085938 -0.253906 2.695312 -0.5 2.375 -0.8125 C 2.050781 -1.132812 1.800781 -1.519531 1.625 -1.96875 C 1.445312 -2.425781 1.359375 -2.9375 1.359375 -3.5 Z M 1.359375 -5.890625 "/></g></g></g><g fill="#ffffff" fill-opacity="1"><g transform="translate(31.450322, 16.463693)"><g><path d="M 1.90625 -9.390625 L 3.359375 -9.390625 L 3.359375 -7.765625 L 3.5 -7.765625 C 3.644531 -8.316406 3.953125 -8.753906 4.421875 -9.078125 C 4.890625 -9.398438 5.460938 -9.5625 6.140625 -9.5625 C 7.128906 -9.5625 7.90625 -9.25 8.46875 -8.625 C 9.03125 -8 9.3125 -7.148438 9.3125 -6.078125 L 9.3125 -5.546875 L 7.78125 -5.546875 L 7.78125 -5.890625 C 7.78125 -6.628906 7.59375 -7.195312 7.21875 -7.59375 C 6.851562 -8 6.328125 -8.203125 5.640625 -8.203125 C 4.972656 -8.203125 4.441406 -7.992188 4.046875 -7.578125 C 3.648438 -7.171875 3.453125 -6.609375 3.453125 -5.890625 L 3.453125 0 L 1.90625 0 Z M 1.90625 -9.390625 "/></g></g></g><g fill="#ffffff" fill-opacity="1"><g transform="translate(41.678593, 16.463693)"><g><path d="M 5.125 0.171875 C 3.945312 0.171875 3.023438 -0.144531 2.359375 -0.78125 C 1.691406 -1.414062 1.359375 -2.289062 1.359375 -3.40625 L 1.359375 -5.96875 C 1.359375 -7.082031 1.691406 -7.957031 2.359375 -8.59375 C 3.023438 -9.238281 3.945312 -9.5625 5.125 -9.5625 C 6.289062 -9.5625 7.207031 -9.238281 7.875 -8.59375 C 8.539062 -7.957031 8.875 -7.082031 8.875 -5.96875 L 8.875 -4.25 L 2.90625 -4.25 L 2.90625 -3.5 C 2.90625 -2.78125 3.097656 -2.210938 3.484375 -1.796875 C 3.878906 -1.390625 4.425781 -1.1875 5.125 -1.1875 C 5.632812 -1.1875 6.078125 -1.265625 6.453125 -1.421875 C 6.828125 -1.585938 7.101562 -1.820312 7.28125 -2.125 L 8.828125 -2.125 C 8.628906 -1.414062 8.195312 -0.851562 7.53125 -0.4375 C 6.863281 -0.03125 6.0625 0.171875 5.125 0.171875 Z M 7.34375 -5.53125 L 7.34375 -5.96875 C 7.34375 -6.675781 7.144531 -7.222656 6.75 -7.609375 C 6.363281 -7.992188 5.820312 -8.1875 5.125 -8.1875 C 4.414062 -8.1875 3.867188 -7.992188 3.484375 -7.609375 C 3.097656 -7.222656 2.90625 -6.675781 2.90625 -5.96875 L 2.90625 -5.53125 Z M 7.34375 -5.53125 "/></g></g></g><g fill="#ffffff" fill-opacity="1"><g transform="translate(51.906864, 16.463693)"><g/></g></g><g fill="#ffffff" fill-opacity="1"><g transform="translate(62.135135, 16.463693)"><g><path d="M 0.9375 -4.78125 C 0.9375 -5.382812 1.09375 -5.878906 1.40625 -6.265625 C 1.71875 -6.660156 2.164062 -6.9375 2.75 -7.09375 L 2.625 -7.265625 C 2.28125 -7.742188 2.039062 -8.164062 1.90625 -8.53125 C 1.769531 -8.90625 1.703125 -9.273438 1.703125 -9.640625 C 1.703125 -10.046875 1.769531 -10.421875 1.90625 -10.765625 C 2.050781 -11.117188 2.257812 -11.421875 2.53125 -11.671875 C 2.800781 -11.921875 3.125 -12.113281 3.5 -12.25 C 3.875 -12.382812 4.300781 -12.453125 4.78125 -12.453125 C 5.789062 -12.453125 6.578125 -12.1875 7.140625 -11.65625 C 7.710938 -11.132812 8 -10.425781 8 -9.53125 L 6.46875 -9.53125 C 6.46875 -10 6.316406 -10.378906 6.015625 -10.671875 C 5.710938 -10.972656 5.300781 -11.125 4.78125 -11.125 C 4.300781 -11.125 3.921875 -10.976562 3.640625 -10.6875 C 3.367188 -10.394531 3.234375 -10.035156 3.234375 -9.609375 C 3.234375 -9.109375 3.4375 -8.578125 3.84375 -8.015625 L 6.78125 -3.96875 L 7.984375 -6.140625 L 9.59375 -6.140625 L 7.65625 -2.75 L 9.65625 0 L 7.96875 0 L 6.875 -1.484375 C 6.46875 -0.941406 6.015625 -0.53125 5.515625 -0.25 C 5.015625 0.03125 4.484375 0.171875 3.921875 0.171875 C 2.992188 0.171875 2.265625 -0.0703125 1.734375 -0.5625 C 1.203125 -1.0625 0.9375 -1.753906 0.9375 -2.640625 Z M 4.015625 -1.1875 C 4.398438 -1.1875 4.769531 -1.316406 5.125 -1.578125 C 5.488281 -1.835938 5.796875 -2.1875 6.046875 -2.625 L 3.390625 -6.234375 C 2.773438 -6.035156 2.46875 -5.550781 2.46875 -4.78125 L 2.46875 -2.640625 C 2.46875 -2.171875 2.601562 -1.8125 2.875 -1.5625 C 3.144531 -1.3125 3.523438 -1.1875 4.015625 -1.1875 Z M 4.015625 -1.1875 "/></g></g></g><g fill="#ffffff" fill-opacity="1"><g transform="translate(72.363405, 16.463693)"><g/></g></g><g fill="#ffffff" fill-opacity="1"><g transform="translate(82.591676, 16.463693)"><g><path d="M 1.90625 -9.390625 L 3.359375 -9.390625 L 3.359375 -7.765625 L 3.5 -7.765625 C 3.644531 -8.316406 3.953125 -8.753906 4.421875 -9.078125 C 4.890625 -9.398438 5.460938 -9.5625 6.140625 -9.5625 C 7.128906 -9.5625 7.90625 -9.25 8.46875 -8.625 C 9.03125 -8 9.3125 -7.148438 9.3125 -6.078125 L 9.3125 -5.546875 L 7.78125 -5.546875 L 7.78125 -5.890625 C 7.78125 -6.628906 7.59375 -7.195312 7.21875 -7.59375 C 6.851562 -8 6.328125 -8.203125 5.640625 -8.203125 C 4.972656 -8.203125 4.441406 -7.992188 4.046875 -7.578125 C 3.648438 -7.171875 3.453125 -6.609375 3.453125 -5.890625 L 3.453125 0 L 1.90625 0 Z M 1.90625 -9.390625 "/></g></g></g><g fill="#ffffff" fill-opacity="1"><g transform="translate(92.819947, 16.463693)"><g><path d="M 5.125 0.171875 C 3.945312 0.171875 3.023438 -0.144531 2.359375 -0.78125 C 1.691406 -1.414062 1.359375 -2.289062 1.359375 -3.40625 L 1.359375 -5.96875 C 1.359375 -7.082031 1.691406 -7.957031 2.359375 -8.59375 C 3.023438 -9.238281 3.945312 -9.5625 5.125 -9.5625 C 6.289062 -9.5625 7.207031 -9.238281 7.875 -8.59375 C 8.539062 -7.957031 8.875 -7.082031 8.875 -5.96875 L 8.875 -4.25 L 2.90625 -4.25 L 2.90625 -3.5 C 2.90625 -2.78125 3.097656 -2.210938 3.484375 -1.796875 C 3.878906 -1.390625 4.425781 -1.1875 5.125 -1.1875 C 5.632812 -1.1875 6.078125 -1.265625 6.453125 -1.421875 C 6.828125 -1.585938 7.101562 -1.820312 7.28125 -2.125 L 8.828125 -2.125 C 8.628906 -1.414062 8.195312 -0.851562 7.53125 -0.4375 C 6.863281 -0.03125 6.0625 0.171875 5.125 0.171875 Z M 7.34375 -5.53125 L 7.34375 -5.96875 C 7.34375 -6.675781 7.144531 -7.222656 6.75 -7.609375 C 6.363281 -7.992188 5.820312 -8.1875 5.125 -8.1875 C 4.414062 -8.1875 3.867188 -7.992188 3.484375 -7.609375 C 3.097656 -7.222656 2.90625 -6.675781 2.90625 -5.96875 L 2.90625 -5.53125 Z M 7.34375 -5.53125 "/></g></g></g><g fill="#ffffff" fill-opacity="1"><g transform="translate(103.048218, 16.463693)"><g><path d="M 1.03125 -9.390625 L 3.75 -9.390625 L 3.75 -12.28125 L 5.296875 -12.28125 L 5.296875 -9.390625 L 8.953125 -9.390625 L 8.953125 -7.984375 L 5.296875 -7.984375 L 5.296875 -2.421875 C 5.296875 -2.097656 5.394531 -1.847656 5.59375 -1.671875 C 5.789062 -1.492188 6.054688 -1.40625 6.390625 -1.40625 L 8.78125 -1.40625 L 8.78125 0 L 6.390625 0 C 5.585938 0 4.945312 -0.21875 4.46875 -0.65625 C 3.988281 -1.101562 3.75 -1.691406 3.75 -2.421875 L 3.75 -7.984375 L 1.03125 -7.984375 Z M 1.03125 -9.390625 "/></g></g></g><g fill="#ffffff" fill-opacity="1"><g transform="translate(113.276488, 16.463693)"><g><path d="M 1.90625 -9.390625 L 3.359375 -9.390625 L 3.359375 -7.765625 L 3.5 -7.765625 C 3.644531 -8.316406 3.953125 -8.753906 4.421875 -9.078125 C 4.890625 -9.398438 5.460938 -9.5625 6.140625 -9.5625 C 7.128906 -9.5625 7.90625 -9.25 8.46875 -8.625 C 9.03125 -8 9.3125 -7.148438 9.3125 -6.078125 L 9.3125 -5.546875 L 7.78125 -5.546875 L 7.78125 -5.890625 C 7.78125 -6.628906 7.59375 -7.195312 7.21875 -7.59375 C 6.851562 -8 6.328125 -8.203125 5.640625 -8.203125 C 4.972656 -8.203125 4.441406 -7.992188 4.046875 -7.578125 C 3.648438 -7.171875 3.453125 -6.609375 3.453125 -5.890625 L 3.453125 0 L 1.90625 0 Z M 1.90625 -9.390625 "/></g></g></g><g fill="#ffffff" fill-opacity="1"><g transform="translate(123.504759, 16.463693)"><g><path d="M 1.625 0 L 1.625 -1.40625 L 5.03125 -1.40625 L 5.03125 -7.984375 L 2.046875 -7.984375 L 2.046875 -9.390625 L 6.5625 -9.390625 L 6.5625 -1.40625 L 9.390625 -1.40625 L 9.390625 0 Z M 5.375 -13.046875 L 5.71875 -13.046875 C 6.039062 -13.046875 6.304688 -12.945312 6.515625 -12.75 C 6.722656 -12.5625 6.828125 -12.316406 6.828125 -12.015625 C 6.828125 -11.703125 6.722656 -11.453125 6.515625 -11.265625 C 6.304688 -11.085938 6.039062 -11 5.71875 -11 L 5.375 -11 C 5.039062 -11 4.769531 -11.085938 4.5625 -11.265625 C 4.363281 -11.441406 4.265625 -11.691406 4.265625 -12.015625 C 4.265625 -12.316406 4.363281 -12.5625 4.5625 -12.75 C 4.769531 -12.945312 5.039062 -13.046875 5.375 -13.046875 Z M 5.375 -13.046875 "/></g></g></g><g fill="#ffffff" fill-opacity="1"><g transform="translate(133.73303, 16.463693)"><g><path d="M 5.125 0.171875 C 3.945312 0.171875 3.023438 -0.144531 2.359375 -0.78125 C 1.691406 -1.414062 1.359375 -2.289062 1.359375 -3.40625 L 1.359375 -5.96875 C 1.359375 -7.082031 1.691406 -7.957031 2.359375 -8.59375 C 3.023438 -9.238281 3.945312 -9.5625 5.125 -9.5625 C 6.289062 -9.5625 7.207031 -9.238281 7.875 -8.59375 C 8.539062 -7.957031 8.875 -7.082031 8.875 -5.96875 L 8.875 -4.25 L 2.90625 -4.25 L 2.90625 -3.5 C 2.90625 -2.78125 3.097656 -2.210938 3.484375 -1.796875 C 3.878906 -1.390625 4.425781 -1.1875 5.125 -1.1875 C 5.632812 -1.1875 6.078125 -1.265625 6.453125 -1.421875 C 6.828125 -1.585938 7.101562 -1.820312 7.28125 -2.125 L 8.828125 -2.125 C 8.628906 -1.414062 8.195312 -0.851562 7.53125 -0.4375 C 6.863281 -0.03125 6.0625 0.171875 5.125 0.171875 Z M 7.34375 -5.53125 L 7.34375 -5.96875 C 7.34375 -6.675781 7.144531 -7.222656 6.75 -7.609375 C 6.363281 -7.992188 5.820312 -8.1875 5.125 -8.1875 C 4.414062 -8.1875 3.867188 -7.992188 3.484375 -7.609375 C 3.097656 -7.222656 2.90625 -6.675781 2.90625 -5.96875 L 2.90625 -5.53125 Z M 7.34375 -5.53125 "/></g></g></g><g fill="#ffffff" fill-opacity="1"><g transform="translate(143.961301, 16.463693)"><g><path d="M 0.859375 -9.390625 L 2.46875 -9.390625 L 4.765625 -2.75 C 4.847656 -2.488281 4.910156 -2.253906 4.953125 -2.046875 C 5.003906 -1.847656 5.039062 -1.679688 5.0625 -1.546875 C 5.09375 -1.378906 5.109375 -1.234375 5.109375 -1.109375 L 5.25 -1.109375 C 5.238281 -1.234375 5.242188 -1.378906 5.265625 -1.546875 C 5.296875 -1.679688 5.328125 -1.847656 5.359375 -2.046875 C 5.390625 -2.253906 5.453125 -2.488281 5.546875 -2.75 L 7.71875 -9.390625 L 9.390625 -9.390625 L 6.015625 0 L 4.28125 0 Z M 0.859375 -9.390625 "/></g></g></g><g fill="#ffffff" fill-opacity="1"><g transform="translate(154.189571, 16.463693)"><g><path d="M 5.125 0.171875 C 3.945312 0.171875 3.023438 -0.144531 2.359375 -0.78125 C 1.691406 -1.414062 1.359375 -2.289062 1.359375 -3.40625 L 1.359375 -5.96875 C 1.359375 -7.082031 1.691406 -7.957031 2.359375 -8.59375 C 3.023438 -9.238281 3.945312 -9.5625 5.125 -9.5625 C 6.289062 -9.5625 7.207031 -9.238281 7.875 -8.59375 C 8.539062 -7.957031 8.875 -7.082031 8.875 -5.96875 L 8.875 -4.25 L 2.90625 -4.25 L 2.90625 -3.5 C 2.90625 -2.78125 3.097656 -2.210938 3.484375 -1.796875 C 3.878906 -1.390625 4.425781 -1.1875 5.125 -1.1875 C 5.632812 -1.1875 6.078125 -1.265625 6.453125 -1.421875 C 6.828125 -1.585938 7.101562 -1.820312 7.28125 -2.125 L 8.828125 -2.125 C 8.628906 -1.414062 8.195312 -0.851562 7.53125 -0.4375 C 6.863281 -0.03125 6.0625 0.171875 5.125 0.171875 Z M 7.34375 -5.53125 L 7.34375 -5.96875 C 7.34375 -6.675781 7.144531 -7.222656 6.75 -7.609375 C 6.363281 -7.992188 5.820312 -8.1875 5.125 -8.1875 C 4.414062 -8.1875 3.867188 -7.992188 3.484375 -7.609375 C 3.097656 -7.222656 2.90625 -6.675781 2.90625 -5.96875 L 2.90625 -5.53125 Z M 7.34375 -5.53125 "/></g></g></g></g></g></svg>